<?xml version="1.0" encoding="UTF-8" standalone="no"?>
<!DOCTYPE svg PUBLIC "-//W3C//DTD SVG 1.1//EN" "http://www.w3.org/Graphics/SVG/1.1/DTD/svg11.dtd">
<!-- Generated by Microsoft Visio, SVG Export pack1862-color-trans.svg Page-1 -->
<svg xmlns="http://www.w3.org/2000/svg" xmlns:xlink="http://www.w3.org/1999/xlink" xmlns:ev="http://www.w3.org/2001/xml-events"
		width="5.61943in" height="5.8912in" viewBox="0 0 404.599 424.167" xml:space="preserve" color-interpolation-filters="sRGB"
		class="st6">
	<style type="text/css">
	<![CDATA[
		.st1 {fill:#808080;stroke:none;stroke-linecap:round;stroke-linejoin:round;stroke-width:0.75}
		.st2 {fill:#ce1126;stroke:none;stroke-linecap:round;stroke-linejoin:round;stroke-width:0.75}
		.st3 {fill:#003f87;stroke:none;stroke-linecap:round;stroke-linejoin:round;stroke-width:0.75}
		.st4 {fill:#ffffff;stroke:none;stroke-linecap:round;stroke-linejoin:round;stroke-width:0.75}
		.st5 {fill:#404040;stroke:none;stroke-linecap:round;stroke-linejoin:round;stroke-width:0.75}
		.st6 {fill:none;fill-rule:evenodd;font-size:12px;overflow:visible;stroke-linecap:square;stroke-miterlimit:3}
	]]>
	</style>

	<g>
		<title>Page-1</title>
		<g id="shape4-1" transform="translate(75.9367,-370.445)">
			<title>Sheet.4</title>
			<path d="M0.18 411.21 C0.63 409.05 1.87 407.31 3.87 406.01 C6.57 404.28 9.09 403.9 11.48 404.86 C12.8 405.42 13.82 406.17
						 14.51 407.13 L11.16 409.29 C10.46 408.66 9.81 408.26 9.23 408.1 C8.17 407.79 7.04 408.01 5.85 408.8 C4.64
						 409.56 3.99 410.69 3.92 412.11 C3.85 413.55 4.39 415.17 5.54 416.94 C6.71 418.74 7.94 419.84 9.25 420.27
						 C10.58 420.68 11.79 420.52 12.94 419.78 C14.11 419.03 14.76 418.07 14.87 416.92 C14.96 416.27 14.83 415.48
						 14.54 414.51 L17.84 412.38 C18.67 414.31 18.85 416.2 18.36 418.07 C17.86 419.91 16.69 421.44 14.85 422.63
						 C12.53 424.12 10.26 424.55 7.99 423.92 C5.72 423.29 3.76 421.69 2.1 419.1 C0.3 416.31 -0.36 413.68 0.18
						 411.21 Z" class="st1"/>
		</g>
		<g id="shape5-3" transform="translate(94.2468,-379.49)">
			<title>Sheet.5</title>
			<path d="M3.83 416.88 L8.87 414.18 C8.37 413.34 7.76 412.83 7.04 412.62 C6.35 412.44 5.65 412.53 4.95 412.89 C4.21 413.3
						 3.76 413.84 3.6 414.54 C3.42 415.23 3.51 416 3.83 416.88 ZM9.65 410.04 C10.53 410.51 11.32 411.21 11.97
						 412.11 C12.35 412.62 12.83 413.43 13.39 414.49 L4.91 419.06 C5.61 420.27 6.48 420.93 7.47 421.04 C8.1 421.11
						 8.71 420.97 9.34 420.63 C10.01 420.27 10.44 419.8 10.67 419.19 C10.78 418.88 10.82 418.47 10.8 418.02 L14.13
						 416.25 C14.42 417.03 14.45 417.98 14.18 419.1 C13.75 420.88 12.6 422.28 10.69 423.31 C9.11 424.14 7.45 424.39
						 5.7 424.01 C3.94 423.65 2.46 422.32 1.22 420.03 C0.07 417.87 -0.27 415.93 0.21 414.22 C0.68 412.49 1.8 411.16
						 3.54 410.22 C4.57 409.68 5.58 409.36 6.62 409.32 C7.65 409.25 8.66 409.5 9.65 410.04 Z" class="st1"/>
		</g>
		<g id="shape6-5" transform="translate(107.028,-384.958)">
			<title>Sheet.6</title>
			<path d="M13.47 410.35 L17.34 418.99 L13.88 420.55 L10.41 412.72 L10.41 412.72 C10.1 412.04 9.79 411.57 9.45 411.28 C8.82
						 410.76 8.05 410.71 7.13 411.12 C5.98 411.64 5.42 412.47 5.42 413.62 C5.42 414.22 5.6 414.94 5.96 415.73
						 L9.07 422.68 L5.71 424.17 L0 411.34 L3.24 409.9 L4.07 411.77 L4.07 411.77 C4.21 410.92 4.41 410.26 4.66
						 409.81 C5.13 408.98 5.89 408.33 6.95 407.86 C8.28 407.27 9.52 407.14 10.68 407.45 C11.83 407.77 12.75 408.74
						 13.47 410.35 Z" class="st1"/>
		</g>
		<g id="shape7-7" transform="translate(121.312,-392.155)">
			<title>Sheet.7</title>
			<path d="M0.92 414.92 L0 412.45 L1.84 411.77 L0.47 408.1 L3.89 406.82 L5.26 410.49 L7.4 409.7 L8.3 412.15 L6.16 412.96
						 L8.77 419.91 L8.77 419.91 C8.98 420.45 9.16 420.77 9.36 420.86 C9.54 420.93 9.99 420.84 10.68 420.59 C10.8
						 420.54 10.89 420.5 11.02 420.45 C11.13 420.41 11.25 420.36 11.36 420.3 L12.3 422.88 L10.71 423.56 L10.71
						 423.56 C9.09 424.21 7.87 424.35 7.04 423.94 C6.52 423.69 6.1 423.15 5.78 422.34 L2.77 414.22 L0.92 414.92
						 Z" class="st1"/>
		</g>
		<g id="shape8-9" transform="translate(131.457,-394.316)">
			<title>Sheet.8</title>
			<path d="M7.67 407.97 L8.84 411.55 C8.59 411.61 8.39 411.66 8.23 411.7 C8.05 411.75 7.92 411.79 7.81 411.82 C6.39 412.27
						 5.6 413.03 5.42 414.11 C5.31 414.72 5.42 415.55 5.78 416.63 L7.85 423.02 L4.32 424.17 L0 410.78 L3.33 409.7
						 L4.09 412.04 L4.09 412.04 C4.34 410.96 4.61 410.2 4.9 409.75 C5.4 408.98 6.14 408.44 7.2 408.11 C7.27 408.08
						 7.31 408.06 7.36 408.06 C7.42 408.04 7.51 408.02 7.67 407.97 Z" class="st1"/>
		</g>
		<g id="shape9-11" transform="translate(142.443,-398.192)">
			<title>Sheet.9</title>
			<path d="M3.66 416.05 L9.19 414.61 C8.9 413.69 8.43 413.06 7.8 412.7 C7.14 412.34 6.45 412.27 5.7 412.45 C4.87 412.68
						 4.29 413.08 3.97 413.74 C3.66 414.37 3.54 415.13 3.66 416.05 ZM10.92 410.81 C11.66 411.46 12.25 412.32 12.7
						 413.35 C12.95 413.94 13.22 414.84 13.51 416.01 L4.17 418.42 C4.58 419.76 5.25 420.62 6.2 420.96 C6.78 421.18
						 7.41 421.2 8.11 421.02 C8.85 420.82 9.39 420.46 9.73 419.94 C9.93 419.65 10.07 419.27 10.16 418.82 L13.8
						 417.9 C13.91 418.73 13.71 419.65 13.17 420.69 C12.34 422.31 10.88 423.39 8.79 423.93 C7.05 424.38 5.37 424.2
						 3.77 423.43 C2.15 422.67 1.03 421 0.37 418.48 C-0.23 416.14 -0.1 414.16 0.78 412.61 C1.63 411.04 3.03 410
						 4.94 409.53 C6.06 409.24 7.14 409.17 8.16 409.37 C9.19 409.55 10.11 410.05 10.92 410.81 Z" class="st1"/>
		</g>
		<g id="shape10-13" transform="translate(155.975,-401.672)">
			<title>Sheet.10</title>
			<path d="M9.9 409.41 L13.77 408.71 L11.34 423.45 L7.51 424.17 L0 411.23 L4.07 410.49 L8.82 420.16 L9.9 409.41 Z"
					class="st1"/>
		</g>
		<g id="shape11-15" transform="translate(171.946,-403.494)">
			<title>Sheet.11</title>
			<path d="M4.14 408.08 L0.43 408.56 L0 405.2 L3.69 404.71 L4.14 408.08 ZM0.65 410.22 L4.36 409.75 L6.16 423.69 L2.47 424.17
						 L0.65 410.22 Z" class="st1"/>
		</g>
		<g id="shape12-17" transform="translate(179.999,-404.371)">
			<title>Sheet.12</title>
			<path d="M5.4 423.83 L1.73 424.17 L0 405.23 L3.67 404.89 L5.4 423.83 Z" class="st1"/>
		</g>
		<g id="shape13-19" transform="translate(187.962,-404.978)">
			<title>Sheet.13</title>
			<path d="M4.77 423.96 L1.08 424.17 L0 405.18 L3.67 404.98 L4.77 423.96 Z" class="st1"/>
		</g>
		<g id="shape14-21" transform="translate(195.16,-404.956)">
			<title>Sheet.14</title>
			<path d="M3.78 415.26 L9.49 415.24 C9.43 414.27 9.13 413.53 8.59 413.03 C8.08 412.54 7.4 412.29 6.64 412.29 C5.78 412.29
						 5.11 412.56 4.66 413.1 C4.18 413.64 3.89 414.36 3.78 415.26 ZM12.1 411.95 C12.66 412.78 13.02 413.75 13.2
						 414.85 C13.29 415.51 13.34 416.43 13.34 417.64 L3.71 417.69 C3.76 419.11 4.21 420.1 5.06 420.66 C5.56 421.02
						 6.16 421.17 6.88 421.17 C7.65 421.17 8.26 420.95 8.73 420.52 C8.98 420.28 9.22 419.96 9.4 419.56 L13.16
						 419.53 C13.07 420.37 12.64 421.22 11.88 422.07 C10.68 423.45 9 424.14 6.84 424.17 C5.04 424.17 3.46 423.6
						 2.09 422.46 C0.7 421.31 0.02 419.44 0 416.83 C-0.02 414.4 0.58 412.54 1.82 411.23 C3.04 409.93 4.63 409.25
						 6.61 409.25 C7.78 409.25 8.84 409.45 9.79 409.88 C10.71 410.33 11.49 411.01 12.1 411.95 Z" class="st1"/>
		</g>
		<g id="shape15-23" transform="translate(210.614,-400.839)">
			<title>Sheet.15</title>
			<path d="M0.07 422.75 C0.81 422.57 1.37 422.25 1.73 421.78 C2.11 421.33 2.34 420.66 2.43 419.8 L0.2 419.69 L0.36 415.84
						 L4.34 416.02 L4.18 419.35 L4.18 419.35 C4.16 419.94 4.07 420.55 3.87 421.17 C3.69 421.8 3.37 422.34 2.95
						 422.79 C2.45 423.27 1.91 423.63 1.28 423.85 C0.65 424.08 0.22 424.17 0 424.17 L0.07 422.75 Z" class="st1"/>
		</g>
		<g id="shape16-25" transform="translate(227.237,-403.089)">
			<title>Sheet.16</title>
			<path d="M12.42 405.68 L16.51 406.26 L7.4 424.17 L3.69 423.65 L0 403.92 L4.21 404.51 L6.25 419.38 L12.42 405.68 Z"
					class="st1"/>
		</g>
		<g id="shape17-27" transform="translate(242.668,-400.974)">
			<title>Sheet.17</title>
			<path d="M6.79 408.74 L3.13 407.99 L3.8 404.66 L7.47 405.41 L6.79 408.74 ZM2.81 409.63 L6.46 410.38 L3.67 424.17 L0 423.42
						 L2.81 409.63 Z" class="st1"/>
		</g>
		<g id="shape18-29" transform="translate(249.776,-399.355)">
			<title>Sheet.18</title>
			<path d="M11.36 411.25 L10.46 414.92 C10.23 414.85 10.03 414.79 9.87 414.72 C9.7 414.67 9.56 414.63 9.45 414.61 C8.01
						 414.27 6.93 414.49 6.21 415.3 C5.8 415.78 5.47 416.54 5.2 417.64 L3.6 424.17 L0 423.29 L3.35 409.61 L6.75
						 410.47 L6.16 412.83 L6.16 412.83 C6.95 412.06 7.58 411.57 8.08 411.32 C8.89 410.94 9.81 410.87 10.89 411.12
						 C10.95 411.14 11 411.16 11.04 411.16 C11.09 411.19 11.2 411.21 11.36 411.25 Z" class="st1"/>
		</g>
		<g id="shape19-31" transform="translate(258.728,-390.002)">
			<title>Sheet.19</title>
			<path d="M11.9 412.34 C12.28 411.08 12.33 410.02 11.99 409.19 C11.65 408.36 11.05 407.8 10.15 407.5 C8.91 407.12 7.87
						 407.44 7.04 408.45 C6.61 408.99 6.25 409.71 5.96 410.61 C5.71 411.4 5.65 412.14 5.71 412.81 C5.83 414.09
						 6.5 414.93 7.74 415.31 C8.57 415.58 9.36 415.49 10.12 415.04 C10.87 414.59 11.47 413.69 11.9 412.34 ZM11.92
						 405.03 C12.67 405.66 13.16 406.51 13.38 407.64 L13.99 405.7 L17.41 406.76 L13.43 419.49 L13.43 419.49 C12.89
						 421.23 12.19 422.44 11.34 423.14 C9.85 424.35 7.69 424.51 4.86 423.61 C3.13 423.07 1.85 422.31 0.97 421.29
						 C0.09 420.28 -0.18 419.09 0.11 417.72 L3.94 418.91 C3.89 419.34 3.96 419.7 4.14 419.94 C4.41 420.37 4.99
						 420.73 5.89 421.02 C7.15 421.41 8.14 421.25 8.82 420.55 C9.27 420.08 9.7 419.22 10.1 417.94 L10.37 417.06
						 C9.85 417.54 9.36 417.85 8.89 418.03 C8.01 418.35 7.02 418.32 5.92 417.99 C4.18 417.45 2.99 416.41 2.34
						 414.88 C1.69 413.33 1.69 411.53 2.34 409.46 C2.97 407.48 3.98 405.95 5.4 404.89 C6.82 403.86 8.44 403.61
						 10.26 404.17 C10.93 404.4 11.5 404.67 11.92 405.03 Z" class="st1"/>
		</g>
		<g id="shape20-33" transform="translate(275.195,-391.414)">
			<title>Sheet.20</title>
			<path d="M9.02 409.43 L5.53 408.13 L6.73 404.93 L10.21 406.26 L9.02 409.43 ZM4.93 409.68 L8.44 411.01 L3.49 424.17 L0
						 422.86 L4.93 409.68 Z" class="st1"/>
		</g>
		<g id="shape21-35" transform="translate(282.056,-385.048)">
			<title>Sheet.21</title>
			<path d="M15.48 415.51 L11.65 424.17 L8.19 422.66 L11.65 414.83 L11.65 414.83 C11.94 414.13 12.08 413.59 12.06 413.14
						 C12.03 412.33 11.54 411.73 10.62 411.32 C9.47 410.8 8.48 410.96 7.63 411.73 C7.18 412.15 6.77 412.76 6.43
						 413.55 L3.35 420.52 L0 419.04 L5.67 406.19 L8.91 407.61 L8.1 409.5 L8.1 409.5 C8.82 409.03 9.43 408.74 9.94
						 408.6 C10.86 408.4 11.85 408.53 12.93 408.98 C14.26 409.59 15.18 410.4 15.72 411.48 C16.26 412.54 16.17
						 413.89 15.48 415.51 Z" class="st1"/>
		</g>
		<g id="shape22-37" transform="translate(296.767,-381.764)">
			<title>Sheet.22</title>
			<path d="M10.46 410.13 L7.13 408.44 L8.66 405.41 L11.99 407.12 L10.46 410.13 ZM6.37 409.93 L9.7 411.64 L3.33 424.17 L0
						 422.48 L6.37 409.93 Z" class="st1"/>
		</g>
		<g id="shape23-39" transform="translate(303.658,-374.025)">
			<title>Sheet.23</title>
			<path d="M9.76 416 C9.46 416.02 9.22 416 8.97 415.96 C8.7 415.93 8.38 415.84 7.98 415.69 L7.19 415.42 C6.45 415.15 5.89
						 415.01 5.5 415.01 C4.85 415.03 4.33 415.33 3.97 415.93 C3.66 416.5 3.59 416.97 3.75 417.37 C3.91 417.8 4.22
						 418.14 4.65 418.39 C5.32 418.77 6.09 418.95 6.9 418.88 C7.71 418.81 8.43 418.25 9.06 417.19 L9.76 416 ZM8.68
						 413.41 C9.31 413.66 9.78 413.82 10.09 413.86 C10.65 413.93 11.06 413.75 11.31 413.35 C11.6 412.85 11.62
						 412.4 11.37 412.02 C11.15 411.61 10.7 411.23 10.03 410.85 C9.26 410.4 8.63 410.29 8.09 410.49 C7.71 410.62
						 7.35 410.92 7.01 411.34 L3.93 409.57 C4.63 408.53 5.41 407.84 6.34 407.45 C7.8 406.87 9.55 407.16 11.6 408.35
						 C12.95 409.12 13.98 410.06 14.7 411.21 C15.42 412.33 15.38 413.62 14.52 415.1 L11.28 420.68 C11.06 421.06
						 10.81 421.53 10.5 422.1 C10.27 422.52 10.18 422.84 10.2 423.06 C10.23 423.27 10.29 423.47 10.45 423.69 L10.18
						 424.17 L6.72 422.16 L6.72 422.16 C6.76 421.87 6.83 421.6 6.92 421.35 C7.01 421.11 7.12 420.86 7.26 420.57
						 C6.54 420.79 5.8 420.9 5.03 420.9 C4.13 420.9 3.23 420.66 2.38 420.16 C1.27 419.51 0.53 418.68 0.17 417.62
						 C-0.16 416.59 -0.01 415.48 0.64 414.34 C1.52 412.83 2.71 412.09 4.27 412.09 C5.1 412.09 6.2 412.36 7.51
						 412.92 L8.68 413.41 Z" class="st1"/>
		</g>
		<g id="shape24-41" transform="translate(29.9624,-12.0349)">
			<title>Sheet.24</title>
			<path d="M258.41 96.73 L270.7 84.45 C268.4 83.55 265.97 83.19 263.63 83.55 C263.63 83.55 262.44 83.97 261.25 84.4 C259.65
						 84.83 257.67 85.68 255.67 86.11 C253.69 86.97 251.69 87.42 250.09 87.84 C248.49 88.27 247.71 88.7 247.71
						 88.7 C248.11 89.49 248.54 90.27 248.94 90.68 C249.37 91.46 249.78 91.87 250.59 92.63 C251.82 93.83 252.63
						 94.61 253.85 94.97 C255.62 95.65 256.79 96.32 258.41 96.73 ZM320.93 134.97 L311.16 144.73 C311.77 144.96
						 312.36 145.18 313.08 145.41 C313.08 145.41 313.89 145.79 315.5 146.15 C317.12 146.53 319.13 146.89 321.15
						 147.64 C323.18 148.4 325.2 149.16 326.8 149.52 C328.01 149.88 329.23 150.27 329.23 150.27 C329.56 147.46
						 328.71 144.67 327.45 142.28 C327.02 141.09 326.19 139.92 326.57 138.3 C325.33 137.53 324.52 136.75 323.31
						 135.96 C322.61 135.53 321.8 135.22 320.93 134.97 ZM36.62 354.36 L45.3 345.68 C44.92 345.7 44.47 345.7 44.02
						 345.73 C43.21 345.73 41.21 345.37 39.19 345.03 C35.18 344.71 31.56 343.97 31.56 343.97 C31.63 347.19 33.29
						 350.36 35.36 353.13 C35.77 353.64 36.19 354.05 36.62 354.36 ZM61.57 363.09 L52.91 371.75 C53.45 372.2 53.99
						 372.74 54.64 373.15 C55.85 373.94 56.69 374.7 58.28 375.08 C59.9 375.44 61.5 375.4 63.1 375.37 C63.1 375.37
						 63.91 374.95 65.5 374.93 C67.1 374.48 69.1 374.43 71.1 374 C73.08 373.55 74.7 373.51 76.28 373.08 C77.47
						 372.65 78.68 372.63 78.68 372.63 C78.66 371.82 78.26 371.03 77.45 370.65 C77.02 369.86 76.62 369.46 76.19
						 368.67 C75.36 367.48 74.55 366.69 73.31 365.52 C71.69 364.76 70.07 363.59 68.05 363.23 C66.85 362.87 66.04
						 362.87 64.85 362.91 L64.04 362.91 C63.64 362.94 62.83 362.96 62.04 362.96 C61.9 363.03 61.75 363.07 61.57
						 363.09 ZM300.43 356.48 L305.11 361.16 C309.36 358.57 312.51 353.91 312.72 349.1 L312.69 348.29 C311.84 346.31
						 311.84 345.91 311.82 345.1 C311.77 343.09 311.32 341.09 310.89 339.52 C310.44 337.52 310.4 335.11 309.97
						 333.92 C309.54 332.32 309.52 331.51 309.52 331.51 C306.73 332.79 303.97 334.05 302.82 336.48 C301.65 338.1
						 300.88 339.72 300.52 341.74 C299.76 343.77 299.8 345.37 299.85 347.37 C299.85 347.37 300.32 350.97 300.41
						 354.97 C300.41 355.47 300.43 355.98 300.43 356.48 ZM294.81 366.49 L284.98 356.64 C284.64 357.2 284.31 357.83
						 284.04 358.53 C283.68 359.74 283.7 360.55 283.32 361.77 L283.34 362.55 C283.34 362.96 283.36 363.77 283.38
						 364.55 C283 365.77 283.05 368.18 282.69 370.2 C282.73 372.2 282.39 374.21 282.01 375.82 C282.03 377.02 281.67
						 378.23 281.67 378.23 C284.46 378.16 287.25 377.31 289.23 375.67 C290.02 375.24 291.62 374.41 291.98 373.19
						 C292.36 371.98 293.12 370.76 293.91 369.55 C294.25 368.47 294.25 367.05 294.81 366.49 ZM294.7 350.74 C294.7
						 350.23 294.67 349.89 294.67 349.89 C294.45 349.91 294.2 349.96 293.98 350.02 L294.7 350.74 ZM52.48 107.03
						 L62.98 117.56 C63.16 117.18 63.32 116.79 63.48 116.37 C63.86 115.15 64.24 114.34 64.22 113.15 C64.22 113.15
						 64.2 112.75 64.2 112.34 C64.2 111.94 64.18 111.13 64.15 110.34 C64.11 108.74 64.47 106.72 64.83 104.71 C65.19
						 102.69 65.14 100.28 65.5 99.07 C65.89 97.47 65.86 96.66 65.86 96.66 C63.05 96.73 60.28 97.99 58.31 99.23
						 C56.66 98.08 55.9 98.89 55.11 100.1 C54.35 101.32 53.56 102.15 53.18 103.75 C52.64 104.92 52.5 105.86 52.48
						 107.03 ZM40.56 114.34 C37.05 117.04 34.6 121.16 34.42 125.41 L34.44 126.22 C34.44 126.62 34.46 127.41 34.48
						 128.22 C34.53 130.22 34.96 132.23 35.41 133.82 C35.83 135.8 35.9 138.21 36.33 139.4 C36.76 140.59 36.78
						 141.81 36.78 141.81 C39.54 140.55 42.33 139.27 43.48 136.84 C44.65 135.22 45.42 133.6 45.78 131.57 C46.54
						 129.57 46.5 127.95 46.45 125.95 C47.22 127.03 46.88 123.84 46.74 120.53 L40.56 114.34 ZM0 287.35 C0.07 287.49
						 0.16 287.62 0.27 287.73 C1.08 288.93 1.91 290.1 2.34 290.88 C3.55 292.08 4.79 292.84 6.39 293.22 C6.39 293.22
						 10.05 295.14 13.29 296.66 C14.1 297.05 15.3 297.43 15.72 297.81 C16.53 298.19 17.34 298.58 17.75 298.98
						 C19.37 299.75 19.77 300.13 19.77 300.13 C20.13 298.53 20.11 297.32 20.09 295.72 C20.04 294.12 19.62 292.93
						 19.19 291.33 C18.76 290.14 18.33 289.35 17.93 288.95 C17.68 288.48 17.28 287.85 16.8 287.35 L0 287.35 ZM14.64
						 181.9 L19.26 181.9 C19.39 181.72 19.48 181.58 19.59 181.47 C20.78 180.23 21.55 179.42 21.53 177.82 C21.5
						 177.42 21.91 177.01 21.89 176.2 C21.89 175.8 22.27 175.39 22.25 174.58 C22.63 173.77 22.61 172.58 22.58
						 171.77 C22.56 169.77 22.11 168.17 21.28 166.19 C21.28 167 20 163.43 18.72 159.83 C18.31 158.64 17.88 157.85
						 17.86 157.04 C17.46 156.25 17.41 155.06 17.01 154.65 C16.58 153.06 16.15 152.27 16.15 152.27 C14.58 153.1
						 13.38 154.34 12.21 155.17 C11.04 156.39 10.26 157.62 9.49 159.24 C9.11 160.05 8.73 160.86 8.73 161.24 C8.35
						 162.05 8.37 163.27 8.39 163.67 C8.44 165.68 8.46 166.87 8.91 168.87 C8.91 168.87 9.34 170.06 10.14 171.25
						 C11 172.83 11.83 174.81 12.28 176.81 C13.05 178.61 14.13 180.39 14.64 181.9 ZM8.95 181.9 C8.57 181.38 8.19
						 180.82 7.94 180.12 C7.51 179.33 7.11 178.52 6.28 177.35 C5.44 176.16 5.02 174.97 5.02 174.97 C4.23 175.78
						 3.06 176.61 2.27 177.82 C1.51 179.06 0.72 180.28 0.36 181.49 C0.29 181.63 0.22 181.76 0.18 181.9 L8.95 181.9
						 ZM343.11 181.9 C342.16 181.29 341.15 180.7 339.89 180.12 C339.89 180.12 336.65 178.57 333.01 176.65 C332.6
						 176.25 331.39 175.89 330.58 175.51 C330.17 175.1 329.36 174.72 328.55 174.34 C327.34 173.57 326.53 173.19
						 326.53 173.19 C326.14 174.79 326.19 176 326.21 177.6 C326.26 179.17 326.66 180.34 327.09 181.9 L343.11 181.9
						 ZM335.03 287.35 C335.55 288.3 336.11 289.35 336.69 290.43 C337.1 291.22 337.93 292.01 338.36 293.2 C338.76
						 293.99 339.19 294.8 339.6 295.59 C340.43 296.78 340.86 297.97 340.86 297.97 C341.64 297.14 342.84 296.3
						 343.6 295.09 C344.39 293.88 345.15 292.66 345.53 291.45 C346.14 290.16 346.52 288.77 346.68 287.35 L335.03
						 287.35 ZM20.29 323.77 C18.67 323.41 17.86 323.03 17.86 323.03 C17.52 325.84 18.4 328.63 19.64 331.01 C20.47
						 332.21 21.3 333.38 21.73 334.16 C22.94 335.36 23.78 336.14 24.97 336.5 C26.59 337.27 27.8 337.65 29.42 338.01
						 L30.23 337.99 C30.61 337.99 31.42 338.37 32.23 338.35 C33.85 338.73 35.45 339.09 37.88 339.43 C41.5 340.15
						 45.51 340.46 45.51 340.46 C45.44 337.67 44.18 334.88 42.92 332.12 C41.68 330.54 40.47 329.35 38.42 328.2
						 C37.21 327.82 36.4 327.44 35.2 327.06 C35.2 327.06 33.99 326.7 32.77 326.31 C31.15 325.95 29.15 325.59 27.13
						 324.83 C23.91 324.9 21.5 324.15 20.29 323.77 ZM19.08 304.97 C17.46 304.2 15.84 303.44 13.83 303.08 C11.81
						 302.72 10.19 301.55 8.57 301.19 C7.36 300.4 6.55 300.02 6.55 300.02 C6.19 302.04 5.8 303.26 6.25 305.24
						 C6.3 307.24 7.13 308.43 7.56 310.03 C9.22 312.79 11.29 315.56 14.53 317.09 C14.53 317.09 14.94 317.09 15.34
						 317.47 C15.75 317.47 16.56 317.86 17.37 318.24 C18.99 318.6 20.99 319.36 23.01 320.1 C25.04 320.87 27.06
						 321.23 28.68 321.99 C30.28 322.35 31.09 322.74 31.09 322.74 C31.06 321.14 31.04 319.95 31 318.33 C30.57
						 316.73 30.14 315.54 29.31 314.37 C28.88 313.58 28.07 312.79 27.67 312.39 C26.84 311.6 26.43 310.81 25.62
						 310.43 C23.98 309.26 22.76 308.5 20.74 307.73 C21.1 305.73 20.29 305.35 19.08 304.97 ZM70.02 379.63 C68.41
						 379.67 67.62 380.08 67.62 380.08 C69.75 386.44 76.68 390.72 83.48 389.77 C83.48 389.77 84.67 389.34 85.86
						 388.92 C87.46 388.47 89.44 387.63 91.44 387.18 C93.42 386.33 95.42 385.9 97 385.45 C98.59 385.03 99.4 384.6
						 99.4 384.6 C98.97 383.81 98.55 383.02 98.14 382.62 C97.74 381.83 97.31 381.45 96.5 380.66 C95.26 379.49
						 94.45 378.7 93.24 378.32 C91.21 377.56 90 376.79 88 376.43 C85.97 376.07 84.38 376.12 82.4 376.95 C82.4
						 376.95 78.8 377.83 74.82 378.73 C73.22 379.15 71.22 379.6 70.02 379.63 ZM336.94 301.66 C336.09 300.06 335.25
						 298.08 334.8 296.08 C334.35 294.1 332.71 292.12 332.29 290.52 C331.45 288.95 331.03 288.16 331.03 288.16
						 C330.24 288.57 329.83 288.97 329.05 289.8 C328.26 290.21 327.88 291.02 327.49 291.45 C326.3 292.66 325.54
						 293.49 325.56 295.09 C325.58 295.5 325.18 295.9 325.2 296.69 C325.2 297.09 324.82 297.5 324.84 298.31 C324.46
						 299.12 324.48 300.33 324.5 301.12 C324.52 303.12 324.97 304.72 325.81 306.7 C325.81 306.7 327.09 310.3 328.37
						 313.87 C328.8 315.07 329.23 315.85 329.25 316.66 C329.65 317.45 329.68 318.64 330.1 319.05 C330.53 320.64
						 330.96 321.43 330.96 321.43 C332.53 320.6 333.7 319.36 334.89 318.53 C336.06 317.32 336.85 316.08 337.62
						 314.46 C338 313.65 338.38 312.84 338.36 312.46 C338.76 311.65 338.72 310.43 338.72 310.03 C338.67 308.02
						 338.65 306.83 338.2 304.83 C337.39 304.45 336.96 303.26 336.94 301.66 ZM267.46 370.11 C266.67 370.94 266.29
						 371.75 265.5 372.16 C264.33 373.8 263.57 375.42 263.61 377.83 L263.63 378.61 C263.66 379.02 263.25 379.83
						 263.27 380.64 C262.91 382.26 262.55 383.86 261.79 385.88 C261.43 387.88 260.66 389.91 260.3 391.12 C259.94
						 392.74 259.54 393.15 259.54 393.15 C260.35 393.12 261.54 393.1 261.95 393.1 C262.35 393.08 263.95 392.65
						 264.35 392.65 C265.93 392.2 267.52 391.37 269.1 390.54 C270.7 389.7 271.46 388.47 272.65 387.25 C273.8 385.61
						 274.59 384.4 274.95 382.8 L274.92 381.99 C274.92 381.58 275.31 380.77 275.28 379.96 C275.67 378.37 276 376.34
						 276.36 374.34 C276.72 372.32 277.08 369.91 277.06 368.72 C277.02 367.1 277.4 366.29 277.4 366.29 C274.59
						 366.35 271.82 367.61 269.44 368.87 C268.24 368.9 268.24 369.3 267.46 370.11 ZM249.24 380.55 C248.45 380.95
						 247.26 381.79 246.87 382.19 C246.09 383.02 245.3 383.43 244.92 384.24 C244.13 385.07 243.75 386.26 242.98
						 387.09 C242.98 387.09 242.6 388.31 241.81 389.52 C241.05 391.14 240.28 392.76 239.95 395.17 C239.18 397.2
						 238.03 399.22 237.65 400.84 C236.89 402.46 236.5 403.27 236.5 403.27 C237.31 403.25 238.12 403.63 238.53
						 403.63 C238.91 403.63 240.13 403.58 240.53 403.58 C242.13 403.54 243.32 403.11 244.51 402.68 C246.9 401.85
						 249.66 400.19 251.24 398.14 C252.41 396.9 252.79 395.69 253.15 394.09 C253.15 394.09 254.68 390.45 255.38
						 386.42 C256.14 384.4 256.5 382.8 256.88 381.18 C257.24 379.56 257.63 379.15 257.63 379.15 C254.82 378.82
						 251.62 379.29 249.24 380.55 ZM325.83 325.95 C325.83 325.95 325.83 325.55 325.81 325.14 C325.81 324.74 325.38
						 323.95 325.38 323.16 C324.93 321.57 324.5 319.97 323.65 317.99 C323.22 315.99 322.37 314.39 321.94 312.79
						 C321.51 311.22 321.08 310.81 321.08 310.81 C320.3 311.24 319.51 311.65 319.13 312.07 C318.32 312.48 317.93
						 312.88 317.15 313.72 C315.98 314.93 315.19 315.76 314.4 316.98 C314.02 317.38 314.02 317.79 313.64 318.6
						 C313.26 319 313.26 319.41 312.87 320.22 C312.51 321.43 312.13 322.24 312.13 323.05 C312.18 324.24 312.18
						 325.05 312.6 326.25 L312.63 327.03 C312.63 327.44 313.05 328.23 313.08 329.04 C313.5 330.63 313.95 332.63
						 314.4 334.61 C315.3 339 315.8 343.41 315.8 343.41 C317.39 342.98 318.16 342.15 319.35 341.32 C320.54 340.51
						 321.31 339.27 322.1 338.46 C322.88 337.25 323.65 336.41 324.03 334.82 C324.39 333.6 324.77 332.39 325.13
						 330.77 C326.3 328.74 326.28 327.55 325.83 325.95 ZM207.87 63.91 C209.47 63.08 209.85 62.27 209.85 62.27
						 C207.8 60.31 205.35 58.76 202.94 58.4 C201.32 58.04 200.54 58.06 198.92 58.08 C198.13 58.1 197.32 58.13
						 196.91 58.13 C196.13 58.15 195.34 58.55 194.94 58.58 C193.34 59 192.17 60.24 190.98 61.07 C190.98 61.07
						 190.19 61.88 189 62.72 C188.21 63.12 187.83 63.93 187.04 64.36 C186.25 65.17 185.47 65.6 185.08 66.41 C182.32
						 68.88 179.57 71.74 179.57 71.74 C181.62 73.69 184.86 74.44 187.67 74.77 C189.67 75.13 191.67 74.68 193.27
						 74.26 C194.46 73.83 195.25 73 196.04 72.59 C196.04 72.59 199.19 70.12 202.74 67.22 C204.7 65.57 206.7 64.74
						 207.87 63.91 ZM33.29 147.5 C33.29 147.5 33.29 147.1 33.27 146.69 C33.27 146.29 32.84 145.5 32.82 144.69
						 C32.39 143.09 31.94 141.11 31.51 139.11 C30.61 134.72 30.12 130.31 30.12 130.31 C28.52 130.76 27.74 131.57
						 26.54 132.41 C25.37 133.24 24.59 134.45 23.8 135.26 C23.03 136.48 22.25 137.31 21.89 138.91 C21.5 140.12
						 21.12 141.34 20.76 142.96 C20.81 144.55 20.83 146.15 21.28 147.75 L21.28 148.56 C21.3 148.96 21.71 149.75
						 21.73 150.56 C22.16 152.13 22.61 153.73 23.44 155.73 C23.89 157.71 24.72 159.31 25.17 160.91 C25.6 162.48
						 26 162.89 26 162.89 C26.79 162.46 27.6 162.05 27.98 161.65 C28.77 161.22 29.18 160.82 29.96 159.98 C31.13
						 158.77 31.92 157.94 32.68 156.72 C33.09 156.32 33.07 155.91 33.45 155.1 C33.85 154.7 33.83 154.29 34.21
						 153.48 C34.6 152.27 34.98 151.46 34.96 150.67 C33.34 149.88 33.31 148.69 33.29 147.5 ZM255.15 80.51 C256.73
						 80.08 257.54 79.65 257.54 79.65 C256.7 78.49 255.87 77.29 255.47 76.51 C254.23 75.34 253.42 74.55 252.21
						 74.17 C250.99 73.78 249.75 72.61 248.54 72.23 C246.94 71.87 246.13 71.89 244.54 71.94 C242.94 71.96 241.34
						 72.79 239.74 73.24 C239.74 73.24 238.55 73.67 237.76 74.08 C236.17 74.91 234.59 75.76 232.59 76.19 C230.61
						 77.05 229.04 77.88 227.82 78.31 C227.03 78.73 226.65 79.14 226.25 79.14 C225.86 79.54 225.46 79.57 225.46
						 79.57 C226.29 80.73 227.51 81.52 228.34 82.71 C229.55 83.88 230.77 84.65 231.98 84.63 C234.01 85.39 235.61
						 85.75 237.61 85.71 C238.82 85.68 239.61 85.26 240.8 84.83 C240.8 84.83 241.21 84.83 241.59 84.42 C241.99
						 84.4 242.78 84 243.59 83.57 C245.19 83.14 247.17 82.29 249.15 81.45 C251.55 81.79 253.56 80.96 255.15 80.51
						 ZM232.48 70.59 C234.05 69.76 234.46 69.33 234.46 69.33 C233.22 67.76 232.39 66.99 230.77 65.82 C229.15 64.65
						 227.91 63.86 226.31 63.91 C223.08 62.76 219.88 63.23 216.71 64.52 C216.71 64.52 212.75 66.61 209.2 69.08
						 C207.22 70.34 205.62 71.17 204.05 72.41 C202.85 72.84 202.07 73.65 202.07 73.65 C204.11 75.61 206.56 77.16
						 209.38 77.9 C211.4 78.26 213 78.62 215 78.19 C217 77.74 218.58 76.91 220.58 76.06 C220.58 76.06 223.73 73.99
						 227.3 72.3 C229.31 71.85 231.29 71.02 232.48 70.59 ZM327.61 168.35 C329.23 169.12 330.85 169.88 332.87 170.24
						 C334.87 170.6 336.51 171.77 338.11 172.13 C339.75 172.9 340.16 173.28 340.16 173.28 C340.52 171.28 340.88
						 170.06 340.43 168.06 C340.41 166.06 339.57 164.89 339.12 163.29 C337.46 160.52 335.41 157.76 332.17 156.23
						 C332.17 156.23 331.77 156.23 331.36 155.85 C330.96 155.85 330.15 155.46 329.34 155.08 C327.72 154.72 325.69
						 153.96 323.67 153.19 C321.67 152.45 319.64 152.09 318.02 151.32 C316.4 150.94 315.59 150.56 315.59 150.56
						 C315.64 152.18 315.66 153.37 315.71 154.97 C316.13 156.57 316.56 157.76 317.39 158.95 C317.8 159.74 318.63
						 160.52 319.04 160.91 C319.85 161.69 320.27 162.48 321.08 162.89 C322.7 164.03 323.94 164.82 325.94 165.59
						 C325.6 167.59 326.41 167.97 327.61 168.35 ZM84.76 80.62 C83.95 80.64 82.76 81.07 82.35 81.07 C80.78 81.5
						 79.18 82.33 77.61 83.19 C76.01 84.02 75.24 85.23 74.05 86.47 C72.88 88.09 72.12 89.31 71.76 90.93 C71.76
						 90.93 71.76 91.33 71.78 91.73 C71.78 92.12 71.4 92.93 71.42 93.74 C71.04 95.36 70.7 97.36 70.34 99.38 C69.98
						 101.39 69.62 103.79 69.64 105.01 C69.69 106.2 69.3 107.41 69.3 107.41 C72.12 107.35 74.88 106.09 77.27 104.83
						 C78.06 104.02 78.84 103.59 79.22 102.78 C80.01 101.97 80.39 101.16 81.18 100.73 C82.35 99.11 83.12 97.49
						 83.07 95.09 C83.07 95.09 83.05 94.68 83.05 94.28 C83.05 93.89 83.43 93.08 83.41 92.27 C83.77 90.66 84.13
						 89.06 84.89 87.03 C85.25 85.01 86.02 83.01 86.38 81.79 C86.76 80.17 87.14 79.77 87.14 79.77 C85.95 80.6
						 85.57 80.6 84.76 80.62 ZM107.77 69.69 C106.96 69.71 106.17 69.73 105.77 69.73 C104.17 69.78 102.98 70.21
						 101.79 70.63 C99.4 71.49 96.61 73.15 95.06 75.18 C93.89 76.42 93.51 77.63 93.15 79.23 C93.15 79.23 91.62
						 82.87 90.9 86.9 C90.16 88.92 89.77 90.54 89.41 92.14 C89.05 93.76 88.65 94.16 88.65 94.16 C91.48 94.5 94.27
						 94.05 97.45 92.36 C98.23 91.96 99.42 91.13 99.81 90.72 C100.59 89.89 101.38 89.49 101.76 88.68 C102.55 87.84
						 102.93 86.63 103.72 85.82 C103.72 85.82 104.08 84.6 104.87 83.39 C105.63 81.77 106.4 80.15 106.74 77.74
						 C107.5 75.72 108.67 73.69 109.03 72.07 C109.79 70.45 110.18 69.64 110.18 69.64 C109.39 70.05 108.58 69.67
						 107.77 69.69 ZM134.49 63.1 C131.25 61.57 128.04 61.64 124.87 62.51 C121.67 63.77 118.9 65.44 116.97 68.29
						 C116.97 68.29 115.04 72.34 113.12 75.99 C112.74 77.2 111.95 78.01 111.57 78.82 C111.19 79.63 110.83 80.85
						 110.42 81.25 C109.66 82.87 109.28 83.68 109.28 83.68 C110.9 84.06 112.09 84.04 113.69 84 C115.31 83.95 116.5
						 83.55 118.09 83.1 C121.65 81.41 124.42 79.36 126.35 75.7 C126.35 75.7 126.73 74.89 127.5 73.67 C128.28 72.46
						 129.45 70.81 130.22 69.19 C131.37 67.17 132.15 65.96 132.92 64.34 C133.71 63.53 134.49 63.1 134.49 63.1
						 ZM151.59 57.11 C148.8 57.18 146.01 58.44 144.03 59.68 C143.24 60.11 142.86 60.92 142.07 61.73 C141.69 62.13
						 140.9 62.96 140.52 63.77 C140.52 63.77 138.59 67.01 136.25 70.27 C135.08 71.89 134.31 73.54 133.55 74.75
						 C132.76 75.97 132.38 76.78 132.38 76.78 C134 77.54 135.21 77.92 136.81 77.88 C138.43 78.24 139.62 78.22
						 141.22 77.79 C143.22 77.34 144.8 76.51 146.8 75.65 C147.58 74.84 148.75 74.01 149.16 73.6 C149.16 73.6 149.92
						 72.79 150.71 71.56 C151.09 70.75 151.88 69.94 152.67 69.51 C153.46 68.7 154.24 67.89 154.63 67.08 L160.09
						 60.53 C157.23 57.79 154.4 57.05 151.59 57.11 ZM176.02 55.79 C172.82 55.86 169.63 57.11 166.89 59.18 C166.89
						 59.18 163.74 62.47 161.4 65.33 L155.93 71.85 C157.14 72.64 158.36 73.4 159.98 73.76 C160.79 73.76 161.6
						 74.14 161.98 74.12 C162.39 74.12 163.6 74.1 164.01 74.08 C166.01 74.03 167.58 73.6 169.56 72.37 C171.56
						 71.51 172.73 70.27 174.31 69.04 C174.31 69.04 175.1 68.23 176.27 66.99 C177.43 65.78 178.63 64.54 180.2
						 63.3 C182.56 61.25 185.71 58.37 185.71 58.37 C182.47 56.85 179.23 55.7 176.02 55.79 ZM160.97 388.44 C159.1
						 386.33 157.68 383.74 156.99 380.93 C156.29 382.1 155.82 383.05 155.59 384.22 C155.59 384.22 154.65 386.56
						 153.7 388.89 C153.23 390.06 152.51 391.23 152.29 392.18 C152.04 393.1 151.34 393.57 151.34 393.57 C152.51
						 393.82 153.93 393.57 154.85 393.57 C156.02 393.35 157.19 392.9 158.13 392.43 C159.3 391.95 160.25 391.26
						 161.42 390.78 C161.89 390.56 162.12 390.09 162.59 389.86 C162.14 389.39 161.67 388.92 160.97 388.44 ZM172.01
						 373.71 C172.71 375.13 173.16 376.54 173.16 377.94 L173.41 379.11 C174.56 379.83 175.73 380.28 176.67 381.47
						 C176.89 381.22 177.14 381 177.37 381 C178.54 379.83 179.48 378.88 180.43 377.71 C181.37 376.57 182.07 375.15
						 182.54 373.51 C182.54 373.51 182.54 373.28 182.79 373.06 C182.79 372.81 183.01 372.34 183.26 371.89 C183.73
						 370.94 184.21 370 184.68 368.6 C184.9 367.91 185.38 367.43 185.6 366.96 C186.07 366.49 186.32 365.79 186.55
						 365.57 C187.26 364.62 187.49 364.15 187.49 364.15 C186.55 363.92 185.62 363.92 184.68 363.92 C183.73 363.92
						 183.04 364.15 181.87 364.37 C180.92 364.6 180.22 364.85 179.28 365.32 C178.36 365.77 177.88 366.24 176.94
						 366.47 C174.35 368.11 172.49 370.45 171.54 373.26 C171.77 373.49 171.77 373.49 172.01 373.71 ZM184.66 373.76
						 C184.18 374.7 183.96 375.15 183.96 375.15 C188.16 375.64 191.45 374.7 194.96 372.86 C195.9 372.14 196.37
						 371.91 197.32 371.44 C198.24 370.74 198.71 370.29 199.66 369.35 C199.66 369.35 200.13 368.87 200.83 368.18
						 C201.53 367.48 202.47 366.78 203.64 366.08 C205.76 364.67 208.57 363.52 208.57 363.52 C207.4 362.58 206.47
						 362.1 205.31 361.41 C204.14 360.69 202.72 360.46 201.32 360.46 C200.63 360.44 200.15 360.44 199.46 360.44
						 C198.74 360.44 198.26 360.69 197.57 360.66 C196.87 360.91 196.4 360.91 195.7 361.14 C195.45 361.14 195 361.36
						 194.76 361.36 C194.28 361.61 193.83 361.61 193.59 361.83 C191.47 363 189.83 364.17 188.41 366.04 C188.41
						 366.04 187.96 366.74 187.49 367.43 C187.02 368.38 186.3 369.3 185.83 370.47 C185.6 371.89 185.13 372.81
						 184.66 373.76 ZM185.71 418.97 C187.33 420.14 189.45 420.61 191.31 420.86 C193.2 421.08 195.3 420.64 196.71
						 419.69 C196.71 419.69 196.94 419.69 197.18 419.47 C197.41 419.24 197.88 418.99 198.35 418.77 C199.3 418.07
						 200 417.6 201.17 416.43 C202.11 415.48 202.81 414.79 203.28 413.86 C203.75 413.17 204.23 412.69 204.23 412.69
						 C203.53 412.45 203.06 412.22 202.36 411.97 C201.64 411.75 201.19 411.5 200.47 411.5 C200.02 411.28 199.3
						 411.28 199.07 411.03 C198.85 410.8 197.68 410.8 197.21 410.8 C195.32 410.56 192.75 410.56 189.72 410.78
						 C189.72 410.78 189 410.78 188.3 410.78 C187.13 410.76 186.19 410.76 184.79 410.53 C184.09 410.53 183.62
						 410.29 183.15 410.29 C182.45 411.46 181.73 412.15 180.81 413.32 C181.51 415.44 183.37 417.33 185.71 418.97
						 ZM189.02 408.89 C189.94 408.92 190.41 408.92 190.41 408.92 C190.41 408.44 190.19 408.2 190.19 407.97 C189.02
						 408.44 188.07 408.67 186.9 409.14 C187.85 408.89 188.3 408.89 189.02 408.89 ZM124.15 402.17 C124.62 402.41
						 125.09 402.41 125.32 402.41 L125.79 402.41 C125.79 401.47 125.79 401 125.79 400.05 C124.39 400.52 122.75
						 401 121.33 401 C122.28 401.69 123.45 401.92 124.15 402.17 ZM118.59 383.41 C118.12 382.24 117.42 380.84 117.42
						 380.12 C117.2 378.95 116.95 378.5 116.95 378.5 C115.55 379.65 114.14 381.54 113.42 383.16 C115.31 383.41
						 117.17 383.65 118.81 384.35 C118.81 384.13 118.57 383.65 118.59 383.41 ZM150.58 415.82 C151.52 414.65 151.99
						 413.95 152.47 413.01 C152.94 412.09 153.41 411.84 153.41 411.84 C150.35 410.89 147.79 410.67 144.98 411.12
						 C143.56 411.59 142.39 411.82 141.22 412.29 C140.52 412.51 140.05 412.99 139.35 413.21 C138.63 413.46 138.16
						 413.91 137.24 414.38 C137.24 414.38 136.99 414.38 136.77 414.61 C136.52 414.85 136.07 414.85 135.6 415.08
						 C134.65 415.55 133.48 416 132.31 416.25 C131.14 416.7 129.72 416.95 128.8 417.17 C127.63 417.4 127.16 417.4
						 127.16 417.4 C129.25 420.68 132.99 422.79 136.97 423.29 C138.14 423.29 138.86 423.29 140.03 423.29 C141.2
						 423.06 141.89 422.82 142.84 422.59 C144.48 421.89 146.12 420.97 147.29 419.56 C147.29 419.56 147.76 419.11
						 148.46 418.39 C148.93 417.69 149.63 416.77 150.58 415.82 ZM128.33 414.83 C128.55 414.83 129.03 414.58 129.5
						 414.61 C130.67 414.36 131.61 414.13 132.78 413.66 C133.48 413.44 133.95 413.21 134.43 412.96 C135.12 412.74
						 135.6 412.51 135.84 412.27 C136.77 411.79 137.01 411.57 137.01 411.57 C135.84 409.93 134.45 408.76 133.28
						 407.81 C132.56 407.34 132.11 406.64 131.16 406.64 C130.47 406.17 129.77 405.92 128.82 405.45 C127.88 404.98
						 127.18 404.75 126.26 404.51 C125.32 404.28 124.37 404.03 123.45 403.81 C123.45 403.81 122.75 403.56 122.03
						 403.34 C121.11 403.09 119.94 402.62 118.77 402.14 C117.6 401.45 116.43 400.97 115.49 400.28 L115.26 400.03
						 C114.79 400.03 114.32 399.8 114.09 399.56 C113.62 402.14 114.32 404.71 115.24 407.07 C116.41 409.63 118.5
						 411.52 120.61 412.69 C121.78 413.41 122.71 413.86 123.88 413.89 C125.77 414.58 127.16 414.58 128.33 414.83
						 C127.86 414.83 127.86 414.83 128.33 414.83 ZM165.81 413.75 C166.28 412.58 166.75 411.41 167 410.49 C167.22
						 409.54 167.94 408.15 168.17 407.21 L168.64 405.81 C168.64 405.56 168.89 405.09 168.89 404.87 C167.94 404.87
						 167 405.09 166.08 405.09 C164.91 405.32 164.19 405.79 163.02 406.01 C161.15 406.71 159.51 407.88 158.09
						 409.28 C157.39 409.99 156.92 410.69 156.22 411.39 C155.5 412.09 155.03 412.78 154.56 413.95 C154.56 413.95
						 154.09 414.65 153.64 415.12 C153.16 416.07 152.44 416.77 151.52 417.94 C150.58 419.11 149.86 420.03 149.16
						 420.75 C148.69 421.2 148.46 421.44 148.21 421.67 C147.99 421.92 147.74 421.92 147.74 421.92 C148.91 422.37
						 150.08 422.61 151.27 422.86 C152.44 422.86 153.84 423.09 155.01 422.64 C156.18 422.39 157.35 421.94 158.52
						 421.47 C159.71 420.99 160.63 420.3 161.58 419.6 C162.27 418.9 162.75 418.43 163.47 417.73 L164.64 415.17
						 C165.11 414.92 165.33 414.7 165.81 413.75 ZM218.33 389.3 C217.88 388.83 217.63 388.6 217.18 388.35 C216.93
						 388.13 216.93 388.13 216.71 387.9 C216.01 387.18 215.54 386.71 215.07 385.79 C214.6 385.79 214.37 385.79
						 213.9 385.79 C212.95 385.77 212.5 386.02 211.56 386.24 C210.61 386.47 210.14 386.71 209.22 387.16 C208.27
						 387.63 207.8 388.11 207.1 388.33 L205.94 389.75 C205.94 389.75 204.27 391.62 202.88 393.48 C201.68 395.58
						 200.51 397.47 200.51 397.47 C200.29 397.92 200.04 398.16 200.04 398.39 C201.21 398.63 202.63 398.63 203.8
						 398.86 C204.97 398.88 206.61 398.63 207.78 398.41 C208.48 398.18 208.95 397.94 209.65 397.71 C209.89 397.49
						 210.34 397.49 210.82 397.24 C211.29 397.02 211.76 397.02 211.99 396.79 C213.4 396.09 214.82 395.15 215.99
						 393.98 C216.69 393.06 217.63 391.17 218.33 389.3 ZM174.51 396.45 C174.76 396.21 175.23 395.98 175.46 395.76
						 L170.08 394.09 C169.85 394.09 169.38 393.87 169.13 393.87 C169.36 396.21 170.06 398.32 171 400.19 C171.95
						 398.79 173.12 397.62 174.51 396.45 ZM125.65 365.86 C123.31 367.25 121.42 369.37 120.25 371.71 C119.53 372.88
						 119.31 374.05 119.06 374.99 C118.84 375.91 119.06 377.33 119.29 378.25 L119.29 378.73 C119.29 378.97 119.53
						 379.42 119.53 379.9 C119.76 380.84 120.23 382.01 120.68 383.18 C120.93 383.88 121.15 384.35 121.63 384.82
						 L121.63 385.07 C122.55 384.6 123.49 383.9 124.44 383.9 C125.14 383.68 125.83 383.43 126.55 383.2 C127 382.51
						 127.25 382.03 127.72 381.34 C128.19 380.64 128.42 379.92 128.67 379 C128.89 378.05 129.14 377.35 129.36
						 376.41 C129.61 375.49 129.61 374.54 129.86 373.37 C129.86 373.37 129.86 372.68 130.08 371.98 C130.33 371.03
						 130.56 369.86 131.03 368.69 C131.5 367.52 132.2 366.35 132.45 365.41 C132.92 364.49 133.39 364.01 133.39
						 364.01 C130.58 363.77 127.99 364.46 125.65 365.86 ZM163.06 386.82 C164.95 388.92 167.74 390.81 170.78 392
						 L178.27 394.36 C178.51 394.11 178.99 394.11 179.21 393.89 C179.68 393.64 179.91 393.64 180.38 393.42 C179.93
						 390.6 178.99 388.02 177.12 385.93 C175.95 384.28 174.08 382.62 172.22 381.7 L169.65 380.98 C169.65 380.98
						 168.93 380.73 168.23 380.5 L167.76 380.28 C166.84 380.03 165.9 379.78 164.97 379.78 C162.63 379.31 160.27
						 379.31 160.27 379.31 C159.82 379.31 159.57 379.31 159.1 379.31 C160.05 382.12 161.19 384.71 163.06 386.82
						 ZM151.66 367.82 C150.94 368.04 150.46 368.51 150.01 368.74 C149.54 368.99 148.82 369.44 148.6 369.68 C148.12
						 370.13 147.65 370.38 147.43 370.61 C146.71 371.3 146.26 371.55 146.26 371.55 C147.65 372.72 149.05 373.67
						 150.46 374.61 C151.86 375.31 153.5 375.78 155.14 376.25 C156.79 376.72 158.65 376.97 160.77 376.97 C160.77
						 376.97 163.33 376.97 165.92 377.44 C167.09 377.69 168.48 377.92 169.43 378.16 C170.6 378.41 171.05 378.64
						 171.05 378.64 C170.82 377.47 170.37 376.3 169.9 375.35 C169.2 374.18 168.73 373.24 168.03 372.07 C166.64
						 370.2 164.3 368.54 161.96 367.61 C160.79 367.14 159.62 366.89 158.67 366.89 L158.2 366.89 C157.03 366.89
						 156.34 367.12 155.17 367.34 C155.17 367.34 154.47 367.59 153.52 367.82 C152.58 367.34 151.88 367.57 151.66
						 367.82 ZM181.53 405.83 L182.7 400.93 C182.95 399.76 183.42 398.81 183.64 397.87 L183.89 397.42 L184.36 396
						 L184.36 396 C184.36 395.78 184.59 395.31 184.84 395.08 C184.14 395.06 183.42 395.31 182.72 395.31 C181.78
						 395.53 181.08 395.76 180.38 396 C178.96 396.7 177.32 397.4 176.15 398.57 C173.57 400.66 171.92 403.22 170.75
						 406.28 L170.28 407.68 C170.03 408.62 169.56 409.79 169.09 410.96 C168.62 412.13 168.14 413.3 167.92 414.22
						 C167.45 415.17 167.2 415.64 167.2 415.64 L167.45 415.64 C169.09 415.64 170.73 415.17 172.37 414.72 C174.02
						 414.02 175.41 413.32 176.83 412.38 C178.22 411.21 179.64 409.57 180.58 407.95 L181.53 405.83 ZM195.12 401.42
						 C196.29 400.25 197.48 398.39 198.42 396.52 C198.42 396.52 199.59 394.41 201.01 392.07 C202.4 389.97 204.29
						 387.86 204.29 387.86 C203.12 387.39 201.71 387.16 200.54 387.14 C196.8 387.14 193.05 388.53 190.71 390.87
						 C189.29 392.27 187.87 394.14 187.17 396.25 C187.17 396.25 186.93 396.95 186.7 397.65 C186.46 398.59 185.98
						 399.76 185.51 400.93 C184.81 403.27 184.34 405.83 184.34 405.83 C188.55 406.33 192.3 404.24 195.12 401.42
						 ZM218.51 414.61 C218.26 415.78 218.04 416.25 218.04 416.25 C221.79 415.3 225.3 412.74 226.94 409.01 C228.14
						 406.19 228.61 403.38 228.14 400.82 L227.21 399.17 C227.21 399.17 226.74 398.45 226.27 397.76 C225.82 397.06
						 225.12 396.34 224.4 395.17 C223.71 394.25 223.01 393.78 222.31 393.06 L222.09 392.83 L221.84 392.36 L221.61
						 392.13 L221.61 392.13 C221.14 391.89 220.92 391.66 220.67 391.19 C219.5 393.53 218.8 395.62 218.55 397.74
						 C218.31 400.07 218.53 402.89 219 405.95 C219 405.95 219 406.64 219.23 407.34 C219.45 408.29 219.45 409.45
						 219.23 410.85 C218.98 412.27 218.73 413.44 218.51 414.61 ZM231.92 390.29 C231.92 389.1 231.69 387.48 231.22
						 386.29 C230.77 385.12 230.07 383.72 229.6 382.78 C228.2 380.91 226.34 379.24 224.22 378.55 L222.83 378.07
						 C221.88 377.83 220.49 377.6 219.54 377.35 C218.37 377.13 216.96 377.13 216.26 377.13 C215.34 377.11 214.87
						 377.11 214.87 377.11 C216.01 380.86 217.18 383.45 219.52 386.04 C220.22 386.73 220.69 387.21 221.39 387.9
						 C222.09 388.6 222.78 389.07 223.48 389.79 C223.48 389.79 223.73 389.79 223.95 390.02 C224.2 390.27 224.43
						 390.49 224.9 390.74 C225.6 391.44 226.54 392.13 227.24 393.3 C228.16 394.5 228.86 395.42 229.33 396.36 C229.8
						 397.31 230.25 397.78 230.25 397.78 C230.97 396.61 231.44 395.44 231.92 394.27 C232.14 393.55 232.39 393.1
						 232.39 392.38 C232.39 391.68 231.92 390.99 231.92 390.29 ZM118.34 387.86 C118.57 387.63 118.79 387.39 119.04
						 387.16 C116.93 385.99 114.36 385.52 112.02 385.5 C108.26 385.5 104.51 386.89 101.47 389.68 L93.96 396.7
						 C96.3 397.87 98.86 398.59 101.45 398.59 C104.01 398.59 106.83 397.92 108.94 396.75 L110.83 394.88 L118.34
						 387.86 ZM119.94 398.41 C121.81 398.41 123.45 397.96 125.34 397.49 C127.21 396.79 129.09 395.87 130.74 394.23
						 C130.74 394.23 131.21 393.75 131.91 393.06 C132.6 392.36 133.55 391.66 134.49 390.72 C136.36 388.85 137.78
						 387.21 137.78 387.21 C136.61 386.73 135.91 386.26 134.74 386.04 C134.27 385.79 133.8 385.79 133.32 385.79
						 C132.63 385.79 132.15 385.57 131.68 385.57 C131.23 385.57 130.98 385.57 130.51 385.57 C128.64 385.54 127
						 386.02 125.14 386.49 C123.25 387.18 121.38 388.11 119.74 389.75 L112.22 396.75 C115.04 397.94 117.38 398.41
						 119.94 398.41 ZM146.96 368.27 C147.67 367.79 148.84 367.1 150.01 366.4 C152.35 365.23 155.17 364.53 155.17
						 364.53 L154.94 364.31 C152.38 361.5 148.15 360.08 144.41 360.53 C140.43 360.98 136.9 363.09 135.01 365.88
						 C135.01 365.88 133.62 368.22 132.9 370.56 C132.42 371.73 132.2 372.9 131.95 373.85 C131.95 374.32 131.73
						 374.79 131.73 375.02 L131.73 375.49 C134.76 375.26 136.88 374.79 139.22 374.09 C140.39 373.64 141.56 372.95
						 142.5 372.23 C143.67 371.3 144.62 370.61 145.79 369.66 C145.56 369.19 146.03 368.74 146.96 368.27 ZM215.34
						 375.02 C215.34 375.02 217.68 374.79 220.49 375.26 C221.66 375.49 223.05 375.73 224 376.21 C225.17 376.43
						 225.64 376.9 225.64 376.9 L225.64 376.43 C224.94 372.92 222.6 369.17 219.34 367.3 C216.06 365.18 211.85
						 364.69 208.57 366.08 C208.57 366.08 207.87 366.33 207.15 366.78 C206.23 367.25 205.28 367.95 204.11 368.42
						 C203.64 368.9 202.94 369.12 202.7 369.59 C202.22 370.07 201.75 370.52 201.53 370.76 C200.83 371.46 200.36
						 371.93 200.36 371.93 C202.7 373.58 204.79 374.52 207.13 375.22 C208.3 375.46 209.71 375.69 210.88 375.69
						 C212.28 375.24 213.92 375.02 215.34 375.02 ZM216.39 413.19 C216.64 412.24 216.64 410.85 216.89 409.9 C216.89
						 408.74 216.89 407.34 216.64 406.64 C216.66 405.7 216.42 405.23 216.42 405.23 C216.19 405.23 215.95 405.45
						 215.72 405.45 C212.44 406.4 210.1 408.02 207.73 410.6 C207.04 411.3 206.56 411.75 206.09 412.69 C205.4 413.39
						 204.92 414.09 204.45 415.03 C204.45 415.03 204.45 415.26 204.23 415.51 C203.98 415.73 203.75 415.98 203.51
						 416.43 C202.81 417.37 202.34 418.07 201.17 419.02 C200.69 419.47 200.22 419.94 199.75 420.16 C199.28 420.64
						 198.58 420.88 198.35 421.33 C197.41 422.03 196.94 422.5 196.94 422.5 C198.11 423.22 199.5 423.69 200.67
						 423.92 C201.39 424.17 201.84 424.17 202.79 424.17 C203.48 424.17 203.96 424.17 204.9 424.17 C206.07 424.17
						 207.71 423.47 208.88 423.02 C210.05 422.3 211.22 421.85 212.17 420.9 C213.11 419.98 214.03 419.04 214.75
						 417.64 C215.23 416.7 215.7 416 215.92 414.83 C216.17 414.83 216.39 414.13 216.39 413.19 ZM138.7 389.57 C138.7
						 389.57 137.31 391.44 135.42 393.06 C134.47 394 133.55 394.92 132.83 395.64 C132.13 396.34 131.66 396.79
						 131.66 396.79 C131.88 396.79 131.88 397.04 132.13 397.04 C132.83 397.26 133.3 397.74 134 397.98 C134.94
						 398.21 135.64 398.45 136.81 398.45 C137.75 398.45 138.68 398.7 139.62 398.45 C140.54 398.45 141.49 398.23
						 142.43 398.01 C144.08 397.53 145.72 396.84 147.36 395.67 C148.06 394.97 148.53 394.5 149.23 394.05 C149.95
						 393.57 150.4 392.88 150.64 391.93 C150.64 391.93 151.81 389.59 153.01 387.25 C154.18 384.91 154.65 382.57
						 154.65 382.57 C153.01 382.33 151.61 382.57 150.19 382.8 C149.5 383.02 148.8 383.02 148.08 383.27 C147.63
						 383.5 147.38 383.5 146.91 383.72 C146.46 383.97 146.21 383.97 145.74 384.19 C145.04 384.42 144.57 384.89
						 143.87 385.36 C143.18 385.81 142.7 386.29 142.23 386.53 L141.98 386.76 C140.81 387.23 139.64 388.4 138.7
						 389.57 Z" class="st2"/>
		</g>
		<g id="shape25-43" transform="translate(56.1907,-179.376)">
			<title>Sheet.25</title>
			<path d="M3.4 422.21 C3.26 422.32 3.08 422.39 2.88 422.43 C2.41 422.52 1.75 422.64 1.26 422.64 C0.92 422.64 0.81 422.82
						 0.81 422.97 C0.81 423.29 1.1 423.4 1.69 423.4 C3.33 423.4 6.75 423.24 6.93 423.24 C7.2 423.24 10.62 423.4
						 13.63 423.4 C14.22 423.4 14.49 423.24 14.49 422.97 C14.49 422.82 14.37 422.64 14.06 422.64 C13.56 422.64
						 12.37 422.52 11.61 422.43 C11.36 422.39 11.16 422.34 10.98 422.28 C8.46 422.23 6.07 422.12 5.85 422.12 C5.76
						 422.12 4.66 422.16 3.4 422.21 ZM9.83 421.13 C9.65 420.66 9.54 420.07 9.49 419.42 C9.2 417.15 9.2 412.83
						 9.2 407.61 L9.2 385.21 C9.2 384.67 9.31 384.28 9.65 384.17 C10.14 383.97 11.07 383.86 11.99 383.86 C13.16
						 383.86 16.2 383.65 18.96 386.11 C18.78 385.88 18.58 385.68 18.38 385.45 C15.48 382.51 12.15 382.73 10.91
						 382.73 C9.99 382.73 9.04 382.84 8.57 383.07 C8.23 383.16 8.12 383.54 8.12 384.1 L8.12 406.49 C8.12 411.7
						 8.12 416.02 8.39 418.3 C8.53 419.65 8.8 420.7 9.83 421.13 ZM18.15 402.5 C16.69 403.36 14.96 403.85 13.07
						 403.85 C11.92 403.85 11.61 403.9 11.61 404.35 C11.61 404.62 11.92 404.73 12.21 404.73 C12.48 404.78 13.07
						 404.78 13.34 404.78 C21.08 404.78 26.75 399.53 26.75 391.82 C26.75 388.92 25.22 386.47 24.02 385.32 C23.91
						 385.23 23.8 385.12 23.64 384.96 C24.65 386.26 25.67 388.33 25.67 390.69 C25.67 396.27 22.7 400.57 18.15
						 402.5 ZM1.93 382.24 C1.57 382.21 1.21 382.21 0.88 382.21 C0.27 382.21 0 382.33 0 382.66 C-0 382.87 0.22
						 382.98 0.43 382.98 C0.92 382.98 1.84 383.05 2.29 383.14 C2.65 383.23 2.97 383.32 3.24 383.45 C3.01 382.87
						 2.61 382.48 1.93 382.24 ZM31.78 422.21 C31.42 422.37 31.04 422.48 30.61 422.52 C30.19 422.59 29.42 422.64
						 29.04 422.64 C28.77 422.64 28.55 422.75 28.55 422.97 C28.55 423.29 28.88 423.4 29.58 423.4 C32.14 423.4
						 35.14 423.24 35.74 423.24 C36.33 423.24 38.69 423.4 39.99 423.4 C40.49 423.4 40.8 423.29 40.8 422.97 C40.8
						 422.75 40.65 422.64 40.26 422.64 L39.72 422.64 C39.25 422.64 38.76 422.52 38.35 422.28 C37.03 422.25 35.18
						 422.12 34.66 422.12 C34.3 422.12 33.18 422.16 31.78 422.21 ZM37.68 421.35 C37.66 421.26 37.66 421.17 37.66
						 421.06 C37.66 420.07 37.93 418.77 38.4 417.42 L41.68 407.77 C41.79 407.5 41.95 407.34 42.22 407.34 L53.65
						 407.34 L53.33 406.53 L53.33 406.53 C53.24 406.33 53.13 406.22 52.86 406.22 L41.14 406.22 C40.87 406.22 40.71
						 406.37 40.6 406.64 L37.32 416.29 C36.85 417.64 36.55 418.97 36.55 419.94 C36.55 420.66 37.07 421.13 37.68
						 421.35 ZM59.54 422.19 C59.45 422.37 59.32 422.48 59.16 422.52 C58.96 422.59 58.78 422.7 58.78 422.91 C58.78
						 423.24 59.38 423.24 60.42 423.29 C64.18 423.4 68.16 423.4 68.97 423.4 C69.57 423.4 70.07 423.29 70.07 422.97
						 C70.07 422.7 69.84 422.64 69.51 422.64 C68.97 422.64 68.16 422.59 67.35 422.32 C67.3 422.3 67.26 422.3 67.21
						 422.28 C65.77 422.28 62.6 422.25 59.54 422.19 ZM64.9 420.5 C64.22 419.62 63.48 418.3 62.65 416.27 C59.34
						 407.99 50.77 385.5 49.96 383.43 C49.31 381.72 49.08 381.45 48.77 381.45 C48.7 381.45 48.63 381.47 48.57
						 381.52 C48.66 381.74 48.77 381.99 48.88 382.3 C49.69 384.37 58.24 406.87 61.57 415.15 C62.85 418.3 63.97
						 419.78 64.9 420.5 ZM42.9 404.26 L47.46 390.29 C47.49 390.22 47.51 390.15 47.51 390.11 L47.19 389.16 C46.92
						 388.33 46.65 388.33 46.36 389.16 L41.57 403.88 C41.46 404.15 41.57 404.26 41.75 404.26 L42.9 404.26 ZM107.12
						 416.45 C106.89 417.85 106.6 419.35 106.35 420.21 C106.02 421.24 105.93 421.35 104.94 421.78 C102.75 422.66
						 98.61 423.04 95.13 423.04 C86.96 423.04 81.45 421.04 77.16 417.17 C77 417.01 76.82 416.88 76.68 416.72 C77.16
						 417.26 77.67 417.78 78.24 418.3 C82.53 422.16 88.04 424.17 96.21 424.17 C99.69 424.17 103.83 423.78 106.02
						 422.91 C107.01 422.48 107.12 422.37 107.43 421.33 C107.97 419.49 108.62 414.74 108.62 414.36 C108.62 413.93
						 108.51 413.55 108.24 413.55 C107.93 413.55 107.82 413.77 107.7 414.36 C107.64 414.83 107.43 415.62 107.12
						 416.45 ZM81.65 415.21 C78.42 411.57 76.55 406.76 76.55 401.72 C76.55 396.16 77.47 391.32 81.45 387.5 C83.36
						 385.66 86.74 383.52 93.98 383.52 C98.59 383.52 102.66 384.89 104.64 386.44 C104.4 386.11 104.1 385.77 103.79
						 385.52 C101.88 383.88 97.69 382.39 92.9 382.39 C85.66 382.39 82.26 384.53 80.37 386.38 C76.39 390.2 75.47
						 395.04 75.47 400.59 C75.47 406.15 77.74 411.46 81.65 415.21 ZM107.03 390.69 C107.12 391.19 107.16 391.68
						 107.16 392.18 C107.16 392.94 107.21 393.33 107.59 393.33 C107.93 393.33 108.04 393.01 108.08 392.18 C108.15
						 391.37 108.15 388.38 108.24 386.58 C108.35 384.62 108.51 383.97 108.51 383.52 C108.51 383.2 108.42 382.98
						 107.82 382.93 C107.68 382.91 107.55 382.91 107.41 382.89 C107.34 383.36 107.25 384.1 107.16 385.45 C107.07
						 387.05 107.05 389.57 107.03 390.69 ZM120.37 422.21 C120.23 422.32 120.05 422.39 119.85 422.43 C119.35 422.52
						 118.7 422.64 118.23 422.64 C117.89 422.64 117.78 422.82 117.78 422.97 C117.78 423.29 118.05 423.4 118.66
						 423.4 C120.3 423.4 123.45 423.24 123.88 423.24 C124.33 423.24 127.48 423.4 130.15 423.4 C130.76 423.4 131.03
						 423.24 131.03 422.97 C131.03 422.82 130.92 422.64 130.58 422.64 C130.11 422.64 129.23 422.52 128.46 422.43
						 C128.22 422.39 128.01 422.34 127.83 422.28 C125.5 422.23 123.18 422.12 122.8 422.12 C122.57 422.12 121.54
						 422.16 120.37 422.21 ZM126.69 421.13 C126.51 420.66 126.4 420.07 126.33 419.42 C126.06 417.15 126.06 412.83
						 126.06 407.61 L126.06 402.28 L126.19 402.28 L126.19 402.28 C125.81 401.83 125.5 401.45 125.25 401.15 L124.98
						 401.15 L124.98 406.49 L124.98 406.49 C124.98 411.7 124.98 416.02 125.25 418.3 C125.38 419.65 125.65 420.7
						 126.69 421.13 ZM138.14 415.19 C140.3 417.46 142.14 419.31 142.95 419.98 C145.29 421.83 146.66 423.02 149.54
						 423.29 C150.73 423.4 151.77 423.4 153.3 423.4 L156.09 423.4 C157.01 423.4 157.28 423.24 157.28 422.97 C157.28
						 422.75 156.94 422.64 156.58 422.64 C156.29 422.64 155.3 422.57 154.2 422.28 L152.22 422.28 C150.69 422.28
						 149.65 422.28 148.46 422.16 C145.58 421.89 144.21 420.7 141.87 418.86 C141.2 418.3 139.82 416.95 138.14
						 415.19 ZM133.68 404.15 C131.93 402.3 130.53 400.84 130.11 400.37 C131.23 398.99 140.72 389.73 142.07 388.42
						 C144.53 386.08 145.74 384.73 147.97 383.74 C149.05 383.25 150.19 382.98 151.03 382.98 C151.45 382.98 151.57
						 382.87 151.57 382.6 C151.57 382.33 151.34 382.21 150.73 382.21 C150.06 382.21 148.8 382.26 147.67 382.3
						 C147.43 382.39 147.16 382.51 146.89 382.62 C144.64 383.61 143.45 384.96 140.99 387.3 C139.64 388.62 130.15
						 397.87 129 399.24 C129.54 399.83 131.41 401.78 133.68 404.15 ZM140.79 382.48 C140.79 382.53 140.77 382.55
						 140.77 382.6 C140.77 382.69 140.81 382.78 140.88 382.82 C140.86 382.69 140.84 382.57 140.79 382.48 ZM126.06
						 399.24 L126.06 398.03 C126.06 389.52 126.06 387.99 126.17 386.24 C126.28 384.35 126.71 383.43 128.19 383.14
						 C128.85 383.05 129.16 382.98 129.54 382.98 C129.77 382.98 129.99 382.87 129.99 382.66 C129.99 382.33 129.72
						 382.21 129.12 382.21 C128.35 382.21 127.3 382.26 126.31 382.28 C125.47 382.73 125.18 383.63 125.09 385.14
						 C124.98 386.87 124.98 388.4 124.98 396.9 L124.98 400.16 L125.2 400.16 L125.2 400.16 C125.34 400.03 125.63
						 399.69 126.06 399.24 ZM118.88 382.24 C118.52 382.21 118.18 382.21 117.85 382.21 C117.24 382.21 116.97 382.33
						 116.97 382.66 C116.97 382.87 117.2 382.98 117.4 382.98 C117.89 382.98 118.81 383.05 119.26 383.14 C119.62
						 383.23 119.94 383.32 120.21 383.45 C119.96 382.87 119.58 382.48 118.88 382.24 ZM188.46 381.58 C188.43 382.51
						 188.23 387.77 188.19 395.64 L188.12 405.72 C188.07 411.16 188.12 415.87 188.39 418.25 C188.57 419.65 188.75
						 420.46 189.78 420.9 C189.63 420.5 189.56 419.98 189.47 419.38 C189.2 416.97 189.15 412.29 189.2 406.85 L189.27
						 396.77 C189.31 388.42 189.54 383.05 189.54 382.6 C189.54 382.06 189.38 381.45 188.93 381.45 C188.77 381.45
						 188.61 381.52 188.46 381.58 ZM179.84 387.3 L177.12 389.14 C176.89 389.3 176.74 389.52 176.74 389.68 C176.74
						 389.91 176.94 390.18 177.12 390.18 C177.32 390.18 177.5 390.11 177.77 389.95 C179.08 389.32 182.68 387.48
						 183.87 387.34 C183.8 386.62 183.6 386.22 182.9 386.22 C182.36 386.22 181.12 386.71 179.84 387.3 ZM182.47
						 422.21 C181.44 422.43 178.78 422.59 178.15 422.59 C177.93 422.59 177.7 422.82 177.7 423.02 C177.7 423.29
						 178.04 423.4 178.63 423.4 C182.11 423.4 186.7 423.24 186.97 423.24 C187.24 423.24 190.73 423.4 194.82 423.4
						 C195.48 423.4 195.75 423.29 195.75 423.02 C195.75 422.82 195.48 422.59 195.25 422.59 C194.78 422.59 192.55
						 422.43 191.7 422.28 C188.55 422.23 186.12 422.12 185.89 422.12 C185.74 422.12 184.32 422.16 182.47 422.21
						 ZM206.86 419.94 C209.11 422.66 212.84 424.17 217.05 424.17 C224.83 424.17 230 418.5 230 412.18 C230 408.65
						 228.36 406.06 226.29 404.12 C227.82 405.9 228.92 408.17 228.92 411.05 C228.92 417.37 223.75 423.04 215.97
						 423.04 C212.37 423.04 209.13 421.94 206.86 419.94 ZM221.05 400.03 C224.09 398.41 228.32 395.19 228.32 389.79
						 C228.32 387.23 227.33 385.18 225.66 383.79 C226.65 385.07 227.24 386.71 227.24 388.67 C227.24 394.38 222.49
						 397.67 219.45 399.17 C219.95 399.44 220.49 399.71 221.05 400.03 ZM209.02 397.29 C210.05 398.48 211.38 399.53
						 212.86 400.5 C213 400.46 213.16 400.39 213.29 400.32 C211.69 399.4 210.23 398.41 209.02 397.29 ZM210.91
						 418.97 C209.62 417.35 208.88 415.28 208.88 413.05 C208.88 407.61 212.19 404.28 216.24 402.32 C218.58 403.54
						 220.85 404.78 222.6 406.37 C220.78 404.21 217.99 402.68 215.14 401.2 C211.11 403.16 207.78 406.49 207.78
						 411.93 C207.78 414.72 208.95 417.28 210.91 418.97 ZM222.02 384.73 C220.85 383.14 218.98 382.19 216.62 382.19
						 C211.72 382.19 209.53 386.06 209.53 389.05 C209.53 391.55 210.59 393.37 212.3 394.88 C211.24 393.6 210.61
						 392.09 210.61 390.18 C210.61 387.18 212.8 383.32 217.7 383.32 C219.43 383.32 220.89 383.83 222.02 384.73
						 ZM243.52 419.2 C241.34 416.5 240.31 412.33 240.31 408.49 C240.31 395.58 247.98 386.8 254.95 382.93 C255.51
						 382.6 255.98 382.39 255.98 381.94 C255.98 381.63 255.78 381.45 255.56 381.45 C255.33 381.45 254.91 381.63
						 254.41 381.83 C253.42 382.28 252.43 382.78 251.46 383.32 C245.26 387.72 239.23 395.91 239.23 407.36 C239.23
						 411.79 240.6 416.63 243.52 419.2 ZM239.14 420.07 C241.39 422.73 244.58 424.17 248.36 424.17 C252.41 424.17
						 255.24 422.97 257.78 420.52 C260.19 418.18 261.72 414.47 261.72 410.17 C261.72 407.3 260.53 403.97 258.01
						 401.69 C259.79 403.85 260.64 406.62 260.64 409.05 C260.64 413.35 259.11 417.06 256.7 419.4 C254.14 421.85
						 251.33 423.04 247.28 423.04 C244.06 423.04 241.27 422.01 239.14 420.07 ZM245.93 400.16 C245.32 400.46 244.83
						 400.75 244.45 401.02 C244.11 401.24 243.95 401.4 243.95 401.67 C243.95 401.94 244.02 402.1 244.18 402.1
						 C244.33 402.1 244.72 401.94 244.87 401.9 C246.13 401.29 247.55 401.18 248.97 401.18 C250.32 401.18 251.94
						 401.83 253.38 403.09 C251.71 401.06 249.6 400.05 247.89 400.05 C247.23 400.05 246.56 400.07 245.93 400.16
						 ZM290.87 416.34 C290.51 417.82 290.06 419.49 289.77 420.48 C289.34 421.96 288.53 422.12 286.24 422.12 L266.02
						 422.12 C265.95 422.23 265.9 422.37 265.9 422.48 C265.9 422.91 266.29 423.24 266.67 423.24 L287.32 423.24
						 C289.61 423.24 290.42 423.09 290.85 421.6 C291.41 419.76 292.49 415.51 292.49 414.47 C292.49 414.13 292.45
						 413.66 292.18 413.66 C291.84 413.66 291.68 413.86 291.53 414.47 C291.37 415.15 291.14 415.78 290.87 416.34
						 ZM272.61 418.86 C279.49 412.99 290.69 403.27 290.69 392.47 C290.69 389.39 289.55 386.49 287.23 384.42 C288.83
						 386.35 289.61 388.78 289.61 391.35 C289.61 402.62 277.42 412.69 270.65 418.48 C270.38 418.68 270.49 418.86
						 270.76 418.86 L272.61 418.86 ZM268.45 388.92 C268.51 389.91 268.56 390.69 268.58 390.87 C268.63 391.37 268.81
						 391.59 269.01 391.59 C269.28 391.59 269.5 391.26 269.5 390.78 C269.5 388.65 270.11 386.73 271.42 385.5 C272.99
						 384.01 274.63 383.43 277.24 383.43 C279 383.43 281.09 383.95 282.75 385.36 C280.95 383.09 278.32 382.3 276.16
						 382.3 C273.55 382.3 271.91 382.89 270.34 384.37 C269.17 385.48 268.58 387.09 268.45 388.92 Z" class="st1"/>
		</g>
		<g id="shape26-45" transform="translate(54.0087,-181.085)">
			<title>Sheet.26</title>
			<path d="M4.75 407.61 C4.75 412.83 4.75 417.13 4.45 419.42 C4.25 420.99 3.98 422.21 2.88 422.41 C2.38 422.52 1.73 422.64
						 1.26 422.64 C0.92 422.64 0.81 422.79 0.81 422.97 C0.81 423.29 1.08 423.4 1.69 423.4 C3.33 423.4 6.75 423.24
						 6.91 423.24 C7.2 423.24 10.62 423.4 13.61 423.4 C14.22 423.4 14.49 423.24 14.49 422.97 C14.49 422.79 14.37
						 422.64 14.06 422.64 C13.56 422.64 12.37 422.52 11.61 422.41 C9.96 422.21 9.65 420.99 9.47 419.42 C9.2 417.13
						 9.2 412.83 9.2 407.61 L9.2 385.21 C9.2 384.67 9.31 384.28 9.65 384.17 C10.12 383.97 11.07 383.86 11.99 383.86
						 C13.23 383.86 16.56 383.63 19.44 386.58 C22.34 389.52 22.49 393.17 22.49 394.97 C22.49 399.98 18.36 403.85
						 13.07 403.85 C11.92 403.85 11.61 403.9 11.61 404.33 C11.61 404.6 11.92 404.71 12.19 404.71 C12.46 404.78
						 13.07 404.78 13.34 404.78 C21.08 404.78 26.75 399.53 26.75 391.8 C26.75 388.92 25.22 386.47 24.02 385.32
						 C23.15 384.51 20.69 382.21 13.88 382.21 C11.38 382.21 8.23 382.37 7.02 382.37 C6.59 382.37 3.33 382.21 0.88
						 382.21 C0.27 382.21 0 382.33 0 382.64 C-0 382.87 0.22 382.98 0.43 382.98 C0.92 382.98 1.84 383.02 2.29 383.14
						 C4.09 383.52 4.52 384.4 4.63 386.24 C4.75 387.99 4.75 389.52 4.75 398.01 L4.75 407.61 ZM35.18 417.42 C34.21
						 420.14 33.11 422.21 30.61 422.52 C30.19 422.59 29.42 422.64 29.04 422.64 C28.77 422.64 28.55 422.75 28.55
						 422.97 C28.55 423.29 28.86 423.4 29.58 423.4 C32.14 423.4 35.14 423.24 35.74 423.24 C36.33 423.24 38.67
						 423.4 39.99 423.4 C40.47 423.4 40.8 423.29 40.8 422.97 C40.8 422.75 40.65 422.64 40.26 422.64 L39.7 422.64
						 C38.78 422.64 37.63 422.14 37.63 421.06 C37.63 420.07 37.93 418.77 38.4 417.42 L41.68 407.77 C41.77 407.5
						 41.95 407.34 42.22 407.34 L53.94 407.34 C54.21 407.34 54.3 407.43 54.41 407.66 L59.5 421.06 C59.81 421.94
						 59.5 422.41 59.16 422.52 C58.93 422.59 58.78 422.68 58.78 422.91 C58.78 423.24 59.38 423.24 60.42 423.29
						 C64.18 423.4 68.16 423.4 68.97 423.4 C69.57 423.4 70.05 423.29 70.05 422.97 C70.05 422.68 69.84 422.64 69.51
						 422.64 C68.97 422.64 68.16 422.59 67.33 422.32 C66.18 421.98 64.6 421.11 62.65 416.27 C59.32 407.99 50.77
						 385.48 49.96 383.41 C49.31 381.72 49.08 381.45 48.75 381.45 C48.43 381.45 48.21 381.79 47.55 383.59 L35.18
						 417.42 ZM42.81 405.36 C42.65 405.36 42.54 405.25 42.65 404.98 L47.44 390.27 C47.71 389.46 48 389.46 48.27
						 390.27 L53.45 404.98 C53.49 405.2 53.49 405.36 53.22 405.36 L42.81 405.36 ZM96.21 424.17 C99.69 424.17 103.83
						 423.78 106.02 422.91 C106.98 422.48 107.1 422.37 107.43 421.33 C107.97 419.49 108.62 414.74 108.62 414.36
						 C108.62 413.93 108.51 413.55 108.24 413.55 C107.93 413.55 107.82 413.75 107.7 414.36 C107.55 415.35 106.83
						 417.73 105.68 418.93 C103.5 421.17 100.3 421.65 96.21 421.65 C84.56 421.65 76.55 412.13 76.55 401.72 C76.55
						 396.16 77.47 391.3 81.45 387.5 C83.34 385.66 86.74 383.52 93.98 383.52 C98.77 383.52 102.96 385 104.87 386.62
						 C106.29 387.81 107.16 390.06 107.16 392.18 C107.16 392.94 107.21 393.33 107.59 393.33 C107.93 393.33 108.02
						 393.01 108.08 392.18 C108.13 391.37 108.13 388.38 108.24 386.58 C108.35 384.62 108.51 383.97 108.51 383.52
						 C108.51 383.2 108.4 382.98 107.82 382.93 C106.06 382.82 104.33 382.48 102.26 382.1 C99.58 381.61 96.52 381.45
						 94.36 381.45 C85.97 381.45 81 384.01 77.74 387.27 C72.88 392.13 71.64 398.5 71.64 402.14 C71.64 407.34 72.95
						 413.55 78.24 418.27 C82.53 422.14 88.04 424.17 96.21 424.17 ZM121.69 407.61 C121.69 412.83 121.69 417.13
						 121.42 419.42 C121.22 420.99 120.93 422.21 119.85 422.41 C119.35 422.52 118.7 422.64 118.21 422.64 C117.89
						 422.64 117.78 422.79 117.78 422.97 C117.78 423.29 118.05 423.4 118.66 423.4 C120.28 423.4 123.45 423.24
						 123.88 423.24 C124.33 423.24 127.48 423.4 130.15 423.4 C130.74 423.4 131.01 423.24 131.01 422.97 C131.01
						 422.79 130.92 422.64 130.58 422.64 C130.08 422.64 129.23 422.52 128.46 422.41 C126.82 422.21 126.49 420.99
						 126.33 419.42 C126.06 417.13 126.06 412.83 126.06 407.61 L126.06 402.26 L126.33 402.26 L126.33 402.26 C128.94
						 405.47 140.5 417.96 142.95 419.96 C145.29 421.83 146.66 423.02 149.54 423.29 C150.73 423.4 151.77 423.4
						 153.3 423.4 L156.09 423.4 C157.01 423.4 157.28 423.24 157.28 422.97 C157.28 422.75 156.94 422.64 156.56
						 422.64 C156.18 422.64 154.6 422.52 153.19 421.94 C150.58 420.84 149.65 419.96 145.07 415.71 C142.84 413.64
						 131.5 401.94 130.08 400.37 C131.23 398.99 140.72 389.73 142.07 388.42 C144.53 386.08 145.72 384.71 147.97
						 383.74 C149.05 383.25 150.19 382.98 151 382.98 C151.45 382.98 151.57 382.87 151.57 382.6 C151.57 382.33
						 151.34 382.21 150.73 382.21 C149.38 382.21 145.79 382.37 145.52 382.37 C144.21 382.37 142.5 382.21 141.42
						 382.21 C141.04 382.21 140.77 382.33 140.77 382.6 C140.77 382.82 140.99 382.93 141.26 383.02 C141.69 383.2
						 141.96 383.52 141.96 384.17 C141.96 385.09 140.54 386.51 139.01 388.11 C137.06 390.22 127.21 400.25 126.28
						 401.29 L126.06 401.29 L126.06 398.01 L126.06 398.01 C126.06 389.52 126.06 387.99 126.17 386.24 C126.28 384.33
						 126.71 383.41 128.19 383.14 C128.85 383.02 129.16 382.98 129.54 382.98 C129.77 382.98 129.97 382.87 129.97
						 382.64 C129.97 382.33 129.7 382.21 129.12 382.21 C127.48 382.21 124.33 382.37 123.83 382.37 C123.49 382.37
						 120.28 382.21 117.82 382.21 C117.24 382.21 116.97 382.33 116.97 382.64 C116.97 382.87 117.17 382.98 117.4
						 382.98 C117.89 382.98 118.81 383.02 119.24 383.14 C121.04 383.52 121.49 384.4 121.58 386.24 C121.69 387.99
						 121.69 389.52 121.69 398.01 L121.69 407.61 ZM189.24 396.77 C189.31 388.42 189.54 383.02 189.54 382.6 C189.54
						 382.06 189.36 381.45 188.93 381.45 C188.55 381.45 188.12 381.79 187.62 382.1 L177.1 389.14 C176.89 389.3
						 176.72 389.52 176.72 389.68 C176.72 389.91 176.94 390.18 177.1 390.18 C177.32 390.18 177.48 390.11 177.75
						 389.95 C179.12 389.3 182.95 387.34 183.98 387.34 C184.84 387.34 184.95 387.93 184.95 389.03 L184.95 397.31
						 L184.95 406.85 L184.95 406.85 C184.95 412.29 184.95 416.97 184.79 419.38 C184.68 421.06 184.3 421.87 182.5
						 422.21 C181.46 422.41 178.78 422.59 178.13 422.59 C177.93 422.59 177.7 422.79 177.7 423.02 C177.7 423.29
						 178.04 423.4 178.63 423.4 C182.11 423.4 186.7 423.24 186.97 423.24 C187.24 423.24 190.73 423.4 194.8 423.4
						 C195.48 423.4 195.75 423.29 195.75 423.02 C195.75 422.79 195.48 422.59 195.25 422.59 C194.76 422.59 192.46
						 422.41 191.65 422.25 C189.92 421.87 189.69 421.06 189.47 419.38 C189.2 416.97 189.15 412.29 189.2 406.85
						 L189.24 396.77 ZM204.68 413.59 C204.68 420.19 210.23 424.17 217.05 424.17 C224.83 424.17 230 418.5 230 412.18
						 C230 405.47 224.11 402.14 220.53 400.3 C223.57 398.77 228.32 395.51 228.32 389.79 C228.32 384.44 224.02
						 381.45 218.35 381.45 C210.39 381.45 206.74 387.07 206.74 391.21 C206.74 396.05 210.12 398.95 214.37 401.45
						 C209.42 403.4 204.68 407.5 204.68 413.59 ZM217.47 422.1 C212.41 422.1 208.86 417.89 208.86 413.05 C208.86
						 407.61 212.19 404.28 216.21 402.32 C221.12 404.89 225.82 407.5 225.82 413.44 C225.82 418.27 222.49 422.1
						 217.47 422.1 ZM217.7 383.29 C221.88 383.29 224.49 386.31 224.49 390.45 C224.49 396 220.8 398.18 218.67 399.42
						 C214.21 397.04 210.61 394.74 210.61 390.18 C210.61 387.16 212.8 383.29 217.7 383.29 ZM257.2 412.6 C257.2
						 418.61 253.76 422.1 249.39 422.1 C243.14 422.1 240.31 414.85 240.31 408.47 C240.31 395.55 247.98 386.78
						 254.95 382.91 C255.49 382.6 255.98 382.37 255.98 381.94 C255.98 381.61 255.78 381.45 255.56 381.45 C255.33
						 381.45 254.91 381.61 254.41 381.83 C243.84 386.4 235.56 397.92 235.56 408.47 C235.56 418.39 240.73 424.17
						 248.36 424.17 C252.39 424.17 255.22 422.97 257.78 420.52 C260.19 418.16 261.72 414.47 261.72 410.15 C261.72
						 405.32 258.32 399.11 250.77 399.11 C247.71 399.11 245.52 400.25 244.45 401.02 C244.11 401.22 243.95 401.4
						 243.95 401.67 C243.95 401.94 244 402.1 244.18 402.1 C244.33 402.1 244.72 401.94 244.87 401.87 C246.13 401.29
						 247.55 401.18 248.97 401.18 C252.3 401.18 257.2 405.05 257.2 412.6 ZM287.32 423.24 C289.61 423.24 290.42
						 423.06 290.85 421.6 C291.39 419.76 292.49 415.51 292.49 414.47 C292.49 414.13 292.43 413.64 292.16 413.64
						 C291.84 413.64 291.68 413.86 291.5 414.47 C290.85 417.35 289.12 419.31 285.14 419.69 C283.18 419.92 276.75
						 419.96 275.82 419.96 L271.84 419.96 C271.57 419.96 271.46 419.8 271.73 419.58 C278.48 413.82 290.69 403.74
						 290.69 392.45 C290.69 386.69 286.6 381.45 278.39 381.45 C273.96 381.45 270.81 382.44 268.78 383.36 C268.31
						 383.68 268.24 383.86 268.24 384.17 C268.24 385.86 268.51 390.38 268.58 390.87 C268.63 391.37 268.78 391.59
						 269.01 391.59 C269.28 391.59 269.5 391.26 269.5 390.76 C269.5 388.65 270.11 386.73 271.42 385.48 C272.99
						 384.01 274.63 383.41 277.24 383.41 C280.89 383.41 285.9 385.7 285.9 393.48 C285.9 403.94 277.78 411.48 266.89
						 421.17 C266.44 421.56 265.9 422.03 265.9 422.48 C265.9 422.91 266.29 423.24 266.67 423.24 L287.32 423.24
						 Z" class="st3"/>
		</g>
		<g id="shape27-47" transform="translate(16.5783,-187.114)">
			<title>Sheet.27</title>
			<path d="M13.7 424.17 C13.7 424.17 13.18 421.51 9.9 421.51 C6.61 421.51 5.11 420.99 5.11 418.75 C5.11 416.47 7.02 415.82
						 8.19 417.67 C8.19 417.67 8.5 415.1 10.3 414.63 C10.3 414.63 9.63 411.07 7.27 411.07 C4.88 411.07 4.21 413.19
						 4.61 414.9 C4.61 414.9 0 413.71 0 408.58 C0 403.4 5.53 403 8.59 406.17 C8.59 406.17 9.11 399.44 13.7 395.24
						 C18.33 399.44 18.85 406.17 18.85 406.17 C21.91 403 27.44 403.4 27.44 408.58 C27.44 413.71 22.83 414.9 22.83
						 414.9 C23.21 413.19 22.58 411.07 20.18 411.07 C17.79 411.07 17.16 414.63 17.16 414.63 C18.94 415.1 19.26
						 417.67 19.26 417.67 C20.45 415.82 22.34 416.47 22.34 418.75 C22.34 420.99 20.85 421.51 17.52 421.51 C14.22
						 421.51 13.7 424.17 13.7 424.17 Z" class="st2"/>
		</g>
		<g id="shape28-49" transform="translate(358.671,-187.901)">
			<title>Sheet.28</title>
			<path d="M13.68 424.17 C13.68 424.17 13.16 421.51 9.87 421.51 C6.59 421.51 5.11 420.99 5.11 418.75 C5.11 416.47 7 415.84
						 8.19 417.69 C8.19 417.69 8.5 415.12 10.28 414.63 C10.28 414.63 9.63 411.07 7.27 411.07 C4.86 411.07 4.21
						 413.19 4.61 414.92 C4.61 414.92 0 413.71 0 408.58 C0 403.43 5.53 403.02 8.59 406.19 C8.59 406.19 9.11 399.44
						 13.68 395.24 C18.33 399.44 18.85 406.19 18.85 406.19 C21.91 403.02 27.44 403.43 27.44 408.58 C27.44 413.71
						 22.83 414.92 22.83 414.92 C23.19 413.19 22.56 411.07 20.18 411.07 C17.77 411.07 17.14 414.63 17.14 414.63
						 C18.94 415.12 19.26 417.69 19.26 417.69 C20.42 415.84 22.34 416.47 22.34 418.75 C22.34 420.99 20.83 421.51
						 17.52 421.51 C14.19 421.51 13.68 424.17 13.68 424.17 Z" class="st2"/>
		</g>
		<g id="shape29-51" transform="translate(96.9278,-240.27)">
			<title>Sheet.29</title>
			<path d="M0 424.17 L210.82 424.17 L105.66 346.92 L0 424.17 Z" class="st2"/>
		</g>
		<g id="shape30-53" transform="translate(95.9381,-83.9515)">
			<title>Sheet.30</title>
			<path d="M210.82 346.94 L0 346.94 L105.16 424.17 L210.82 346.94 Z" class="st2"/>
		</g>
		<g id="shape31-55" transform="translate(182.821,-106.731)">
			<title>Sheet.31</title>
			<path d="M19.06 405.65 C23.81 405.65 27.66 401.75 27.66 397.03 C27.66 389.16 21.4 380.88 17.72 376.38 C21.74 385.06 10.45
						 388.14 10.45 397.03 C10.45 401.8 14.34 405.65 19.06 405.65 ZM19.78 385.17 C22.12 388.01 25.88 393.09 25.88
						 397.91 C25.88 400.83 23.47 403.19 20.59 403.19 C17.72 403.19 15.31 400.79 15.31 397.91 C15.31 392.51 22.28
						 390.51 19.78 385.17 ZM35.78 416.69 L27.91 412.89 L35.78 409.09 L35.78 409.09 C37.76 408.14 38.52 405.87
						 37.56 403.87 C36.59 401.89 34.34 401.12 32.31 402.07 L19 408.61 L5.66 402.14 L5.66 402.14 C3.68 401.17 1.36
						 402.02 0.42 403.91 C-0.55 405.87 0.3 408.19 2.19 409.13 L10.07 412.93 L2.19 416.74 L2.19 416.74 C0.21 417.7
						 -0.55 419.95 0.42 421.98 C1.36 423.93 3.63 424.72 5.66 423.75 L19 417.28 L32.4 423.71 L32.4 423.71 C34.38
						 424.65 36.7 423.8 37.65 421.93 C38.57 419.91 37.69 417.66 35.78 416.69 Z" class="st4"/>
		</g>
		<g id="shape32-57" transform="translate(163.8,-253.474)">
			<title>Sheet.32</title>
			<path d="M48.64 424.17 L74.12 424.17 C74.64 424.17 75.31 423.4 75.02 422.88 L61.8 392.25 C61.64 391.8 61.03 391.8 60.87
						 392.25 L47.71 422.88 C47.42 423.4 47.87 424.17 48.64 424.17 ZM44 424.17 L0.97 424.17 C0.45 424.17 -0.22
						 423.4 0.07 422.88 C2.34 417.58 10.82 398.21 13.39 392.18 C13.54 391.71 13.9 391.64 14.44 391.86 C22 395.73
						 48.64 395.73 57.99 392.02 C58.47 391.86 58.92 392.31 58.53 392.76 C53.92 403.29 47.2 419.02 45.37 423.24
						 C45.53 423.78 44.77 424.17 44 424.17 Z" class="st4"/>
		</g>
		<g id="shape33-59">
			<title>Sheet.33</title>
			<path d="M123.4 293.97 L70.45 347.03 C56.15 361.34 39.61 372.07 21.3 379.22 C15.93 381.45 14.6 388.15 18.63 392.18 L32.01
						 405.59 C36.04 409.61 42.74 407.81 44.99 402.91 C52.12 384.58 63.3 367.59 77.16 353.73 L131.21 299.7 L123.4
						 293.97 ZM274.23 298.22 L375.95 399.94 L378.15 397.71 L276.79 296.35 L274.23 298.22 ZM128.85 148.4 L46.29
						 65.87 L44.09 68.07 L126.28 150.27 L128.85 148.4 ZM288.02 157.94 C313.3 143.02 336.76 125.27 357.34 104.38
						 L396.89 63.01 C407.17 52.73 407.17 35.74 396.89 25.01 C386.61 14.76 369.63 14.76 358.9 25.01 L319.35 66.41
						 C297.22 88.54 278.61 113.17 263.52 139.96 L288.02 157.94 ZM0 20.99 L20.99 69.26 C23.24 63.01 32.17 60.78
						 37.54 66.14 L42 70.61 L49.6 63.01 L45.12 58.53 L45.12 58.53 C39.77 53.18 41.55 44.68 48.25 42 L0 20.99 ZM337.89
						 359.36 L364.27 358.91 L360.25 354.43 L333.86 355.33 L337.89 359.36 ZM350.87 372.32 L377.23 371.87 L373.2
						 367.41 L346.84 368.29 L350.87 372.32 ZM363.82 384.82 L389.74 384.82 L385.71 380.37 L359.8 380.82 L363.82
						 384.82 ZM376.78 397.8 L402.69 397.35 L398.69 393.33 L372.3 393.33 L376.78 397.8 ZM337.89 359.36 L333.86
						 355.33 L332.98 381.27 L337.44 385.27 L337.89 359.36 ZM350.87 372.32 L346.84 368.29 L345.94 394.23 L350.42
						 398.25 L350.87 372.32 ZM363.82 384.82 L359.8 380.82 L358.9 407.18 L363.37 411.21 L363.82 384.82 ZM376.78
						 397.8 L372.3 393.33 L371.85 420.14 L376.33 424.17 L376.78 397.8 Z" class="st3"/>
		</g>
		<g id="shape34-61" transform="translate(16.5783,-239.595)">
			<title>Sheet.34</title>
			<path d="M0 424.17 L0 422.82 L369.54 422.82 L369.54 424.17 L0 424.17 Z" class="st5"/>
		</g>
		<g id="shape35-63" transform="translate(16.5783,-161.177)">
			<title>Sheet.35</title>
			<path d="M0 424.17 L0 422.84 L369.54 422.84 L369.54 424.17 L0 424.17 Z" class="st5"/>
		</g>
	</g>
</svg>
