<?xml version="1.0" encoding="UTF-8" standalone="no"?>
<svg
   xmlns:dc="http://purl.org/dc/elements/1.1/"
   xmlns:cc="http://creativecommons.org/ns#"
   xmlns:rdf="http://www.w3.org/1999/02/22-rdf-syntax-ns#"
   xmlns:svg="http://www.w3.org/2000/svg"
   xmlns="http://www.w3.org/2000/svg"
   xmlns:sodipodi="http://sodipodi.sourceforge.net/DTD/sodipodi-0.dtd"
   xmlns:inkscape="http://www.inkscape.org/namespaces/inkscape"
   version="1.1"
   x="0"
   y="0"
   width="2048"
   height="2048"
   viewBox="0, 0, 2048, 2048"
   id="svg74"
   sodipodi:docname="pack1862-color.svg"
   inkscape:version="0.92.2 (5c3e80d, 2017-08-06)">
  <metadata
     id="metadata80">
    <rdf:RDF>
      <cc:Work
         rdf:about="">
        <dc:format>image/svg+xml</dc:format>
        <dc:type
           rdf:resource="http://purl.org/dc/dcmitype/StillImage" />
        <dc:title></dc:title>
      </cc:Work>
    </rdf:RDF>
  </metadata>
  <defs
     id="defs78" />
  <sodipodi:namedview
     pagecolor="#ffffff"
     bordercolor="#666666"
     borderopacity="1"
     objecttolerance="10"
     gridtolerance="10"
     guidetolerance="10"
     inkscape:pageopacity="0"
     inkscape:pageshadow="2"
     inkscape:window-width="2560"
     inkscape:window-height="1388"
     id="namedview76"
     showgrid="false"
     inkscape:zoom="0.4609375"
     inkscape:cx="416.91207"
     inkscape:cy="831.16287"
     inkscape:window-x="1912"
     inkscape:window-y="130"
     inkscape:window-maximized="1"
     inkscape:current-layer="svg74" />
  <g
     id="Layer_1">
    <path
       d="M 0,0 H 2048 V 2048 H 0 Z"
       id="path2"
       inkscape:connector-curvature="0"
       style="fill:#ffffff" />
  </g>
  <g
     id="document">
    <g
       id="g45"
       style="fill:#808080;fill-opacity:1">
      <path
         d="m 578.616,380.121 q 2.423,-11.496 13.15,-18.405 14.355,-9.245 27.056,-4.104 7.071,2.925 10.771,8.077 l -11.885,7.654 q -3.792,-3.345 -6.948,-4.26 -5.627,-1.617 -11.994,2.483 -6.483,4.176 -6.859,11.815 -0.375,7.639 5.788,17.209 6.164,9.57 13.188,11.788 7.025,2.218 13.121,-1.708 6.252,-4.026 6.897,-10.229 0.397,-3.368 -1.24,-8.537 l 11.77,-7.58 q 4.446,10.294 1.851,20.209 -2.595,9.915 -12.513,16.302 -12.27,7.903 -24.363,4.554 -12.118,-3.387 -20.99,-17.163 -9.593,-14.895 -6.8,-28.105 z"
         id="path5"
         inkscape:connector-curvature="0"
         style="fill:#808080;fill-opacity:1" />
      <path
         d="m 656.755,368.125 17.923,-9.601 q -2.733,-4.421 -6.489,-5.454 -3.756,-1.034 -7.438,0.938 -4.005,2.146 -4.866,5.836 -0.862,3.689 0.87,8.281 z m 20.693,-24.259 q 4.691,2.537 8.234,7.304 2.071,2.796 5.046,8.544 l -30.182,16.169 q 3.798,6.505 9.153,7.073 3.275,0.38 6.633,-1.419 3.561,-1.907 4.702,-5.122 0.629,-1.743 0.519,-4.183 l 11.773,-6.308 q 1.658,4.163 0.184,10.16 -2.218,9.467 -12.414,14.929 -8.415,4.508 -17.752,2.533 -9.337,-1.975 -15.883,-14.193 -6.134,-11.45 -3.601,-20.67 2.533,-9.219 11.798,-14.183 5.502,-2.947 11.017,-3.246 5.516,-0.3 10.773,2.612 z"
         id="path7"
         inkscape:connector-curvature="0"
         style="fill:#808080;fill-opacity:1" />
      <path
         d="m 736.508,325.495 13.693,30.781 -12.246,5.447 -12.368,-27.804 q -1.605,-3.606 -3.427,-5.106 -3.329,-2.739 -8.277,-0.538 -6.081,2.705 -6.051,8.871 0.039,3.248 1.923,7.483 l 11.007,24.743 -11.91,5.298 -20.297,-45.627 11.532,-5.13 2.966,6.668 q 0.74,-4.549 2.104,-7.014 2.459,-4.41 8.121,-6.928 7.087,-3.153 13.246,-1.447 6.159,1.706 9.984,10.303 z"
         id="path9"
         inkscape:connector-curvature="0"
         style="fill:#808080;fill-opacity:1" />
      <path
         d="m 742.638,316.13 -3.256,-8.73 6.537,-2.438 -4.876,-13.074 12.127,-4.523 4.876,13.074 7.612,-2.839 3.256,8.73 -7.612,2.839 9.239,24.77 q 1.075,2.882 2.07,3.319 0.996,0.436 4.738,-0.959 0.559,-0.209 1.174,-0.463 0.616,-0.254 1.202,-0.521 l 3.416,9.16 -5.725,2.38 q -8.575,3.541 -12.992,1.417 -2.851,-1.338 -4.487,-5.724 l -10.762,-28.856 z"
         id="path11"
         inkscape:connector-curvature="0"
         style="fill:#808080;fill-opacity:1" />
      <path
         d="m 802.731,283.762 4.117,12.754 q -1.221,0.249 -2.153,0.502 -0.931,0.252 -1.499,0.436 -7.513,2.425 -8.51,8.149 -0.553,3.217 1.294,8.939 l 7.347,22.757 -12.536,4.047 -15.37,-47.61 11.88,-3.835 2.679,8.299 q 1.346,-5.692 2.922,-8.13 2.55,-4.055 8.141,-5.86 0.349,-0.113 0.596,-0.168 0.248,-0.056 1.092,-0.28 z"
         id="path13"
         inkscape:connector-curvature="0"
         style="fill:#808080;fill-opacity:1" />
      <path
         d="m 827.532,298.701 19.691,-5.07 q -1.605,-4.943 -5.008,-6.839 -3.403,-1.896 -7.448,-0.855 -4.4,1.133 -6.113,4.513 -1.713,3.38 -1.122,8.251 z m 25.862,-18.651 q 3.955,3.579 6.265,9.051 1.347,3.208 2.872,9.498 l -33.158,8.539 q 2.143,7.221 7.21,9.044 3.092,1.147 6.781,0.197 3.912,-1.007 5.784,-3.859 1.025,-1.544 1.497,-3.94 l 12.935,-3.331 q 0.621,4.437 -2.235,9.912 -4.402,8.67 -15.603,11.554 -9.246,2.381 -17.847,-1.755 -8.601,-4.136 -12.057,-17.56 -3.24,-12.579 1.41,-20.933 4.65,-8.354 14.829,-10.975 6.045,-1.557 11.474,-0.538 5.428,1.02 9.843,5.096 z"
         id="path15"
         inkscape:connector-curvature="0"
         style="fill:#808080;fill-opacity:1" />
      <path
         d="m 897.821,262.749 13.814,-2.534 -8.713,52.463 -13.589,2.493 -26.68,-45.969 14.446,-2.651 16.908,34.417 z"
         id="path17"
         inkscape:connector-curvature="0"
         style="fill:#808080;fill-opacity:1" />
      <path
         d="m 934.15,251.511 -13.154,1.713 -1.559,-11.97 13.153,-1.714 z m -12.383,7.63 13.154,-1.714 6.462,49.611 -13.153,1.713 z"
         id="path19"
         inkscape:connector-curvature="0"
         style="fill:#808080;fill-opacity:1" />
      <path
         d="m 967.276,304.429 -13.026,1.192 -6.167,-67.372 13.027,-1.193 z"
         id="path21"
         inkscape:connector-curvature="0"
         style="fill:#808080;fill-opacity:1" />
      <path
         d="m 993.335,302.718 -13.059,0.752 -3.887,-67.543 13.059,-0.751 z"
         id="path23"
         inkscape:connector-curvature="0"
         style="fill:#808080;fill-opacity:1" />
      <path
         d="m 1015.445,271.879 20.333,-0.123 q -0.353,-5.185 -3.192,-7.853 -2.839,-2.667 -7.016,-2.642 -4.544,0.027 -7.028,2.888 -2.484,2.861 -3.097,7.73 z m 29.625,-11.792 q 2.965,4.434 3.872,10.304 0.526,3.439 0.473,9.911 l -34.239,0.208 q 0.321,7.525 4.791,10.527 2.72,1.866 6.529,1.843 4.039,-0.025 6.55,-2.335 1.369,-1.247 2.411,-3.457 l 13.356,-0.081 q -0.477,4.455 -4.58,9.07 -6.382,7.337 -17.948,7.407 -9.547,0.058 -16.882,-6.049 -7.335,-6.106 -7.419,-19.967 -0.078,-12.989 6.466,-19.959 6.544,-6.971 17.055,-7.034 6.242,-0.038 11.259,2.273 5.017,2.31 8.306,7.339 z"
         id="path25"
         inkscape:connector-curvature="0"
         style="fill:#808080;fill-opacity:1" />
      <path
         d="m 1057.174,313.116 q 3.993,-0.923 5.965,-3.408 1.972,-2.484 2.455,-7.103 l -7.932,-0.356 0.614,-13.664 14.122,0.634 -0.531,11.83 q -0.14,3.118 -1.118,6.474 -0.978,3.356 -3.335,5.731 -2.55,2.55 -5.889,3.756 -3.339,1.205 -4.577,1.15 z"
         id="path27"
         inkscape:connector-curvature="0"
         style="fill:#808080;fill-opacity:1" />
      <path
         d="m 1160.236,244.383 14.542,2.06 -32.346,63.748 -13.224,-1.873 -13.145,-70.191 14.951,2.118 7.341,52.912 z"
         id="path29"
         inkscape:connector-curvature="0"
         style="fill:#808080;fill-opacity:1" />
      <path
         d="m 1195.106,262.825 -13.001,-2.636 2.399,-11.83 13,2.635 z m -14.186,3.212 13,2.636 -9.94,49.032 -13.001,-2.636 z"
         id="path31"
         inkscape:connector-curvature="0"
         style="fill:#808080;fill-opacity:1" />
      <path
         d="m 1236.616,277.558 -3.187,13.018 q -1.171,-0.428 -2.096,-0.702 -0.926,-0.274 -1.505,-0.416 -7.668,-1.877 -11.521,2.472 -2.159,2.448 -3.589,8.289 l -5.687,23.227 -12.795,-3.133 11.898,-48.594 12.126,2.969 -2.074,8.471 q 4.132,-4.139 6.754,-5.388 4.297,-2.114 10.004,-0.716 0.357,0.087 0.596,0.169 0.24,0.082 1.076,0.334 z"
         id="path33"
         inkscape:connector-curvature="0"
         style="fill:#808080;fill-opacity:1" />
      <path
         d="m 1270.363,314.648 q 2.121,-6.79 0.36,-11.235 -1.761,-4.445 -6.581,-5.951 -6.571,-2.053 -10.998,3.345 -2.341,2.875 -3.846,7.694 -1.3,4.162 -0.911,7.842 0.653,6.84 7.224,8.892 4.381,1.369 8.437,-0.994 4.057,-2.364 6.315,-9.593 z m 0.131,-25.973 q 3.968,3.307 5.198,9.221 l 2.148,-6.878 12.136,3.791 -14.15,45.3 q -2.888,9.244 -7.463,12.96 -7.863,6.392 -23.021,1.657 -9.157,-2.86 -13.818,-8.259 -4.661,-5.399 -3.043,-12.732 l 13.581,4.242 q -0.158,2.355 0.723,3.688 1.482,2.339 6.257,3.83 6.747,2.108 10.435,-1.693 2.393,-2.426 4.528,-9.261 l 0.958,-3.067 q -2.755,2.506 -5.293,3.396 -4.613,1.685 -10.571,-0.176 -9.201,-2.874 -12.68,-11.054 -3.48,-8.179 -0.032,-19.22 3.326,-10.646 10.892,-16.241 7.566,-5.594 17.292,-2.556 3.592,1.122 5.923,3.052 z"
         id="path35"
         inkscape:connector-curvature="0"
         style="fill:#808080;fill-opacity:1" />
      <path
         d="m 1318.713,299.268 -12.42,-4.658 4.239,-11.302 12.42,4.658 z m -14.515,0.929 12.419,4.658 -17.568,46.843 -12.419,-4.658 z"
         id="path37"
         inkscape:connector-curvature="0"
         style="fill:#808080;fill-opacity:1" />
      <path
         d="m 1366.052,343.511 -13.594,30.825 -12.263,-5.408 12.279,-27.843 q 1.593,-3.612 1.479,-5.97 -0.208,-4.305 -5.164,-6.491 -6.089,-2.685 -10.635,1.48 -2.38,2.211 -4.25,6.453 l -10.927,24.778 -11.927,-5.26 20.15,-45.692 11.549,5.093 -2.945,6.678 q 3.865,-2.509 6.608,-3.156 4.918,-1.142 10.588,1.358 7.097,3.13 9.973,8.838 2.875,5.707 -0.921,14.317 z"
         id="path39"
         inkscape:connector-curvature="0"
         style="fill:#808080;fill-opacity:1" />
      <path
         d="m 1400.543,336.084 -11.825,-6.01 5.47,-10.761 11.824,6.01 z m -14.529,-0.691 11.825,6.01 -22.67,44.599 -11.825,-6.011 z"
         id="path41"
         inkscape:connector-curvature="0"
         style="fill:#808080;fill-opacity:1" />
      <path
         d="m 1422.523,384.513 q -1.463,0.054 -2.797,-0.16 -1.334,-0.215 -3.448,-0.961 l -2.819,-0.994 q -3.943,-1.433 -6.021,-1.416 -3.518,0.033 -5.403,3.291 -1.678,2.9 -0.816,5.122 0.862,2.222 3.166,3.555 3.656,2.115 7.976,1.75 4.32,-0.364 7.726,-5.976 z m -3.816,-9.261 q 3.368,1.419 5.064,1.604 3.021,0.369 4.285,-1.816 1.54,-2.662 0.278,-4.743 -1.261,-2.082 -4.837,-4.151 -4.012,-2.321 -6.83,-1.3 -2.042,0.78 -3.888,3.054 l -10.925,-6.321 q 3.644,-5.474 8.579,-7.498 7.8,-3.123 18.725,3.197 7.112,4.114 11.002,10.13 3.891,6.015 -0.637,13.842 l -11.492,19.865 q -1.195,2.065 -2.817,5.051 -1.167,2.294 -1.071,3.411 0.097,1.116 0.91,2.276 l -0.965,1.669 -12.316,-7.125 q 0.242,-1.61 0.71,-2.877 0.468,-1.267 1.199,-2.806 -3.815,1.186 -7.909,1.204 -4.873,-0.009 -9.481,-2.675 -5.88,-3.401 -7.772,-8.976 -1.892,-5.575 1.671,-11.733 4.619,-7.986 12.846,-7.999 4.503,0.007 11.541,2.965 z"
         id="path43"
         inkscape:connector-curvature="0"
         style="fill:#808080;fill-opacity:1" />
    </g>
    <path
       d="m 1333.545,536.387 43.629,-43.629 c -8.137,-3.221 -16.747,-4.492 -25.111,-3.261 0,0 -4.244,1.518 -8.488,3.037 -5.67,1.549 -12.734,4.554 -19.829,6.135 -7.063,3.005 -14.158,4.585 -19.828,6.134 -5.67,1.55 -8.489,3.037 -8.489,3.037 1.487,2.819 2.975,5.639 4.431,7.033 1.487,2.819 2.943,4.213 5.855,7.001 4.369,4.183 7.281,6.971 11.588,8.303 6.334,2.375 10.455,4.799 16.242,6.21 z m 222.321,136.014 -34.716,34.716 c 2.164,0.805 4.229,1.612 6.803,2.409 0,0 2.881,1.363 8.613,2.664 5.731,1.301 12.888,2.571 20.076,5.266 7.188,2.695 14.376,5.391 20.108,6.692 4.306,1.332 8.613,2.664 8.613,2.664 1.208,-10.007 -1.86,-19.921 -6.321,-28.379 -1.519,-4.245 -4.462,-8.458 -3.161,-14.19 -4.338,-2.757 -7.25,-5.545 -11.587,-8.303 -2.449,-1.556 -5.342,-2.649 -8.428,-3.539 z m -1011.182,780.276 30.891,-30.892 c -1.346,0.029 -2.943,0.064 -4.539,0.099 -2.851,0.062 -10.007,-1.208 -17.164,-2.478 -14.283,-1.115 -27.171,-3.687 -27.171,-3.687 0.248,11.402 6.197,22.679 13.539,32.5 1.472,1.876 2.934,3.273 4.444,4.458 z m 88.756,31.032 -30.769,30.769 c 1.927,1.634 3.834,3.505 6.134,4.967 4.338,2.757 7.25,5.545 12.982,6.846 5.731,1.301 11.432,1.177 17.133,1.053 0,0 2.819,-1.487 8.52,-1.611 5.669,-1.549 12.795,-1.705 19.89,-3.285 7.095,-1.58 12.795,-1.704 18.465,-3.253 4.244,-1.519 8.52,-1.612 8.52,-1.612 -0.062,-2.85 -1.549,-5.669 -4.431,-7.032 -1.487,-2.82 -2.943,-4.214 -4.43,-7.033 -2.944,-4.214 -5.856,-7.002 -10.225,-11.184 -5.762,-2.726 -11.556,-6.878 -18.713,-8.148 -4.306,-1.332 -7.157,-1.27 -11.432,-1.177 0,0 -1.425,0.031 -2.85,0.062 -1.426,0.031 -4.276,0.093 -7.126,0.155 -0.5,0.179 -1.059,0.339 -1.668,0.483 z m 849.539,-23.564 16.653,16.653 c 15.124,-9.213 26.279,-25.778 26.976,-42.918 0,0 -0.031,-1.425 -0.062,-2.85 -3.005,-7.064 -3.036,-8.489 -3.098,-11.339 -0.156,-7.126 -1.736,-14.221 -3.285,-19.89 -1.58,-7.095 -1.766,-15.646 -3.285,-19.891 -1.549,-5.669 -1.611,-8.52 -1.611,-8.52 -9.883,4.493 -19.766,8.986 -23.855,17.63 -4.152,5.793 -6.878,11.556 -8.148,18.713 -2.695,7.188 -2.571,12.888 -2.416,20.014 0,0 1.704,12.796 2.014,27.047 0.039,1.791 0.078,3.583 0.117,5.351 z m -19.985,35.577 -34.982,-34.982 c -1.251,2.016 -2.385,4.197 -3.333,6.727 -1.332,4.307 -1.27,7.157 -2.602,11.464 0,0 0.031,1.425 0.062,2.85 0.031,1.425 0.093,4.275 0.155,7.126 -1.332,4.306 -1.146,12.857 -2.416,20.014 0.155,7.126 -1.115,14.283 -2.416,20.014 0.093,4.276 -1.239,8.582 -1.239,8.582 9.976,-0.217 19.89,-3.284 26.891,-9.14 2.82,-1.487 8.458,-4.462 9.79,-8.768 1.333,-4.307 4.09,-8.644 6.847,-12.982 1.195,-3.861 1.218,-8.844 3.243,-10.905 z m -0.421,-55.983 c -0.039,-1.804 -0.066,-3.038 -0.066,-3.038 -0.834,0.138 -1.668,0.296 -2.499,0.474 z m -861.467,-866.682 37.401,37.402 c 0.605,-1.311 1.18,-2.709 1.752,-4.235 1.332,-4.307 2.696,-7.188 2.602,-11.463 0,0 -0.031,-1.426 -0.062,-2.851 -0.031,-1.425 -0.093,-4.275 -0.155,-7.126 -0.124,-5.7 1.146,-12.857 2.416,-20.014 1.271,-7.157 1.084,-15.708 2.416,-20.014 1.302,-5.732 1.24,-8.582 1.24,-8.582 -9.977,0.217 -19.86,4.709 -26.892,9.14 -5.794,-4.151 -8.582,-1.239 -11.34,3.099 -2.757,4.337 -5.545,7.249 -6.846,12.981 -1.949,4.12 -2.457,7.479 -2.532,11.663 z M 558.7,599.036 c -12.449,9.572 -21.211,24.252 -21.826,39.381 0,0 0.031,1.425 0.062,2.85 0.031,1.425 0.093,4.275 0.155,7.126 0.155,7.126 1.735,14.22 3.285,19.89 1.58,7.095 1.766,15.646 3.284,19.89 1.518,4.245 1.611,8.52 1.611,8.52 9.883,-4.492 19.767,-8.985 23.856,-17.629 4.151,-5.794 6.878,-11.556 8.148,-18.713 2.695,-7.188 2.571,-12.889 2.416,-20.015 2.672,3.826 1.488,-7.545 1.038,-19.271 z m -144.203,615.259 c 0.241,0.542 0.528,1.011 0.912,1.378 2.943,4.213 5.887,8.427 7.374,11.246 4.368,4.182 8.706,6.94 14.438,8.241 0,0 12.981,6.846 24.506,12.299 2.882,1.363 7.188,2.695 8.644,4.089 2.882,1.363 5.763,2.727 7.219,4.121 5.763,2.726 7.219,4.12 7.219,4.12 1.301,-5.732 1.208,-10.007 1.084,-15.708 -0.124,-5.7 -1.642,-9.945 -3.191,-15.614 -1.519,-4.245 -3.006,-7.064 -4.462,-8.458 -0.901,-1.708 -2.335,-3.927 -3.967,-5.714 z m 52.097,-375.052 h 16.395 c 0.415,-0.566 0.801,-1.082 1.19,-1.488 4.182,-4.369 6.971,-7.281 6.847,-12.982 -0.032,-1.425 1.363,-2.881 1.301,-5.731 -0.031,-1.425 1.363,-2.882 1.301,-5.732 1.363,-2.881 1.27,-7.157 1.208,-10.007 -0.155,-7.126 -1.705,-12.796 -4.71,-19.859 0.062,2.85 -4.493,-9.883 -9.047,-22.617 -1.519,-4.244 -3.006,-7.064 -3.068,-9.914 -1.487,-2.819 -1.58,-7.095 -3.036,-8.489 -1.549,-5.67 -3.037,-8.489 -3.037,-8.489 -5.638,2.975 -9.821,7.343 -14.034,10.286 -4.183,4.369 -6.94,8.707 -9.666,14.469 -1.363,2.882 -2.726,5.763 -2.695,7.188 -1.363,2.881 -1.27,7.157 -1.239,8.582 0.155,7.126 0.248,11.401 1.828,18.496 0,0 1.518,4.245 4.462,8.458 2.974,5.639 5.979,12.702 7.56,19.797 2.706,6.36 6.567,12.695 8.44,18.032 z m -20.311,0 c -1.285,-1.794 -2.664,-3.789 -3.558,-6.289 -1.487,-2.82 -2.974,-5.639 -5.918,-9.852 -2.943,-4.214 -4.461,-8.458 -4.461,-8.458 -2.789,2.912 -7.002,5.856 -9.759,10.193 -2.758,4.338 -5.515,8.675 -6.847,12.982 -0.223,0.47 -0.437,0.945 -0.643,1.424 z m 1188.431,0 c -3.389,-2.115 -6.972,-4.227 -11.396,-6.319 0,0 -11.525,-5.453 -24.507,-12.299 -1.456,-1.395 -5.763,-2.727 -8.644,-4.09 -1.456,-1.394 -4.338,-2.757 -7.219,-4.12 -4.337,-2.758 -7.219,-4.121 -7.219,-4.121 -1.301,5.732 -1.208,10.008 -1.084,15.708 0.122,5.575 1.576,9.757 3.089,15.241 z m -28.743,375.052 c 1.873,3.403 3.898,7.14 5.925,10.983 1.487,2.819 4.399,5.607 5.917,9.852 1.488,2.819 2.975,5.638 4.462,8.458 2.943,4.213 4.462,8.458 4.462,8.458 2.788,-2.913 7.001,-5.856 9.759,-10.194 2.757,-4.337 5.514,-8.675 6.846,-12.981 2.153,-4.55 3.507,-9.478 4.068,-14.576 z M 486.639,1343.874 c -5.731,-1.301 -8.613,-2.665 -8.613,-2.665 -1.208,10.008 1.86,19.922 6.321,28.38 2.944,4.213 5.887,8.427 7.374,11.246 4.369,4.182 7.281,6.971 11.588,8.303 5.762,2.726 10.069,4.058 15.801,5.359 0,0 1.425,-0.031 2.85,-0.062 1.425,-0.031 4.306,1.332 7.157,1.27 5.731,1.301 11.463,2.602 20.045,3.841 12.889,2.572 27.171,3.687 27.171,3.687 -0.217,-9.977 -4.71,-19.86 -9.202,-29.743 -4.4,-5.607 -8.768,-9.79 -15.987,-13.91 -4.307,-1.332 -7.188,-2.695 -11.495,-4.028 0,0 -4.306,-1.332 -8.613,-2.664 -5.731,-1.301 -12.888,-2.571 -20.076,-5.266 -11.401,0.248 -20.014,-2.416 -24.321,-3.748 z m -4.308,-66.921 c -5.763,-2.726 -11.525,-5.452 -18.682,-6.722 -7.157,-1.271 -12.951,-5.422 -18.682,-6.723 -4.338,-2.757 -7.219,-4.12 -7.219,-4.12 -1.27,7.156 -2.602,11.463 -1.022,18.558 0.155,7.126 3.098,11.339 4.648,17.009 5.917,9.852 13.26,19.673 24.786,25.125 0,0 1.425,-0.031 2.881,1.363 1.425,-0.031 4.307,1.332 7.188,2.696 5.732,1.301 12.919,3.996 20.107,6.691 7.188,2.695 14.345,3.965 20.108,6.692 5.731,1.301 8.613,2.664 8.613,2.664 -0.124,-5.701 -0.217,-9.976 -0.342,-15.677 -1.549,-5.67 -3.067,-9.914 -6.01,-14.127 -1.488,-2.82 -4.4,-5.608 -5.856,-7.002 -2.912,-2.788 -4.4,-5.608 -7.281,-6.971 -5.794,-4.151 -10.131,-6.909 -17.319,-9.604 1.27,-7.157 -1.611,-8.52 -5.918,-9.852 z m 181.158,265.541 c -5.701,0.124 -8.52,1.611 -8.52,1.611 7.622,22.647 32.191,37.797 56.356,34.419 0,0 4.245,-1.518 8.489,-3.036 5.67,-1.549 12.734,-4.555 19.829,-6.135 7.063,-3.006 14.158,-4.586 19.828,-6.135 5.669,-1.549 8.489,-3.036 8.489,-3.036 -1.488,-2.82 -2.975,-5.639 -4.431,-7.033 -1.487,-2.82 -2.943,-4.214 -5.856,-7.002 -4.368,-4.182 -7.281,-6.971 -11.587,-8.303 -7.188,-2.695 -11.525,-5.452 -18.682,-6.722 -7.157,-1.27 -12.858,-1.146 -19.922,1.859 0,0 -12.764,3.13 -26.954,6.29 -5.669,1.549 -12.764,3.13 -17.039,3.223 z m 949.275,-277.312 c -2.974,-5.638 -5.98,-12.702 -7.56,-19.797 -1.58,-7.095 -7.436,-14.097 -8.985,-19.766 -2.975,-5.639 -4.462,-8.458 -4.462,-8.458 -2.819,1.487 -4.213,2.943 -7.001,5.856 -2.82,1.487 -4.183,4.368 -5.577,5.824 -4.182,4.369 -6.971,7.281 -6.847,12.982 0.031,1.425 -1.363,2.881 -1.301,5.732 0.031,1.425 -1.363,2.881 -1.301,5.731 -1.363,2.882 -1.27,7.157 -1.208,10.007 0.155,7.126 1.704,12.796 4.71,19.86 0,0 4.555,12.733 9.109,25.466 1.518,4.245 3.006,7.064 3.068,9.915 1.487,2.819 1.58,7.094 3.036,8.488 1.549,5.67 3.036,8.489 3.036,8.489 5.639,-2.974 9.821,-7.343 14.035,-10.286 4.182,-4.368 6.94,-8.706 9.666,-14.469 1.363,-2.881 2.726,-5.762 2.695,-7.188 1.363,-2.881 1.27,-7.156 1.239,-8.581 -0.155,-7.126 -0.248,-11.402 -1.828,-18.497 -2.882,-1.363 -4.4,-5.607 -4.524,-11.308 z m -247.074,243.493 c -2.788,2.912 -4.151,5.793 -6.97,7.28 -4.152,5.794 -6.878,11.557 -6.692,20.108 0,0 0.031,1.425 0.062,2.85 0.031,1.425 -1.332,4.307 -1.27,7.157 -1.301,5.732 -2.602,11.463 -5.297,18.651 -1.27,7.157 -3.966,14.345 -5.298,18.651 -1.301,5.732 -2.695,7.188 -2.695,7.188 2.85,-0.062 7.126,-0.155 8.551,-0.186 1.425,-0.031 7.095,-1.58 8.52,-1.611 5.67,-1.549 11.308,-4.524 16.947,-7.498 5.638,-2.975 8.396,-7.312 12.578,-11.681 4.152,-5.793 6.909,-10.131 8.21,-15.863 0,0 -0.031,-1.425 -0.062,-2.85 -0.031,-1.425 1.332,-4.306 1.27,-7.157 1.301,-5.731 2.571,-12.888 3.841,-20.045 1.27,-7.157 2.509,-15.739 2.416,-20.014 -0.124,-5.701 1.239,-8.582 1.239,-8.582 -9.976,0.217 -19.859,4.709 -28.317,9.171 -4.275,0.093 -4.244,1.518 -7.033,4.431 z m -64.782,37.055 c -2.819,1.488 -7.032,4.431 -8.426,5.887 -2.789,2.913 -5.608,4.4 -6.971,7.281 -2.789,2.912 -4.121,7.219 -6.909,10.131 0,0 -1.332,4.307 -4.089,8.644 -2.727,5.763 -5.453,11.526 -6.692,20.108 -2.695,7.188 -6.815,14.406 -8.117,20.138 -2.726,5.763 -4.089,8.644 -4.089,8.644 2.85,-0.062 5.732,1.301 7.157,1.27 1.425,-0.031 5.701,-0.124 7.126,-0.155 5.7,-0.124 9.945,-1.642 14.189,-3.16 8.489,-3.037 18.341,-8.955 23.887,-16.204 4.182,-4.369 5.514,-8.676 6.815,-14.407 0,0 5.422,-12.951 7.962,-27.264 2.695,-7.188 3.996,-12.92 5.298,-18.652 1.301,-5.731 2.695,-7.187 2.695,-7.187 -10.007,-1.208 -21.378,0.465 -29.836,4.926 z m 272.388,-194.139 c 0,0 -0.031,-1.425 -0.063,-2.85 -0.031,-1.425 -1.518,-4.244 -1.58,-7.095 -1.549,-5.669 -3.098,-11.339 -6.104,-18.403 -1.58,-7.094 -4.554,-12.733 -6.104,-18.403 -1.549,-5.669 -3.005,-7.064 -3.005,-7.064 -2.819,1.488 -5.639,2.975 -7.033,4.431 -2.819,1.487 -4.213,2.943 -7.001,5.856 -4.183,4.368 -6.971,7.281 -9.728,11.618 -1.395,1.456 -1.364,2.882 -2.727,5.763 -1.394,1.456 -1.363,2.881 -2.726,5.763 -1.332,4.306 -2.695,7.187 -2.633,10.038 0.093,4.275 0.155,7.126 1.673,11.37 0,0 0.031,1.425 0.062,2.85 0.031,1.426 1.518,4.245 1.58,7.095 1.55,5.67 3.13,12.765 4.71,19.859 3.192,15.615 4.958,31.261 4.958,31.261 5.67,-1.549 8.458,-4.462 12.671,-7.405 4.214,-2.943 6.971,-7.281 9.759,-10.193 2.758,-4.338 5.546,-7.25 6.847,-12.982 1.332,-4.306 2.664,-8.613 3.965,-14.345 4.121,-7.218 4.028,-11.494 2.479,-17.164 z M 1153.778,419.669 c 5.639,-2.974 7.002,-5.855 7.002,-5.855 -7.281,-6.971 -15.956,-12.486 -24.538,-13.725 -5.732,-1.301 -8.582,-1.239 -14.283,-1.115 -2.85,0.062 -5.7,0.124 -7.126,0.155 -2.85,0.062 -5.669,1.55 -7.094,1.581 -5.67,1.549 -9.853,5.917 -14.066,8.861 0,0 -2.788,2.912 -7.002,5.855 -2.819,1.488 -4.182,4.369 -7.001,5.856 -2.789,2.913 -5.608,4.4 -6.971,7.281 -9.79,8.768 -19.549,18.962 -19.549,18.962 7.281,6.97 18.744,9.572 28.751,10.78 7.157,1.27 14.252,-0.31 19.922,-1.859 4.244,-1.518 7.032,-4.431 9.852,-5.918 0,0 11.215,-8.799 23.824,-19.054 7.002,-5.856 14.066,-8.861 18.279,-11.805 z M 532.879,716.925 c 0,0 -0.031,-1.426 -0.062,-2.851 -0.031,-1.425 -1.518,-4.244 -1.58,-7.095 -1.549,-5.669 -3.13,-12.764 -4.71,-19.859 -3.191,-15.615 -4.958,-31.26 -4.958,-31.26 -5.669,1.549 -8.458,4.461 -12.671,7.405 -4.214,2.943 -6.971,7.281 -9.759,10.193 -2.757,4.338 -5.546,7.25 -6.847,12.982 -1.332,4.306 -2.664,8.613 -3.965,14.344 0.124,5.701 0.248,11.402 1.797,17.071 0,0 0.031,1.425 0.062,2.85 0.031,1.426 1.519,4.245 1.581,7.095 1.549,5.67 3.098,11.34 6.103,18.403 1.581,7.095 4.555,12.734 6.104,18.403 1.55,5.67 3.006,7.064 3.006,7.064 2.819,-1.487 5.638,-2.974 7.033,-4.43 2.819,-1.488 4.213,-2.944 7.001,-5.856 4.183,-4.369 6.971,-7.281 9.728,-11.619 1.394,-1.456 1.363,-2.881 2.727,-5.762 1.394,-1.456 1.363,-2.882 2.726,-5.763 1.332,-4.307 2.695,-7.188 2.633,-10.038 -5.763,-2.726 -5.856,-7.002 -5.949,-11.277 z m 789.008,-238.178 c 5.67,-1.549 8.489,-3.036 8.489,-3.036 -2.944,-4.214 -5.887,-8.427 -7.374,-11.246 -4.369,-4.183 -7.281,-6.971 -11.588,-8.303 -4.306,-1.332 -8.675,-5.515 -12.981,-6.847 -5.732,-1.301 -8.582,-1.239 -14.283,-1.115 -5.7,0.124 -11.339,3.099 -17.009,4.648 0,0 -4.244,1.518 -7.063,3.005 -5.639,2.975 -11.278,5.949 -18.372,7.529 -7.064,3.006 -12.703,5.98 -16.947,7.498 -2.82,1.488 -4.214,2.944 -5.639,2.975 -1.394,1.456 -2.819,1.487 -2.819,1.487 2.943,4.213 7.281,6.971 10.224,11.184 4.369,4.183 8.706,6.94 12.982,6.847 7.187,2.695 12.919,3.996 20.045,3.841 4.275,-0.093 7.095,-1.58 11.339,-3.098 0,0 1.425,-0.031 2.82,-1.488 1.425,-0.031 4.244,-1.518 7.063,-3.005 5.67,-1.549 12.734,-4.555 19.797,-7.56 8.582,1.239 15.646,-1.766 21.316,-3.316 z m -80.616,-35.317 c 5.639,-2.974 7.033,-4.431 7.033,-4.431 -4.4,-5.607 -7.312,-8.395 -13.106,-12.547 -5.793,-4.151 -10.131,-6.908 -15.831,-6.784 -11.495,-4.028 -22.865,-2.354 -34.173,2.169 0,0 -14.097,7.436 -26.737,16.266 -7.033,4.431 -12.672,7.405 -18.279,11.805 -4.245,1.518 -7.033,4.43 -7.033,4.43 7.281,6.971 15.956,12.486 25.994,15.119 7.157,1.27 12.889,2.571 19.983,0.991 7.095,-1.58 12.734,-4.555 19.798,-7.56 0,0 11.246,-7.374 23.948,-13.354 7.095,-1.58 14.159,-4.586 18.403,-6.104 z m 338.362,347.669 c 5.762,2.727 11.525,5.453 18.682,6.723 7.157,1.27 12.95,5.421 18.682,6.723 5.763,2.726 7.219,4.12 7.219,4.12 1.27,-7.157 2.602,-11.463 1.022,-18.558 -0.155,-7.126 -3.099,-11.339 -4.648,-17.009 -5.918,-9.852 -13.261,-19.673 -24.786,-25.126 0,0 -1.425,0.031 -2.881,-1.363 -1.426,0.031 -4.307,-1.332 -7.188,-2.695 -5.732,-1.301 -12.92,-3.996 -20.108,-6.692 -7.187,-2.695 -14.344,-3.965 -20.107,-6.691 -5.732,-1.301 -8.613,-2.664 -8.613,-2.664 0.124,5.7 0.217,9.976 0.341,15.676 1.549,5.67 3.068,9.914 6.011,14.128 1.487,2.819 4.4,5.608 5.856,7.002 2.912,2.788 4.399,5.607 7.281,6.97 5.793,4.152 10.131,6.909 17.319,9.604 -1.27,7.157 1.611,8.52 5.918,9.852 z M 715.914,479.104 c -2.851,0.062 -7.095,1.58 -8.52,1.611 -5.67,1.549 -11.309,4.523 -16.947,7.498 -5.639,2.974 -8.396,7.312 -12.578,11.68 -4.152,5.794 -6.909,10.132 -8.21,15.863 0,0 0.031,1.425 0.062,2.851 0.031,1.425 -1.332,4.306 -1.27,7.156 -1.301,5.732 -2.571,12.889 -3.842,20.046 -1.27,7.157 -2.509,15.739 -2.416,20.014 0.093,4.275 -1.239,8.582 -1.239,8.582 9.976,-0.217 19.86,-4.71 28.317,-9.171 2.789,-2.913 5.608,-4.4 6.971,-7.281 2.788,-2.913 4.152,-5.794 6.971,-7.281 4.151,-5.794 6.878,-11.557 6.691,-20.107 0,0 -0.031,-1.426 -0.062,-2.851 -0.031,-1.425 1.333,-4.306 1.271,-7.157 1.301,-5.731 2.602,-11.463 5.297,-18.651 1.27,-7.157 3.965,-14.345 5.297,-18.651 1.301,-5.732 2.696,-7.188 2.696,-7.188 -4.214,2.943 -5.639,2.974 -8.489,3.037 z m 81.853,-38.854 c -2.851,0.062 -5.701,0.124 -7.126,0.155 -5.701,0.124 -9.945,1.643 -14.19,3.161 -8.489,3.036 -18.341,8.954 -23.886,16.204 -4.183,4.368 -5.515,8.675 -6.816,14.407 0,0 -5.421,12.95 -7.962,27.264 -2.695,7.188 -3.996,12.919 -5.297,18.651 -1.301,5.732 -2.695,7.188 -2.695,7.188 10.007,1.208 19.952,-0.434 31.229,-6.383 2.82,-1.487 7.033,-4.431 8.427,-5.887 2.788,-2.912 5.608,-4.399 6.971,-7.281 2.788,-2.912 4.12,-7.219 6.909,-10.131 0,0 1.332,-4.307 4.089,-8.644 2.726,-5.763 5.452,-11.525 6.691,-20.107 2.696,-7.188 6.816,-14.407 8.117,-20.139 2.726,-5.762 4.09,-8.644 4.09,-8.644 -2.82,1.487 -5.701,0.124 -8.551,0.186 z m 95.02,-23.455 c -11.525,-5.453 -22.926,-5.205 -34.266,-2.106 -11.308,4.523 -21.16,10.441 -28.069,20.572 0,0 -6.815,14.407 -13.662,27.389 -1.332,4.306 -4.12,7.218 -5.484,10.1 -1.363,2.881 -2.695,7.188 -4.089,8.644 -2.726,5.763 -4.089,8.644 -4.089,8.644 5.731,1.301 10.007,1.208 15.708,1.084 5.7,-0.124 9.945,-1.642 15.614,-3.192 12.703,-5.979 22.524,-13.322 29.37,-26.304 0,0 1.363,-2.881 4.121,-7.219 2.757,-4.337 6.908,-10.131 9.635,-15.894 4.12,-7.219 6.877,-11.556 9.604,-17.319 2.788,-2.912 5.607,-4.399 5.607,-4.399 z m 60.848,-21.286 c -9.976,0.217 -19.859,4.709 -26.892,9.14 -2.819,1.487 -4.182,4.368 -6.971,7.281 -1.394,1.456 -4.182,4.368 -5.545,7.25 0,0 -6.878,11.556 -15.181,23.143 -4.151,5.794 -6.877,11.557 -9.635,15.894 -2.757,4.338 -4.12,7.219 -4.12,7.219 5.763,2.726 10.069,4.059 15.77,3.935 5.731,1.301 10.007,1.208 15.676,-0.342 7.095,-1.58 12.734,-4.554 19.798,-7.56 2.788,-2.912 7.001,-5.855 8.396,-7.312 0,0 2.788,-2.912 5.545,-7.25 1.363,-2.881 4.152,-5.793 6.971,-7.28 2.788,-2.913 5.576,-5.825 6.94,-8.707 9.728,-11.618 19.456,-23.236 19.456,-23.236 -10.194,-9.759 -20.232,-12.393 -30.208,-12.175 z m 86.873,-4.743 c -11.401,0.248 -22.71,4.772 -32.531,12.115 0,0 -11.153,11.649 -19.487,21.812 -9.728,11.618 -19.456,23.236 -19.456,23.236 4.338,2.758 8.675,5.515 14.407,6.816 2.85,-0.062 5.732,1.301 7.157,1.27 1.425,-0.031 5.7,-0.124 7.126,-0.155 7.125,-0.155 12.795,-1.704 19.828,-6.135 7.064,-3.005 11.246,-7.374 16.854,-11.773 0,0 2.788,-2.913 6.97,-7.281 4.183,-4.369 8.365,-8.737 13.973,-13.137 8.396,-7.312 19.58,-17.536 19.58,-17.536 -11.525,-5.453 -23.02,-9.48 -34.421,-9.232 z M 986.924,1573.85 c -6.644,-7.514 -11.617,-16.691 -14.089,-26.693 -2.51,4.158 -4.185,7.485 -5.029,11.648 0,0 -3.355,8.321 -6.709,16.642 -1.677,4.16 -4.188,8.318 -5.03,11.648 -0.842,3.329 -3.345,4.989 -3.345,4.989 4.163,0.844 9.163,0.024 12.495,0.033 4.167,-0.821 8.336,-2.476 11.673,-4.133 4.169,-1.655 7.508,-4.145 11.677,-5.799 1.668,-0.829 2.506,-2.492 4.174,-3.321 -1.661,-1.67 -3.323,-3.341 -5.817,-5.014 z m 39.291,-52.372 c 2.486,5.005 4.138,10.007 4.125,15.005 l 0.822,4.168 c 4.158,2.51 8.318,4.187 11.639,8.361 0.835,-0.831 1.67,-1.662 2.503,-1.659 4.176,-4.154 7.517,-7.477 10.861,-11.633 3.343,-4.156 5.855,-9.147 7.537,-14.973 0,0 0,-0.833 0.837,-1.664 0,-0.833 0.84,-2.497 1.678,-4.16 1.674,-3.328 3.349,-6.655 5.029,-11.648 0.84,-2.497 2.51,-4.159 3.348,-5.822 1.67,-1.662 2.51,-4.158 3.345,-4.989 2.508,-3.325 3.345,-4.989 3.345,-4.989 -3.329,-0.842 -6.661,-0.851 -9.993,-0.86 -3.332,-0.01 -5.833,0.817 -10,1.639 -3.335,0.824 -5.836,1.65 -9.172,3.307 -3.337,1.657 -5.007,3.318 -8.341,4.142 -9.179,5.807 -15.865,14.118 -19.224,24.105 0.831,0.835 0.831,0.835 1.661,1.67 z m 44.981,0.122 c -1.675,3.327 -2.512,4.991 -2.512,4.991 14.989,1.707 26.66,-1.594 39.172,-8.224 3.339,-2.49 5.007,-3.318 8.344,-4.975 3.338,-2.49 5.009,-4.152 8.35,-7.475 0,0 1.67,-1.661 4.176,-4.153 2.506,-2.492 5.844,-4.982 10.016,-7.47 7.51,-4.978 17.517,-9.115 17.517,-9.115 -4.156,-3.344 -7.483,-5.019 -11.641,-7.529 -4.158,-2.51 -9.154,-3.357 -14.152,-3.37 -2.499,-0.01 -4.165,-0.011 -6.664,-0.018 -2.499,-0.01 -4.167,0.822 -6.666,0.815 -2.501,0.826 -4.167,0.822 -6.668,1.648 -0.833,0 -2.501,0.826 -3.334,0.824 -1.668,0.828 -3.334,0.824 -4.17,1.655 -7.508,4.144 -13.35,8.293 -18.366,14.944 0,0 -1.672,2.494 -3.345,4.989 -1.675,3.327 -4.183,6.652 -5.86,10.813 -0.847,4.995 -2.522,8.323 -4.197,11.65 z m 3.731,160.776 c 5.82,4.181 13.312,5.867 19.973,6.718 6.662,0.851 14.163,-0.795 19.17,-4.113 0,0 0.833,0 1.668,-0.828 0.836,-0.831 2.504,-1.66 4.172,-2.488 3.339,-2.49 5.842,-4.149 10.018,-8.303 3.341,-3.323 5.847,-5.815 7.522,-9.142 1.673,-2.495 3.343,-4.156 3.343,-4.156 -2.497,-0.84 -4.16,-1.678 -6.657,-2.517 -2.497,-0.84 -4.16,-1.677 -6.659,-1.684 -1.664,-0.838 -4.163,-0.844 -4.994,-1.68 -0.83,-0.835 -4.995,-0.846 -6.661,-0.851 -6.662,-0.851 -15.825,-0.875 -26.656,-0.072 0,0 -2.499,-0.01 -4.998,-0.013 -4.164,-0.011 -7.496,-0.02 -12.492,-0.867 -2.499,-0.01 -4.163,-0.844 -5.829,-0.849 -2.51,4.158 -5.015,6.651 -8.359,10.807 2.479,7.503 9.125,14.185 17.439,20.038 z m 11.758,-35.786 c 3.332,0.01 4.998,0.013 4.998,0.013 0.01,-1.666 -0.826,-2.501 -0.824,-3.334 -4.169,1.655 -7.503,2.479 -11.673,4.133 3.335,-0.824 5,-0.819 7.499,-0.812 z m -230.672,-23.947 c 1.664,0.837 3.33,0.842 4.163,0.844 0.833,0 1.666,0 1.666,0 0.009,-3.332 0.013,-4.998 0.022,-8.33 -5.002,1.652 -10.838,3.302 -15.835,3.289 3.325,2.508 7.487,3.352 9.984,4.192 z m -19.811,-66.693 c -1.655,-4.169 -4.141,-9.174 -4.134,-11.672 -0.821,-4.168 -1.65,-5.836 -1.65,-5.836 -5.009,4.152 -10.025,10.802 -12.54,16.626 6.662,0.851 13.323,1.702 19.148,4.217 0.002,-0.833 -0.827,-2.502 -0.824,-3.335 z m 113.807,115.26 c 3.343,-4.156 5.016,-6.65 6.691,-9.978 1.675,-3.327 3.343,-4.156 3.343,-4.156 -10.819,-3.361 -19.98,-4.219 -29.98,-2.58 -5.003,1.653 -9.17,2.475 -13.339,4.129 -2.501,0.826 -4.172,2.488 -6.673,3.314 -2.501,0.826 -4.172,2.488 -7.508,4.145 0,0 -0.833,0 -1.668,0.828 -0.836,0.831 -2.502,0.827 -4.17,1.655 -3.336,1.657 -7.506,3.312 -11.673,4.133 -4.169,1.655 -9.169,2.475 -12.503,3.299 -4.168,0.821 -5.833,0.817 -5.833,0.817 7.465,11.682 20.772,19.215 34.928,20.919 4.165,0.011 6.664,0.018 10.829,0.029 4.167,-0.822 6.668,-1.648 10.003,-2.472 5.837,-2.483 11.677,-5.799 15.856,-10.786 0,0 1.67,-1.661 4.176,-4.153 1.672,-2.495 4.18,-5.82 7.521,-9.143 z m -79.124,-3.546 c 0.833,0 2.501,-0.826 4.167,-0.821 4.167,-0.822 7.502,-1.646 11.671,-3.301 2.501,-0.826 4.169,-1.655 5.838,-2.483 2.501,-0.826 4.169,-1.655 5.004,-2.485 3.337,-1.657 4.172,-2.488 4.172,-2.488 -4.149,-5.842 -9.136,-10.021 -13.292,-13.364 -2.494,-1.673 -4.153,-4.176 -7.485,-4.185 -2.495,-1.673 -4.991,-2.512 -8.319,-4.187 -3.327,-1.675 -5.824,-2.515 -9.154,-3.357 -3.329,-0.842 -6.659,-1.684 -9.989,-2.526 0,0 -2.496,-0.84 -4.993,-1.68 -3.33,-0.841 -7.49,-2.519 -11.65,-4.196 -4.159,-2.51 -8.319,-4.187 -11.644,-6.695 l -0.831,-0.835 c -1.666,0 -3.33,-0.842 -4.16,-1.678 -1.691,9.159 0.783,18.328 4.093,26.667 4.14,9.174 11.619,15.858 19.104,20.043 4.158,2.51 7.486,4.185 11.651,4.197 6.657,2.517 11.655,2.53 15.817,3.374 -1.666,0 -1.666,0 0,0 z m 133.288,-3.805 c 1.677,-4.16 3.355,-8.32 4.197,-11.65 0.842,-3.33 3.354,-8.321 4.196,-11.65 l 1.679,-4.994 c 0,-0.833 0.84,-2.496 0.842,-3.329 -3.331,-0.01 -6.666,0.814 -9.998,0.805 -4.167,0.822 -6.67,2.481 -10.837,3.303 -6.671,2.481 -12.513,6.63 -17.524,11.615 -2.506,2.492 -4.179,4.986 -6.684,7.478 -2.506,2.493 -4.179,4.987 -5.856,9.147 0,0 -1.673,2.495 -3.343,4.156 -1.675,3.328 -4.181,5.82 -7.524,9.976 -3.343,4.156 -5.851,7.481 -8.357,9.973 -1.67,1.662 -2.506,2.492 -3.341,3.323 -0.835,0.831 -1.668,0.828 -1.668,0.828 4.16,1.678 8.323,2.522 12.486,3.366 4.165,0.011 9.16,0.858 13.33,-0.797 4.167,-0.822 8.336,-2.476 12.506,-4.131 4.169,-1.655 7.508,-4.145 10.846,-6.635 2.506,-2.492 4.176,-4.153 6.682,-6.645 l 4.19,-9.152 c 1.668,-0.828 2.503,-1.659 4.178,-4.987 z m 186.824,-86.958 c -1.662,-1.671 -2.492,-2.506 -4.156,-3.343 -0.831,-0.836 -0.831,-0.836 -1.662,-1.671 -2.492,-2.506 -4.153,-4.176 -5.81,-7.512 -1.666,-0.01 -2.499,-0.01 -4.165,-0.012 -3.332,-0.01 -5,0.82 -8.334,1.644 -3.334,0.824 -5.003,1.652 -8.339,3.309 -3.337,1.657 -5.007,3.319 -7.508,4.145 l -4.179,4.986 c 0,0 -5.848,6.649 -10.864,13.299 -4.185,7.485 -8.368,14.138 -8.368,14.138 -0.838,1.664 -1.673,2.494 -1.675,3.327 4.162,0.845 9.16,0.858 13.323,1.702 4.165,0.012 9.998,-0.806 14.165,-1.627 2.501,-0.827 4.169,-1.655 6.671,-2.481 0.835,-0.831 2.501,-0.826 4.169,-1.655 1.668,-0.828 3.334,-0.824 4.169,-1.655 5.005,-2.485 10.012,-5.804 14.188,-9.957 2.508,-3.325 5.858,-9.98 8.375,-16.637 z m -155.837,25.401 c 0.835,-0.83 2.503,-1.659 3.339,-2.49 l -19.143,-5.882 c -0.833,0 -2.497,-0.84 -3.33,-0.842 0.811,8.332 3.289,15.835 6.603,22.508 3.346,-4.989 7.522,-9.142 12.531,-13.294 z m -173.8,-108.757 c -8.343,4.975 -15.028,12.454 -19.215,20.772 -2.51,4.158 -3.354,8.321 -4.196,11.651 -0.842,3.329 -0.023,8.33 0.801,11.664 0,0 -0.002,0.833 -0.004,1.666 -0.003,0.833 0.826,2.501 0.821,4.167 0.824,3.334 2.479,7.503 4.134,11.673 0.826,2.501 1.654,4.169 3.316,5.84 l -0.002,0.833 c 3.336,-1.657 6.675,-4.147 10.007,-4.138 2.501,-0.827 5.002,-1.653 7.503,-2.479 1.673,-2.494 2.51,-4.158 4.183,-6.653 1.673,-2.494 2.513,-4.991 3.355,-8.32 0.841,-3.33 1.681,-5.827 2.523,-9.156 0.842,-3.33 0.851,-6.662 1.695,-10.825 0,0 0.007,-2.499 0.847,-4.995 0.842,-3.33 1.686,-7.493 3.363,-11.653 1.678,-4.16 4.188,-8.318 5.03,-11.648 1.675,-3.328 3.345,-4.989 3.345,-4.989 -9.993,-0.86 -19.163,1.614 -27.506,6.59 z m 133.076,74.495 c 6.644,7.515 16.622,14.205 27.439,18.4 l 26.633,8.401 c 0.835,-0.83 2.501,-0.826 3.336,-1.657 1.669,-0.828 2.502,-0.826 4.17,-1.654 -1.639,-10 -4.946,-19.172 -11.59,-26.687 -4.149,-5.842 -10.797,-11.691 -17.452,-15.041 l -9.156,-2.524 c 0,0 -2.497,-0.839 -4.993,-1.679 l -1.664,-0.838 c -3.33,-0.842 -6.659,-1.684 -9.991,-1.693 -8.326,-1.688 -16.655,-1.711 -16.655,-1.711 -1.666,0 -2.499,-0.01 -4.165,-0.011 3.305,10.005 7.445,19.179 14.088,26.694 z m -40.633,-67.582 c -2.502,0.826 -4.172,2.488 -5.84,3.316 -1.669,0.829 -4.172,2.488 -5.007,3.319 -1.671,1.661 -3.339,2.49 -4.174,3.32 -2.506,2.493 -4.174,3.321 -4.174,3.321 4.987,4.179 9.976,7.524 14.964,10.869 4.992,2.513 10.818,4.195 16.644,5.876 5.827,1.682 12.488,2.533 19.985,2.553 0,0 9.163,0.025 18.321,1.716 4.163,0.844 9.158,1.69 12.488,2.532 4.163,0.845 5.826,1.682 5.826,1.682 -0.821,-4.167 -2.476,-8.336 -4.133,-11.673 -2.488,-4.172 -4.145,-7.508 -6.632,-11.68 -4.98,-6.677 -13.294,-12.53 -21.615,-15.885 -4.16,-1.677 -8.323,-2.521 -11.655,-2.53 -0.833,0 -1.666,0 -1.666,0 -4.165,-0.011 -6.666,0.815 -10.833,1.637 0,0 -2.501,0.826 -5.836,1.65 -3.327,-1.675 -5.828,-0.849 -6.663,-0.018 z m 106.256,135.231 4.212,-17.481 c 0.845,-4.163 2.52,-7.49 3.362,-10.82 l 0.837,-1.664 1.68,-4.993 c 0,-0.833 0.839,-2.497 1.675,-3.328 -2.499,-0.01 -5.001,0.82 -7.499,0.813 -3.335,0.824 -5.836,1.65 -8.337,2.477 -5.005,2.485 -10.842,4.968 -15.018,9.122 -9.184,7.472 -15.039,16.619 -19.233,27.436 0,0 -0.84,2.497 -1.68,4.994 -0.842,3.329 -2.519,7.49 -4.196,11.65 -1.677,4.161 -3.355,8.321 -4.196,11.651 -1.675,3.327 -2.513,4.991 -2.513,4.991 h 0.833 c 5.831,0.016 11.666,-1.634 17.502,-3.285 5.837,-2.483 10.842,-4.968 15.849,-8.287 5.009,-4.151 10.022,-9.968 13.37,-15.79 z m 48.356,-15.696 c 4.176,-4.154 8.359,-10.806 11.709,-17.461 0,0 4.185,-7.486 9.205,-15.802 5.018,-7.483 11.703,-14.962 11.703,-14.962 -4.161,-1.677 -9.156,-2.524 -13.321,-2.535 -13.328,-0.036 -26.669,4.926 -35.021,13.233 -5.012,4.984 -10.028,11.635 -12.547,19.125 0,0 -0.84,2.497 -1.679,4.993 -0.842,3.33 -2.52,7.49 -4.197,11.651 -2.521,8.323 -4.212,17.481 -4.212,17.481 14.989,1.706 28.337,-5.754 38.36,-15.723 z m 83.172,46.872 c -0.844,4.162 -1.682,5.826 -1.682,5.826 13.337,-3.296 25.856,-12.425 31.723,-25.737 4.192,-9.984 5.885,-19.975 4.244,-29.143 l -3.316,-5.84 c 0,0 -1.66,-2.503 -3.319,-5.006 -1.659,-2.504 -4.151,-5.01 -6.639,-9.181 -2.49,-3.339 -4.984,-5.012 -7.477,-7.517 l -0.83,-0.836 -0.829,-1.668 -0.83,-0.835 c -1.664,-0.837 -2.495,-1.673 -3.323,-3.341 -4.188,8.319 -6.707,15.809 -7.56,23.303 -0.856,8.328 -0.05,18.326 1.587,29.159 0,0 -0.01,2.499 0.819,5 0.824,3.334 0.813,7.499 -0.033,12.495 -0.847,4.996 -1.691,9.158 -2.535,13.321 z m 47.714,-86.502 c 0.011,-4.165 -0.806,-9.998 -2.461,-14.167 -1.655,-4.17 -4.14,-9.174 -5.797,-12.511 -4.98,-6.677 -11.628,-12.526 -19.118,-15.045 0,0 -2.497,-0.84 -4.994,-1.68 -3.329,-0.841 -8.325,-1.688 -11.654,-2.53 -4.163,-0.844 -9.161,-0.858 -11.66,-0.864 -3.332,-0.01 -4.998,-0.014 -4.998,-0.014 4.129,13.339 8.269,22.513 16.574,31.698 2.492,2.506 4.154,4.176 6.646,6.682 2.492,2.506 4.987,4.179 7.479,6.684 0,0 0.833,0 1.664,0.838 0.83,0.835 1.661,1.67 3.325,2.508 2.492,2.505 5.817,5.013 8.305,9.185 3.32,4.174 5.81,7.512 7.467,10.849 1.657,3.336 3.319,5.007 3.319,5.007 2.51,-4.158 4.187,-8.319 5.864,-12.479 0.84,-2.497 1.678,-4.161 1.684,-6.659 0.01,-2.499 -1.652,-5.003 -1.645,-7.502 z m -403.975,-8.588 c 0.835,-0.831 1.67,-1.662 2.506,-2.492 -7.486,-4.185 -16.644,-5.876 -24.974,-5.899 -13.328,-0.036 -26.669,4.926 -37.525,14.893 l -26.722,24.917 c 8.318,4.187 17.474,6.711 26.637,6.736 9.163,0.025 19.165,-2.447 26.673,-6.592 l 6.682,-6.646 z m 5.729,37.5 c 6.664,0.018 12.5,-1.633 19.168,-3.28 6.671,-2.481 13.343,-5.795 19.19,-11.61 0,0 1.67,-1.662 4.176,-4.154 2.506,-2.492 5.845,-4.982 9.185,-8.305 6.682,-6.646 11.696,-12.463 11.696,-12.463 -4.16,-1.677 -6.655,-3.35 -10.818,-4.194 -1.663,-0.838 -3.329,-0.842 -4.995,-0.847 -2.499,-0.01 -4.163,-0.844 -5.829,-0.849 -1.666,0 -2.499,-0.01 -4.165,-0.011 -6.664,-0.018 -12.499,1.632 -19.167,3.28 -6.671,2.481 -13.344,5.795 -19.19,11.61 l -26.723,24.918 c 9.984,4.191 18.31,5.88 27.472,5.905 z m 96.083,-107.196 c 2.504,-1.659 6.676,-4.147 10.847,-6.634 8.341,-4.143 18.344,-6.615 18.344,-6.615 l -0.831,-0.835 c -9.136,-10.021 -24.116,-15.059 -37.448,-13.429 -14.165,1.628 -26.68,9.091 -33.371,19.069 0,0 -5.02,8.316 -7.542,16.639 -1.677,4.16 -2.521,8.323 -3.363,11.653 -0.005,1.666 -0.842,3.329 -0.845,4.162 -0.002,0.833 -0.004,1.666 -0.004,1.666 10.831,-0.803 18.332,-2.449 26.669,-4.926 4.169,-1.654 8.341,-4.142 11.68,-6.632 4.174,-3.321 7.512,-5.811 11.686,-9.131 -0.828,-1.668 0.842,-3.33 4.178,-4.987 z m 243.167,23.981 c 0,0 8.332,-0.811 18.324,0.882 4.162,0.844 9.158,1.691 12.485,3.366 4.163,0.844 5.824,2.515 5.824,2.515 0,-0.833 0,-0.833 0,-1.666 -2.465,-12.502 -10.759,-25.852 -22.403,-32.547 -11.641,-7.529 -26.63,-9.235 -38.305,-4.269 0,0 -2.502,0.827 -5.005,2.486 -3.337,1.657 -6.675,4.147 -10.845,5.801 -1.67,1.662 -4.171,2.488 -5.009,4.152 -1.67,1.661 -3.341,3.323 -4.176,4.153 -2.506,2.493 -4.176,4.154 -4.176,4.154 8.314,5.853 15.802,9.206 24.125,11.727 4.163,0.844 9.158,1.691 13.323,1.702 5.002,-1.653 10.836,-2.47 15.833,-2.456 z m 3.798,135.787 c 0.842,-3.33 0.856,-8.328 1.698,-11.658 0.011,-4.164 0.025,-9.162 -0.802,-11.664 0.01,-3.331 -0.819,-5 -0.819,-5 -0.833,0 -1.668,0.829 -2.501,0.827 -11.671,3.3 -20.016,9.108 -28.371,18.249 -2.506,2.492 -4.176,4.153 -5.851,7.481 -2.506,2.492 -4.179,4.986 -5.854,8.314 0,0 0,0.833 -0.837,1.663 -0.835,0.831 -1.67,1.662 -2.508,3.326 -2.508,3.325 -4.181,5.819 -8.354,9.14 -1.671,1.661 -3.341,3.323 -5.01,4.151 -1.67,1.662 -4.171,2.488 -5.009,4.152 -3.338,2.49 -5.009,4.151 -5.009,4.151 4.158,2.51 9.152,4.19 13.314,5.034 2.497,0.84 4.163,0.844 7.495,0.853 2.499,0.01 4.165,0.011 7.497,0.02 4.165,0.012 10.002,-2.472 14.172,-4.126 4.171,-2.488 8.341,-4.143 11.682,-7.466 3.34,-3.322 6.681,-6.645 9.194,-11.636 1.675,-3.328 3.347,-5.822 4.192,-9.985 0.833,0 1.672,-2.494 1.681,-5.826 z m -276.324,-84.045 c 0,0 -5.016,6.65 -11.695,12.463 -3.341,3.323 -6.682,6.646 -9.188,9.138 -2.505,2.492 -4.176,4.153 -4.176,4.153 0.833,0 0.831,0.836 1.664,0.838 2.497,0.84 4.158,2.51 6.655,3.35 3.329,0.842 5.826,1.681 9.991,1.693 3.332,0.01 6.662,0.851 9.996,0.027 3.332,0.01 6.666,-0.815 10,-1.639 5.835,-1.65 11.673,-4.134 17.515,-8.283 2.506,-2.492 4.176,-4.153 6.68,-5.813 2.503,-1.659 4.176,-4.153 5.018,-7.483 0,0 4.187,-8.318 8.375,-16.637 4.187,-8.319 5.876,-16.644 5.876,-16.644 -5.829,-0.849 -10.829,-0.029 -15.829,0.79 -2.502,0.827 -5,0.82 -7.502,1.646 -1.668,0.829 -2.501,0.826 -4.169,1.655 -1.668,0.828 -2.501,0.826 -4.169,1.655 -2.502,0.826 -4.172,2.487 -6.676,4.146 -2.503,1.66 -4.174,3.321 -5.842,4.15 0,0 0,0 -0.835,0.83 -4.169,1.655 -8.345,5.809 -11.689,9.965 z"
       id="path47"
       style="fill:#ce1126;fill-opacity:1"
       inkscape:connector-curvature="0" />
    <g
       id="g53">
      <path
         d="m 519.866,1098.821 c -0.525,0.355 -1.13,0.608 -1.829,0.748 -1.744,0.388 -4.07,0.775 -5.813,0.775 -1.163,0 -1.55,0.582 -1.55,1.163 0,1.162 0.968,1.55 3.099,1.55 5.813,0 18.019,-0.581 18.6,-0.581 0.969,0 13.175,0.581 23.832,0.581 2.131,0 3.1,-0.581 3.1,-1.55 0,-0.581 -0.388,-1.163 -1.55,-1.163 -1.744,0 -6.007,-0.387 -8.719,-0.775 -0.845,-0.112 -1.591,-0.298 -2.252,-0.552 -8.952,-0.137 -17.458,-0.535 -18.26,-0.535 -0.323,0 -4.242,0.179 -8.658,0.339 z m 22.884,-3.871 c -0.702,-1.693 -1.034,-3.753 -1.27,-6.037 -0.969,-8.137 -0.969,-23.444 -0.969,-42.043 v -79.632 c 0,-1.937 0.388,-3.293 1.55,-3.681 1.744,-0.775 5.037,-1.162 8.331,-1.162 4.204,0 14.964,-0.69 24.791,8.02 -0.65,-0.787 -1.348,-1.564 -2.097,-2.327 -10.269,-10.463 -22.087,-9.687 -26.543,-9.687 -3.294,0 -6.588,0.387 -8.332,1.162 -1.162,0.388 -1.549,1.744 -1.549,3.681 v 79.631 c 0,18.6 0,33.906 0.968,42.044 0.489,4.725 1.388,8.491 5.12,10.031 z m 29.53,-66.224 c -5.172,3.038 -11.336,4.775 -18.013,4.775 -4.069,0 -5.231,0.193 -5.231,1.744 0,0.968 1.162,1.356 2.131,1.356 0.969,0.194 3.1,0.194 4.069,0.194 27.512,0 47.662,-18.6 47.662,-46.113 0,-10.269 -5.425,-18.987 -9.687,-23.056 -0.378,-0.354 -0.839,-0.785 -1.4,-1.27 3.639,4.632 7.238,11.968 7.238,20.332 0,19.893 -10.535,35.126 -26.769,42.038 z m -57.671,-72.114 c -1.28,-0.019 -2.538,-0.03 -3.741,-0.03 -2.132,0 -3.1,0.388 -3.1,1.55 0,0.775 0.774,1.163 1.55,1.163 1.743,0 5.037,0.193 6.587,0.581 1.327,0.282 2.447,0.638 3.39,1.086 -0.842,-2.043 -2.268,-3.428 -4.686,-4.35 z m 106.197,142.225 c -1.252,0.541 -2.628,0.921 -4.151,1.12 -1.55,0.194 -4.262,0.387 -5.619,0.387 -0.969,0 -1.744,0.388 -1.744,1.163 0,1.162 1.163,1.55 3.681,1.55 9.107,0 19.762,-0.581 21.894,-0.581 2.131,0 10.463,0.581 15.112,0.581 1.744,0 2.906,-0.388 2.906,-1.55 0,-0.775 -0.58,-1.163 -1.936,-1.163 h -1.938 c -1.618,0 -3.423,-0.42 -4.841,-1.308 -4.734,-0.113 -11.296,-0.554 -13.152,-0.554 -1.225,0 -5.267,0.192 -10.212,0.355 z m 20.941,-3.097 c -0.065,-0.321 -0.099,-0.658 -0.099,-1.014 0,-3.488 0.97,-8.138 2.712,-12.981 l 11.626,-34.294 c 0.387,-0.969 0.969,-1.55 1.937,-1.55 h 40.621 l -1.071,-2.832 c -0.386,-0.775 -0.774,-1.162 -1.743,-1.162 h -41.656 c -0.969,0 -1.55,0.581 -1.938,1.55 l -11.625,34.293 c -1.744,4.844 -2.712,9.494 -2.712,12.982 0,2.567 1.786,4.198 3.948,5.008 z m 77.751,2.956 c -0.315,0.673 -0.816,1.094 -1.318,1.261 -0.776,0.194 -1.356,0.581 -1.356,1.356 0,1.163 2.13,1.163 5.812,1.356 13.368,0.388 27.512,0.388 30.418,0.388 2.132,0 3.876,-0.388 3.876,-1.55 0,-0.969 -0.776,-1.163 -1.938,-1.163 -1.938,0 -4.844,-0.193 -7.749,-1.162 -0.135,-0.038 -0.269,-0.078 -0.406,-0.121 -5.169,-0.01 -16.439,-0.061 -27.339,-0.365 z m 19.08,-5.95 c -2.422,-3.156 -5.092,-7.886 -7.999,-15.07 -11.819,-29.45 -42.237,-109.469 -45.143,-116.831 -2.326,-6.007 -3.1,-6.975 -4.262,-6.975 -0.247,0 -0.476,0.052 -0.708,0.196 0.331,0.78 0.7,1.7 1.12,2.785 2.906,7.362 33.325,87.381 45.144,116.831 4.542,11.229 8.51,16.46 11.848,19.064 z m -78.245,-57.814 16.19,-49.675 c 0.079,-0.234 0.157,-0.45 0.235,-0.646 l -1.178,-3.348 c -0.969,-2.906 -1.937,-2.906 -2.906,0 l -17.051,52.312 c -0.387,0.969 0,1.357 0.582,1.357 z m 228.358,43.402 c -0.799,4.943 -1.792,10.281 -2.699,13.366 -1.163,3.682 -1.55,4.069 -5.038,5.619 -7.749,3.1 -22.474,4.456 -34.874,4.456 -29.063,0 -48.632,-7.168 -63.938,-20.925 -0.579,-0.52 -1.147,-1.045 -1.7,-1.575 1.697,1.909 3.542,3.769 5.549,5.569 15.307,13.757 34.876,20.925 63.939,20.925 12.399,0 27.124,-1.356 34.874,-4.456 3.488,-1.55 3.876,-1.937 5.038,-5.619 1.938,-6.587 4.262,-23.443 4.262,-24.799 0,-1.551 -0.388,-2.907 -1.356,-2.907 -1.162,0 -1.55,0.775 -1.938,2.907 -0.277,1.667 -0.998,4.485 -2.119,7.439 z m -90.542,-4.435 c -11.529,-12.953 -18.163,-30.093 -18.163,-47.954 0,-19.763 3.293,-37.007 17.437,-50.569 6.782,-6.588 18.793,-14.144 44.562,-14.144 16.422,0 30.866,4.853 37.968,10.404 -0.918,-1.271 -1.945,-2.404 -3.067,-3.354 -6.781,-5.813 -21.7,-11.044 -38.75,-11.044 -25.769,0 -37.782,7.556 -44.563,14.144 -14.143,13.562 -17.437,30.806 -17.437,50.568 0,19.765 8.125,38.646 22.013,51.949 z m 90.23,-87.179 c 0.324,1.759 0.494,3.549 0.494,5.318 0,2.713 0.194,4.069 1.551,4.069 1.162,0 1.549,-1.162 1.742,-4.069 0.194,-2.906 0.194,-13.562 0.582,-19.956 0.388,-6.975 0.968,-9.3 0.968,-10.85 0,-1.162 -0.386,-1.937 -2.518,-2.131 -0.49,-0.031 -0.982,-0.066 -1.473,-0.106 -0.196,1.656 -0.557,4.257 -0.826,9.093 -0.343,5.643 -0.383,14.607 -0.52,18.632 z m 47.487,112.088 c -0.53,0.362 -1.141,0.62 -1.849,0.761 -1.744,0.388 -4.069,0.775 -5.813,0.775 -1.162,0 -1.55,0.582 -1.55,1.163 0,1.162 0.969,1.55 3.1,1.55 5.813,0 17.05,-0.581 18.6,-0.581 1.55,0 12.788,0.581 22.281,0.581 2.132,0 3.1,-0.581 3.1,-1.55 0,-0.581 -0.387,-1.163 -1.55,-1.163 -1.743,0 -4.843,-0.387 -7.556,-0.775 -0.834,-0.111 -1.571,-0.294 -2.226,-0.542 -8.285,-0.127 -16.583,-0.545 -17.898,-0.545 -0.84,0 -4.518,0.17 -8.639,0.326 z m 22.477,-3.858 c -0.701,-1.693 -1.034,-3.753 -1.27,-6.037 -0.969,-8.137 -0.969,-23.444 -0.969,-42.043 v -18.988 h 0.493 c -1.366,-1.579 -2.508,-2.929 -3.374,-3.994 h -0.968 v 18.987 c 0,18.6 0,33.906 0.968,42.044 0.489,4.725 1.389,8.491 5.12,10.031 z m 40.694,-21.071 c 7.721,8.059 14.223,14.582 17.13,16.972 8.331,6.587 13.175,10.85 23.443,11.818 4.263,0.388 7.944,0.388 13.369,0.388 h 9.881 c 3.294,0 4.263,-0.581 4.263,-1.55 0,-0.775 -1.163,-1.163 -2.519,-1.163 -1.036,0 -4.556,-0.225 -8.406,-1.281 h -7.068 c -5.426,0 -9.107,0 -13.369,-0.388 -10.269,-0.968 -15.113,-5.231 -23.444,-11.818 -2.408,-1.981 -7.286,-6.799 -13.28,-12.978 z m -15.82,-39.322 c -6.295,-6.543 -11.219,-11.72 -12.775,-13.456 4.068,-4.844 37.781,-37.781 42.625,-42.431 8.718,-8.332 12.981,-13.175 20.925,-16.663 3.875,-1.744 7.943,-2.712 10.85,-2.712 1.55,0 1.937,-0.388 1.937,-1.357 0,-0.968 -0.775,-1.356 -2.906,-1.356 -2.448,0 -6.924,0.149 -10.878,0.295 -0.95,0.331 -1.907,0.71 -2.853,1.136 -7.944,3.487 -12.206,8.331 -20.925,16.662 -4.844,4.651 -38.556,37.588 -42.625,42.432 1.862,2.077 8.542,9.077 16.625,17.45 z m 25.271,-77.038 c -0.047,0.126 -0.071,0.265 -0.071,0.419 0,0.326 0.137,0.583 0.367,0.801 -0.053,-0.46 -0.154,-0.864 -0.296,-1.22 z m -52.384,59.634 v -4.383 c 0,-30.225 0,-35.65 0.388,-41.85 0.387,-6.782 1.937,-10.075 7.168,-11.044 2.325,-0.388 3.488,-0.581 4.844,-0.581 0.775,0 1.55,-0.388 1.55,-1.163 0,-1.162 -0.968,-1.55 -3.1,-1.55 -2.677,0 -6.506,0.123 -10.028,0.257 -2.958,1.586 -3.98,4.761 -4.284,10.086 -0.387,6.2 -0.387,11.625 -0.387,41.85 v 11.625 h 0.775 c 0.459,-0.514 1.539,-1.651 3.074,-3.247 z M 930.59,956.612 c -1.276,-0.019 -2.535,-0.03 -3.742,-0.03 -2.131,0 -3.1,0.388 -3.1,1.55 0,0.775 0.775,1.163 1.55,1.163 1.744,0 5.038,0.193 6.587,0.581 1.328,0.282 2.447,0.638 3.39,1.086 -0.842,-2.043 -2.267,-3.428 -4.685,-4.35 z m 247.377,-2.256 c -0.078,3.267 -0.779,21.941 -0.962,49.963 l -0.194,35.844 c -0.194,19.375 0,36.037 0.968,44.562 0.639,4.954 1.278,7.799 4.961,9.405 -0.546,-1.441 -0.828,-3.22 -1.111,-5.411 -0.969,-8.525 -1.163,-25.187 -0.969,-44.562 l 0.194,-35.844 c 0.194,-29.643 0.969,-48.825 0.969,-50.375 0,-1.937 -0.581,-4.068 -2.131,-4.068 -0.544,0 -1.12,0.187 -1.725,0.486 z m -30.574,20.318 -9.745,6.514 c -0.775,0.582 -1.356,1.357 -1.356,1.938 0,0.775 0.774,1.744 1.356,1.744 0.774,0 1.356,-0.194 2.324,-0.775 4.676,-2.245 17.476,-8.822 21.671,-9.276 -0.184,-2.609 -0.911,-4.019 -3.432,-4.019 -1.87,0 -6.287,1.799 -10.818,3.874 z m 9.355,124.137 c -3.738,0.767 -13.112,1.34 -15.42,1.34 -0.774,0 -1.55,0.775 -1.55,1.55 0,0.968 1.164,1.356 3.294,1.356 12.401,0 28.675,-0.581 29.645,-0.581 0.968,0 13.368,0.581 27.899,0.581 2.325,0 3.294,-0.388 3.294,-1.356 0,-0.775 -0.969,-1.55 -1.744,-1.55 -1.714,0 -9.61,-0.562 -12.636,-1.134 -11.21,-0.136 -19.86,-0.535 -20.663,-0.535 -0.528,0 -5.604,0.172 -12.119,0.329 z m 86.722,-8.12 c 7.949,9.671 21.221,15.078 36.196,15.078 27.707,0 46.113,-20.149 46.113,-42.624 0,-12.58 -5.83,-21.812 -13.217,-28.695 5.464,6.357 9.367,14.409 9.367,24.7 0,22.475 -18.406,42.625 -46.112,42.625 -12.769,0 -24.299,-3.931 -32.347,-11.084 z m 50.431,-70.733 c 10.814,-5.777 25.872,-17.217 25.872,-36.445 0,-9.149 -3.554,-16.363 -9.492,-21.384 3.59,4.604 5.642,10.439 5.642,17.39 0,20.344 -16.857,31.969 -27.706,37.394 1.765,0.909 3.686,1.919 5.684,3.045 z m -42.746,-9.82 c 3.66,4.297 8.346,8.03 13.606,11.482 0.519,-0.219 1.041,-0.432 1.562,-0.638 -5.643,-3.328 -10.854,-6.845 -15.168,-10.844 z m 6.671,77.109 c -4.586,-5.71 -7.222,-13.113 -7.222,-21.002 0,-19.375 11.819,-31.194 26.156,-38.169 8.323,4.346 16.469,8.737 22.712,14.436 -6.49,-7.746 -16.395,-13.121 -26.561,-18.43 -14.338,6.975 -26.157,18.793 -26.157,38.168 0,9.889 4.142,19.012 11.072,24.997 z m 39.558,-121.767 c -4.178,-5.615 -10.813,-9.017 -19.242,-9.017 -17.438,0 -25.187,13.756 -25.187,24.412 0,8.872 3.798,15.325 9.829,20.742 -3.752,-4.578 -5.98,-9.954 -5.98,-16.747 0,-10.657 7.749,-24.413 25.187,-24.413 6.184,0 11.403,1.831 15.393,5.023 z m 76.483,122.565 c -7.802,-9.594 -11.47,-24.399 -11.47,-38.076 0,-45.918 27.319,-77.112 52.119,-90.868 1.937,-1.163 3.681,-1.938 3.681,-3.488 0,-1.162 -0.774,-1.743 -1.55,-1.743 -0.774,0 -2.324,0.581 -4.069,1.356 -3.572,1.547 -7.072,3.316 -10.48,5.284 -22.126,15.685 -43.55,44.801 -43.55,85.465 0,15.757 4.867,33.012 15.319,42.07 z m -15.641,3.157 c 7.988,9.472 19.336,14.567 32.846,14.567 14.338,0 24.413,-4.262 33.519,-12.981 8.525,-8.331 13.95,-21.506 13.95,-36.812 0,-10.198 -4.202,-22.09 -13.205,-30.106 6.358,7.675 9.356,17.498 9.356,26.112 0,15.306 -5.426,28.481 -13.951,36.812 -9.106,8.719 -19.181,12.981 -33.518,12.981 -11.468,0 -21.377,-3.671 -28.997,-10.573 z m 24.167,-70.802 c -2.185,1.023 -3.952,2.103 -5.27,3.026 -1.163,0.775 -1.744,1.356 -1.744,2.325 0,0.968 0.194,1.55 0.774,1.55 0.582,0 1.938,-0.582 2.52,-0.775 4.456,-2.131 9.493,-2.519 14.531,-2.519 4.811,0 10.555,2.28 15.674,6.802 -5.91,-7.171 -13.457,-10.796 -19.524,-10.796 -2.339,0 -4.679,0.083 -6.961,0.387 z m 159.825,57.487 c -1.254,5.335 -2.837,11.27 -3.871,14.782 -1.55,5.231 -4.456,5.813 -12.593,5.813 h -71.919 c -0.235,0.433 -0.375,0.864 -0.375,1.281 0,1.55 1.357,2.713 2.713,2.713 h 73.43 c 8.138,0 11.045,-0.582 12.595,-5.813 1.936,-6.587 5.812,-21.7 5.812,-25.381 0,-1.162 -0.194,-2.906 -1.163,-2.906 -1.162,0 -1.743,0.775 -2.325,2.906 -0.541,2.39 -1.292,4.601 -2.304,6.605 z m -64.937,8.97 c 24.466,-20.885 64.335,-55.41 64.335,-93.85 0,-10.913 -4.103,-21.279 -12.338,-28.598 5.664,6.873 8.489,15.55 8.489,24.604 0,40.106 -43.401,75.95 -67.425,96.487 -0.97,0.775 -0.582,1.357 0.387,1.357 z m -14.796,-106.458 c 0.204,3.525 0.394,6.318 0.469,6.989 0.194,1.744 0.774,2.519 1.55,2.519 0.968,0 1.744,-1.162 1.744,-2.906 0,-7.556 2.13,-14.338 6.781,-18.794 5.618,-5.231 11.431,-7.362 20.73,-7.362 6.258,0 13.642,1.891 19.611,6.953 -6.377,-8.091 -15.769,-10.947 -23.46,-10.947 -9.299,0 -15.112,2.131 -20.731,7.362 -4.108,3.937 -6.251,9.689 -6.694,16.186 z"
         id="path49"
         inkscape:connector-curvature="0"
         style="fill:#808080;fill-opacity:1" />
      <path
         d="m 516.846,1040.768 c 0,18.6 0,33.906 -0.969,42.044 -0.774,5.619 -1.744,9.881 -5.618,10.656 -1.744,0.388 -4.069,0.775 -5.813,0.775 -1.162,0 -1.55,0.582 -1.55,1.163 0,1.162 0.968,1.55 3.1,1.55 5.813,0 18.018,-0.581 18.6,-0.581 0.969,0 13.175,0.581 23.831,0.581 2.132,0 3.1,-0.581 3.1,-1.55 0,-0.581 -0.388,-1.163 -1.55,-1.163 -1.744,0 -6.006,-0.387 -8.719,-0.775 -5.812,-0.775 -6.975,-5.037 -7.555,-10.656 -0.97,-8.138 -0.97,-23.444 -0.97,-42.044 v -79.631 c 0,-1.937 0.388,-3.294 1.55,-3.681 1.744,-0.775 5.038,-1.163 8.332,-1.163 4.456,0 16.275,-0.775 26.544,9.688 10.269,10.462 10.849,23.444 10.849,29.837 0,17.825 -14.725,31.582 -33.518,31.582 -4.069,0 -5.232,0.193 -5.232,1.743 0,0.969 1.163,1.357 2.132,1.357 0.968,0.193 3.1,0.193 4.069,0.193 27.512,0 47.662,-18.6 47.662,-46.112 0,-10.269 -5.426,-18.988 -9.688,-23.056 -3.099,-2.907 -11.818,-11.044 -36.037,-11.044 -8.912,0 -20.15,0.581 -24.412,0.581 -1.55,0 -13.175,-0.581 -21.894,-0.581 -2.132,0 -3.1,0.387 -3.1,1.55 0,0.775 0.775,1.162 1.55,1.162 1.744,0 5.037,0.194 6.587,0.582 6.394,1.356 7.944,4.456 8.332,11.043 0.387,6.2 0.387,11.625 0.387,41.85 z m 108.307,34.875 c -3.488,9.688 -7.363,17.05 -16.276,18.213 -1.55,0.193 -4.262,0.387 -5.619,0.387 -0.968,0 -1.744,0.388 -1.744,1.163 0,1.162 1.163,1.55 3.682,1.55 9.106,0 19.763,-0.581 21.893,-0.581 2.132,0 10.463,0.581 15.113,0.581 1.744,0 2.907,-0.388 2.907,-1.55 0,-0.775 -0.582,-1.163 -1.938,-1.163 h -1.938 c -3.293,0 -7.362,-1.743 -7.362,-5.618 0,-3.488 0.969,-8.138 2.713,-12.982 l 11.625,-34.293 c 0.387,-0.969 0.968,-1.55 1.937,-1.55 h 41.656 c 0.969,0 1.356,0.387 1.744,1.162 l 18.018,47.663 c 1.164,3.099 0,4.843 -1.162,5.231 -0.775,0.193 -1.356,0.581 -1.356,1.356 0,1.163 2.131,1.163 5.812,1.356 13.369,0.388 27.513,0.388 30.419,0.388 2.131,0 3.875,-0.388 3.875,-1.55 0,-0.969 -0.775,-1.163 -1.938,-1.163 -1.937,0 -4.843,-0.194 -7.749,-1.162 -4.069,-1.163 -9.688,-4.263 -16.662,-21.506 -11.819,-29.45 -42.238,-109.469 -45.145,-116.832 -2.324,-6.006 -3.1,-6.975 -4.262,-6.975 -1.162,0 -1.938,1.163 -4.263,7.557 z m 27.124,-42.818 c -0.581,0 -0.969,-0.388 -0.581,-1.357 l 17.05,-52.312 c 0.969,-2.906 1.937,-2.906 2.906,0 l 18.406,52.312 c 0.194,0.775 0.194,1.357 -0.774,1.357 z m 189.875,66.843 c 12.4,0 27.125,-1.356 34.875,-4.456 3.487,-1.55 3.875,-1.938 5.037,-5.619 1.938,-6.587 4.262,-23.443 4.262,-24.8 0,-1.55 -0.386,-2.906 -1.356,-2.906 -1.162,0 -1.55,0.775 -1.936,2.906 -0.582,3.488 -3.101,12.013 -7.169,16.275 -7.751,7.944 -19.182,9.688 -33.713,9.688 -41.463,0 -69.944,-33.906 -69.944,-70.913 0,-19.762 3.294,-37.006 17.438,-50.568 6.781,-6.588 18.794,-14.144 44.562,-14.144 17.05,0 31.968,5.231 38.75,11.044 5.037,4.262 8.138,12.206 8.138,19.762 0,2.713 0.193,4.069 1.55,4.069 1.162,0 1.55,-1.163 1.744,-4.069 0.194,-2.906 0.194,-13.562 0.58,-19.956 0.388,-6.975 0.97,-9.3 0.97,-10.85 0,-1.163 -0.388,-1.938 -2.52,-2.131 -6.199,-0.388 -12.399,-1.55 -19.762,-2.907 -9.493,-1.743 -20.344,-2.325 -28.093,-2.325 -29.838,0 -47.469,9.107 -59.094,20.732 -17.244,17.243 -21.7,39.912 -21.7,52.893 0,18.407 4.65,40.494 23.444,57.35 15.306,13.757 34.875,20.925 63.937,20.925 z m 90.675,-58.9 c 0,18.6 0,33.906 -0.969,42.044 -0.775,5.619 -1.744,9.881 -5.619,10.656 -1.743,0.388 -4.068,0.775 -5.812,0.775 -1.163,0 -1.55,0.582 -1.55,1.163 0,1.162 0.969,1.55 3.1,1.55 5.812,0 17.05,-0.581 18.6,-0.581 1.55,0 12.787,0.581 22.281,0.581 2.131,0 3.1,-0.581 3.1,-1.55 0,-0.581 -0.387,-1.163 -1.55,-1.163 -1.744,0 -4.844,-0.387 -7.556,-0.775 -5.813,-0.775 -6.975,-5.037 -7.556,-10.656 -0.969,-8.138 -0.969,-23.444 -0.969,-42.044 v -18.987 h 0.969 c 9.3,11.431 50.375,55.8 59.093,62.969 8.331,6.587 13.175,10.849 23.444,11.818 4.262,0.388 7.944,0.388 13.369,0.388 h 9.881 c 3.294,0 4.262,-0.581 4.262,-1.55 0,-0.775 -1.162,-1.163 -2.518,-1.163 -1.357,0 -6.975,-0.387 -12.013,-2.519 -9.3,-3.875 -12.594,-6.974 -28.869,-22.087 -7.943,-7.362 -48.243,-49.019 -53.281,-54.637 4.069,-4.844 37.781,-37.782 42.625,-42.432 8.719,-8.331 12.981,-13.175 20.925,-16.662 3.875,-1.744 7.944,-2.713 10.85,-2.713 1.55,0 1.938,-0.387 1.938,-1.356 0,-0.969 -0.775,-1.356 -2.907,-1.356 -4.843,0 -17.631,0.581 -18.6,0.581 -4.65,0 -10.656,-0.581 -14.531,-0.581 -1.356,0 -2.325,0.387 -2.325,1.356 0,0.775 0.775,1.163 1.744,1.55 1.55,0.581 2.519,1.744 2.519,4.069 0,3.294 -5.038,8.331 -10.463,13.95 -6.975,7.556 -42.043,43.206 -45.337,46.887 h -0.775 v -11.625 c 0,-30.225 0,-35.65 0.387,-41.85 0.388,-6.781 1.938,-10.075 7.169,-11.043 2.325,-0.388 3.488,-0.582 4.844,-0.582 0.775,0 1.55,-0.387 1.55,-1.162 0,-1.163 -0.969,-1.55 -3.1,-1.55 -5.813,0 -17.05,0.581 -18.794,0.581 -1.162,0 -12.594,-0.581 -21.312,-0.581 -2.132,0 -3.1,0.387 -3.1,1.55 0,0.775 0.775,1.162 1.55,1.162 1.743,0 5.037,0.194 6.587,0.582 6.394,1.356 7.944,4.456 8.331,11.043 0.388,6.2 0.388,11.625 0.388,41.85 z m 240.249,-38.556 c 0.194,-29.644 0.97,-48.825 0.97,-50.375 0,-1.937 -0.582,-4.069 -2.132,-4.069 -1.356,0 -2.906,1.163 -4.65,2.325 l -37.394,24.994 c -0.775,0.581 -1.356,1.356 -1.356,1.938 0,0.775 0.775,1.743 1.356,1.743 0.776,0 1.356,-0.193 2.326,-0.775 4.843,-2.325 18.406,-9.3 22.086,-9.3 3.101,0 3.488,2.132 3.488,6.007 0,10.656 0,18.987 0,29.45 v 33.906 c 0,19.375 0,36.037 -0.581,44.562 -0.387,6.007 -1.743,8.913 -8.137,10.075 -3.681,0.775 -13.176,1.356 -15.5,1.356 -0.776,0 -1.55,0.776 -1.55,1.55 0,0.969 1.162,1.357 3.294,1.357 12.399,0 28.675,-0.581 29.643,-0.581 0.969,0 13.369,0.581 27.9,0.581 2.325,0 3.294,-0.388 3.294,-1.357 0,-0.774 -0.969,-1.55 -1.744,-1.55 -1.743,0 -9.882,-0.581 -12.788,-1.162 -6.199,-1.356 -6.975,-4.262 -7.749,-10.269 -0.97,-8.525 -1.164,-25.187 -0.97,-44.562 z m 54.832,59.869 c 0,23.444 19.762,37.587 43.981,37.587 27.706,0 46.112,-20.15 46.112,-42.625 0,-23.831 -20.924,-35.65 -33.712,-42.237 10.85,-5.425 27.706,-17.05 27.706,-37.394 0,-18.987 -15.306,-29.644 -35.456,-29.644 -28.287,0 -41.269,19.957 -41.269,34.682 0,17.243 12.012,27.512 27.125,36.425 -17.631,6.975 -34.487,21.506 -34.487,43.206 z m 45.531,30.225 c -18.018,0 -30.612,-14.919 -30.612,-32.163 0,-19.375 11.818,-31.193 26.155,-38.168 17.438,9.106 34.1,18.406 34.1,39.525 0,17.243 -11.818,30.806 -29.643,30.806 z m 0.775,-137.95 c 14.918,0 24.219,10.656 24.219,25.381 0,19.763 -13.175,27.513 -20.732,31.969 -15.887,-8.525 -28.675,-16.663 -28.675,-32.938 0,-10.656 7.751,-24.412 25.188,-24.412 z m 140.469,104.237 c 0,21.313 -12.207,33.713 -27.707,33.713 -22.282,0 -32.356,-25.769 -32.356,-48.438 0,-45.918 27.318,-77.112 52.119,-90.868 1.938,-1.163 3.682,-1.938 3.682,-3.488 0,-1.162 -0.776,-1.744 -1.551,-1.744 -0.775,0 -2.325,0.582 -4.069,1.357 -37.587,16.275 -67.037,57.156 -67.037,94.743 0,35.263 18.406,55.8 45.53,55.8 14.338,0 24.413,-4.262 33.52,-12.981 8.525,-8.331 13.949,-21.506 13.949,-36.812 0,-17.244 -12.012,-39.332 -38.943,-39.332 -10.85,0 -18.599,4.069 -22.475,6.782 -1.163,0.775 -1.744,1.356 -1.744,2.325 0,0.968 0.194,1.55 0.775,1.55 0.581,0 1.938,-0.582 2.519,-0.775 4.456,-2.132 9.494,-2.519 14.531,-2.519 11.819,0 29.257,13.756 29.257,40.687 z m 107.143,37.782 c 8.138,0 11.044,-0.582 12.594,-5.813 1.938,-6.588 5.812,-21.7 5.812,-25.381 0,-1.163 -0.194,-2.906 -1.162,-2.906 -1.162,0 -1.744,0.774 -2.326,2.906 -2.324,10.269 -8.525,17.243 -22.668,18.6 -6.975,0.775 -29.837,0.969 -33.131,0.969 h -14.144 c -0.968,0 -1.356,-0.582 -0.388,-1.357 24.026,-20.537 67.425,-56.381 67.425,-96.487 0,-20.538 -14.53,-39.138 -43.787,-39.138 -15.694,0 -26.931,3.488 -34.099,6.782 -1.744,1.162 -1.938,1.743 -1.938,2.906 0,6.006 0.968,22.087 1.162,23.831 0.194,1.744 0.776,2.519 1.55,2.519 0.969,0 1.744,-1.163 1.744,-2.906 0,-7.557 2.132,-14.338 6.781,-18.794 5.619,-5.231 11.431,-7.363 20.732,-7.363 12.981,0 30.805,8.138 30.805,35.844 0,37.2 -28.869,63.938 -67.619,98.425 -1.549,1.356 -3.487,3.1 -3.487,4.65 0,1.55 1.357,2.713 2.713,2.713 z"
         id="path51"
         inkscape:connector-curvature="0"
         style="fill:#003f87;fill-opacity:1" />
    </g>
    <path
       d="m 415.596,1078.216 c 0,0 -1.842,-9.428 -13.528,-9.428 -11.684,0 -17.013,-1.845 -17.013,-9.842 0,-8.096 6.764,-10.348 10.966,-3.792 0,0 1.127,-9.118 7.481,-10.86 0,0 -2.354,-12.609 -10.761,-12.609 -8.506,0 -10.863,7.485 -9.428,13.634 0,0 -16.398,-4.305 -16.398,-22.547 0,-18.345 19.677,-19.78 30.541,-8.506 0,0 1.844,-23.982 18.14,-38.945 16.5,14.963 18.344,38.945 18.344,38.945 10.864,-11.274 30.544,-9.839 30.544,8.506 0,18.242 -16.401,22.547 -16.401,22.547 1.333,-6.149 -0.919,-13.634 -9.428,-13.634 -8.509,0 -10.764,12.609 -10.764,12.609 6.354,1.742 7.484,10.86 7.484,10.86 4.205,-6.556 10.966,-4.304 10.966,3.792 0,7.997 -5.326,9.842 -17.115,9.842 -11.789,0 -13.63,9.428 -13.63,9.428 z"
       id="path59"
       style="fill:#ce1126;fill-opacity:1"
       inkscape:connector-curvature="0" />
    <path
       d="m 1632.197,1075.448 c 0,0 -1.842,-9.429 -13.528,-9.429 -11.684,0 -17.013,-1.845 -17.013,-9.842 0,-8.096 6.764,-10.348 10.966,-3.792 0,0 1.127,-9.118 7.481,-10.86 0,0 -2.354,-12.609 -10.761,-12.609 -8.506,0 -10.863,7.485 -9.428,13.634 0,0 -16.398,-4.305 -16.398,-22.547 0,-18.345 19.677,-19.78 30.541,-8.506 0,0 1.845,-23.982 18.14,-38.945 16.5,14.963 18.344,38.945 18.344,38.945 10.864,-11.274 30.544,-9.839 30.544,8.506 0,18.242 -16.401,22.547 -16.401,22.547 1.333,-6.149 -0.919,-13.634 -9.428,-13.634 -8.509,0 -10.764,12.609 -10.764,12.609 6.354,1.742 7.484,10.86 7.484,10.86 4.205,-6.556 10.966,-4.304 10.966,3.792 0,7.997 -5.326,9.842 -17.115,9.842 -11.788,0 -13.63,9.429 -13.63,9.429 z"
       id="path61"
       style="fill:#ce1126;fill-opacity:1"
       inkscape:connector-curvature="0" />
    <path
       d="m 652.63,889.201 h 749.799 L 1028.394,614.505 Z"
       id="path63"
       style="fill:#ce1126;fill-opacity:1"
       inkscape:connector-curvature="0" />
    <path
       d="M 1398.9,1170.457 H 649.1 l 374.036,274.696 z"
       id="path65"
       style="fill:#ce1126;fill-opacity:1"
       inkscape:connector-curvature="0" />
    <path
       d="m 1025.881,1298.204 c 16.918,0 30.59,-13.843 30.59,-30.591 0,-28.027 -22.216,-57.421 -35.375,-73.486 14.355,30.933 -25.806,41.87 -25.806,73.486 0,16.919 13.843,30.591 30.591,30.591 z m 2.563,-72.802 c 8.374,10.083 21.704,28.198 21.704,45.287 0,10.425 -8.545,18.799 -18.799,18.799 -10.253,0 -18.798,-8.545 -18.798,-18.799 0,-19.14 24.78,-26.318 15.893,-45.287 z m 56.909,112.108 -28.027,-13.501 28.027,-13.501 c 7.007,-3.418 9.741,-11.45 6.323,-18.627 -3.418,-7.007 -11.45,-9.742 -18.628,-6.324 l -47.338,23.242 -47.51,-23.071 c -7.006,-3.418 -15.21,-0.342 -18.627,6.323 -3.418,7.007 -0.342,15.21 6.323,18.628 l 28.027,13.501 -28.027,13.501 c -7.007,3.418 -9.741,11.45 -6.323,18.628 3.417,7.007 11.45,9.741 18.627,6.323 l 47.51,-23.071 47.68,22.9 c 7.007,3.418 15.21,0.342 18.628,-6.323 3.247,-7.178 0.171,-15.21 -6.665,-18.628 z"
       id="path67"
       inkscape:connector-curvature="0"
       style="fill:#ffffff" />
    <path
       d="m 1063.403,842.213 h 90.639 c 1.883,0 4.304,-2.69 3.228,-4.572 l -47.068,-108.929 c -0.538,-1.614 -2.69,-1.614 -3.228,0 l -46.799,108.929 c -1.076,1.882 0.538,4.572 3.228,4.572 z m -16.407,0 H 893.958 c -1.883,0 -4.304,-2.69 -3.228,-4.572 8.069,-18.828 38.193,-87.681 47.337,-109.198 0.538,-1.614 1.883,-1.883 3.766,-1.076 26.896,13.717 121.57,13.717 154.921,0.538 1.613,-0.538 3.227,1.076 1.882,2.69 -16.406,37.385 -40.344,93.329 -46.799,108.39 0.538,1.883 -2.151,3.228 -4.841,3.228 z"
       id="path69"
       inkscape:connector-curvature="0"
       style="fill:#ffffff" />
    <path
       d="m 746.761,1280.637 -188.288,188.759 c -50.856,50.855 -109.658,88.997 -174.817,114.425 -19.071,7.946 -23.839,31.785 -9.535,46.088 l 47.677,47.677 c 14.303,14.303 38.142,7.946 46.088,-9.535 25.428,-65.159 65.159,-125.55 114.425,-174.817 l 192.21,-192.21 z m 536.471,15.158 361.695,361.695 7.868,-7.868 -360.473,-360.472 z M 766.157,762.984 472.583,469.41 l -7.868,7.868 292.352,292.352 z m 566.066,33.916 c 89.906,-53.086 173.403,-116.197 246.543,-190.463 l 140.656,-147.158 c 36.553,-36.553 36.553,-96.944 0,-135.085 -36.552,-36.553 -96.944,-36.553 -135.085,0 L 1443.68,471.352 c -78.701,78.701 -144.877,166.35 -198.526,261.604 z M 307.882,309.856 382.593,481.534 c 7.948,-22.255 39.741,-30.203 58.816,-11.128 l 15.896,15.896 27.023,-27.023 -15.896,-15.896 c -19.075,-19.075 -12.717,-49.278 11.127,-58.815 z m 1201.743,1203.333 93.787,-1.59 -14.306,-15.896 -93.787,3.179 z m 46.099,46.098 93.787,-1.589 -14.307,-15.896 -93.787,3.179 z m 46.098,44.509 h 92.198 l -14.307,-15.896 -92.197,1.59 z m 46.099,46.099 92.197,-1.59 -14.306,-14.306 h -93.787 z m -138.296,-136.706 -14.306,-14.307 -3.18,92.198 15.896,14.306 z m 46.099,46.098 -14.307,-14.306 -3.179,92.197 15.896,14.307 z m 46.098,44.509 -14.306,-14.306 -3.179,93.787 15.896,14.306 z m 46.099,46.099 -15.896,-15.896 -1.59,95.377 15.896,14.306 z"
       id="path71"
       inkscape:connector-curvature="0"
       style="fill:#003f87;fill-opacity:1" />
    <path
       d="m 366.915,891.565 v -4.728 h 1314.17 v 4.728 z"
       id="path55"
       inkscape:connector-curvature="0"
       style="fill:#404040;fill-opacity:1" />
    <path
       d="m 366.915,1170.457 v -4.727 h 1314.17 v 4.727 z"
       id="path57"
       inkscape:connector-curvature="0"
       style="fill:#404040;fill-opacity:1" />
  </g>
</svg>
